<?xml version="1.0" encoding="UTF-8"?>
<!DOCTYPE svg PUBLIC "-//W3C//DTD SVG 1.1//EN" "http://www.w3.org/Graphics/SVG/1.1/DTD/svg11.dtd">
<svg version="1.1" xmlns="http://www.w3.org/2000/svg" xmlns:xlink="http://www.w3.org/1999/xlink" x="0px" y="0px" width="100" height="100" viewBox="0, 0, 100, 100">
  <g id="#d22d27ff">
    <path d="M31.027,0 L32.571,0 C32.804,0.304 33.268,0.92 33.5,1.223 C33.348,1.634 33.045,2.438 32.893,2.848 L32.554,3.786 C32.143,3.714 31.339,3.589 30.929,3.527 C30.634,3.223 30.045,2.616 29.75,2.313 C29.17,3.643 28.562,4.973 28,6.312 C27.75,6.018 27.25,5.446 27.009,5.152 C27.304,2.795 28.991,1.071 31.027,0 z" fill="#D22D27"/>
    <path d="M66.902,3.795 C67.634,3.143 68.366,2.482 69.098,1.83 C69.098,2.25 69.107,2.67 69.107,3.089 C69.67,3.911 70.062,4.821 69.982,5.839 C69.973,6.214 69.964,6.964 69.964,7.339 C69.33,7.125 68.062,6.688 67.429,6.464 C67.777,5.964 68.464,4.973 68.812,4.473 C68.33,4.304 67.375,3.964 66.902,3.795 z" fill="#D22D27"/>
    <path d="M62.036,2.42 C62.446,2.598 63.268,2.938 63.67,3.116 C63.866,3.188 64.25,3.339 64.438,3.411 L66.455,3.589 C66.696,4.67 66.938,5.741 67.17,6.821 L66.473,6.214 C66.411,6.75 66.286,7.821 66.214,8.357 C65.83,8.232 65.054,7.991 64.67,7.866 C63.83,7.545 62.991,7.223 62.161,6.902 C61.812,6.875 61.116,6.821 60.777,6.795 C60.071,6.768 58.661,6.714 57.955,6.688 C58.348,6.473 59.125,6.045 59.509,5.83 L60.402,4.652 C60.946,3.911 61.491,3.17 62.036,2.42 z" fill="#D22D27"/>
    <path d="M38.652,18.884 C39.17,17.964 39.607,17 39.991,16.009 C39.982,17.152 39.991,18.295 40.018,19.429 C39.446,20.196 38.875,20.964 38.304,21.732 C38.089,22.027 37.652,22.625 37.438,22.92 C37.277,22.554 36.955,21.83 36.795,21.473 C36.42,21.688 35.661,22.134 35.277,22.357 L34.259,22.991 C34.321,21.848 34.295,20.696 34.402,19.554 C34.973,19.58 36.116,19.625 36.688,19.643 C37.179,19.455 38.161,19.08 38.652,18.884 z" fill="#D22D27"/>
    <path d="M59.205,18.527 L59.741,19.5 C59.875,19.777 60.152,20.339 60.286,20.616 C60.714,19.607 61.277,18.679 61.973,17.839 L63.857,19.054 C62.723,19.839 61.634,20.688 60.545,21.536 C60.312,22.545 60.054,23.545 59.768,24.536 C59.295,24.527 58.357,24.527 57.884,24.527 C58.455,22.955 59.527,21.375 59.33,19.634 L59.205,18.527 z" fill="#D22D27"/>
    <path d="M89.08,23.964 C89.884,23.527 90.732,23.357 91.625,23.437 C92.705,25.33 92.893,28.187 95.687,28.134 C96.402,29.33 97.107,30.536 97.705,31.795 C97.518,32.116 97.143,32.759 96.955,33.089 C96.58,33.223 95.839,33.5 95.473,33.634 L94.312,32.08 C94.857,31.821 95.946,31.312 96.491,31.054 C95.812,30.821 94.464,30.348 93.786,30.107 C93.33,28.866 92.625,26.687 90.884,27.437 C90.42,27.518 89.509,27.67 89.045,27.75 C88.92,27.348 88.661,26.554 88.536,26.161 L88.312,25.482 C88.509,25.107 88.893,24.339 89.08,23.964 z" fill="#D22D27"/>
    <path d="M9.866,24.054 C10.259,24.045 11.062,24.036 11.455,24.027 C12.455,24.268 13.545,24.482 14.17,25.384 C13.991,26 13.634,27.241 13.455,27.857 C13.393,28.25 13.259,29.027 13.196,29.411 C12.777,29.562 11.946,29.866 11.536,30.018 C10.348,29.991 9.17,29.884 7.991,29.848 L8.107,29.107 L8.339,27.67 C8.804,26.446 9.339,25.25 9.866,24.054 z" fill="#D22D27"/>
    <path d="M61.384,25.777 C62.634,26.295 63.902,26.768 65.161,27.241 C65.071,27.634 64.875,28.42 64.786,28.812 C64.384,29.348 63.973,29.884 63.571,30.42 C62.411,30.071 61.259,29.723 60.107,29.384 C60.58,28.196 60.973,26.982 61.384,25.777 z" fill="#D22D27"/>
    <path d="M2.777,29.42 L3.482,29.312 C3.473,30.607 4.179,31.214 5.598,31.125 L5.098,32.411 C4.366,32.866 3.634,33.295 2.875,33.696 L2,32.652 C2.17,31.554 2.42,30.473 2.777,29.42 z" fill="#D22D27"/>
    <path d="M72.491,33.67 C72.893,33.259 73.705,32.438 74.116,32.036 L74.205,33.17 C74.482,32.893 75.036,32.339 75.312,32.071 C75.589,32.607 76.134,33.679 76.411,34.223 C75.634,34.688 74.866,35.17 74.107,35.679 C76.027,36.027 77.964,36.321 79.866,36.759 C80.045,37.938 80.196,39.125 80.366,40.312 C78.866,40.402 77.973,39.518 77.58,38.134 C77.455,37.902 77.214,37.429 77.098,37.196 C75.321,36.812 73.554,36.357 71.929,35.527 L72.009,34.911 C72.134,34.598 72.375,33.982 72.491,33.67 z" fill="#D22D27"/>
    <path d="M55.964,32.375 C57.402,32.571 58.848,32.786 60.295,32.991 L60.598,33.045 C60.589,33.295 60.562,33.804 60.554,34.054 C60.429,36.161 60.268,38.268 60.036,40.366 C60,39.759 59.929,38.536 59.893,37.92 L58.616,37.241 L58.152,37 C57.339,36.607 56.536,36.223 55.723,35.857 C55.786,34.982 55.902,33.241 55.964,32.375 z" fill="#D22D27"/>
    <path d="M19.438,34.929 C19.714,34.536 20.277,33.759 20.562,33.375 C21.321,34.446 22.134,35.482 22.991,36.491 C21.973,36.741 20.946,36.964 19.92,37.143 C19.607,36.839 18.973,36.232 18.661,35.929 C18.848,35.679 19.241,35.179 19.438,34.929 z" fill="#D22D27"/>
    <path d="M46.705,35.545 C47.045,35.536 47.732,35.509 48.08,35.5 L49.402,35.902 C50.107,36.223 50.795,36.571 51.482,36.938 C51.777,37.116 52.366,37.464 52.661,37.643 L52.232,38.714 C51.938,38.938 51.348,39.375 51.062,39.589 C51.795,40.393 52.536,41.179 53.286,41.964 C52.857,42.446 52,43.411 51.571,43.893 C51.232,44.098 50.554,44.5 50.214,44.705 C50.429,44.955 50.866,45.464 51.08,45.723 C50.991,46.098 50.812,46.848 50.714,47.223 C50.196,47.018 49.143,46.616 48.625,46.411 C48.679,44.991 48.714,43.571 48.705,42.152 C48.455,42.268 47.955,42.482 47.705,42.598 L47.58,42.839 C47.268,43.482 46.625,44.777 46.312,45.42 C44.58,45.107 45.107,43.795 45.562,42.598 C45.134,41.723 44.688,40.848 44.312,39.946 C44.545,39.509 45.018,38.643 45.259,38.214 C45.616,37.545 46.339,36.214 46.705,35.545 z" fill="#D22D27"/>
    <path d="M69.777,44.259 C70.339,42.688 71.116,41.196 72.464,40.152 C72.768,40.955 73.098,41.75 73.464,42.527 C73.723,43.098 74.259,44.232 74.527,44.795 C73.964,44.795 72.848,44.777 72.286,44.777 C71.661,44.643 70.402,44.384 69.777,44.259 z" fill="#D22D27"/>
    <path d="M29.67,42.723 L30.527,43.125 C31.705,43.643 32.884,44.125 34.071,44.625 C33.741,45.804 33.42,46.973 33.08,48.143 C33.045,48.518 32.964,49.259 32.929,49.634 L33.036,50.741 L32.554,50.598 C32.982,49.438 31.92,48.411 30.83,48.295 L29.83,47.991 C29.429,47.848 28.616,47.58 28.214,47.438 C28.714,45.875 29.196,44.304 29.67,42.723 z" fill="#D22D27"/>
    <path d="M19.92,44.732 C21.071,43.723 22.464,44.089 23.777,44.42 L23.92,44.446 C24.054,45.187 24.33,46.652 24.464,47.384 C23.804,47.545 22.5,47.866 21.839,48.027 C21.277,46.893 20.58,45.821 19.92,44.732 z" fill="#D22D27"/>
    <path d="M49.089,54.679 C49.286,54.223 49.679,53.312 49.875,52.848 C50.268,52.911 51.054,53.027 51.446,53.08 C51.661,53.116 52.089,53.196 52.295,53.232 C52.705,53.429 53.518,53.83 53.92,54.036 C53.777,54.732 53.482,56.134 53.33,56.83 C53.277,57.125 53.17,57.714 53.116,58.018 C53.723,58.705 54.366,59.375 54.991,60.054 L52.893,60.598 C53.33,60.884 54.205,61.455 54.634,61.741 C52.5,61.384 51.688,63.304 51.027,64.92 C51.116,62.786 51.554,60.688 51.661,58.562 L51.116,57.946 C50.411,57.107 49.5,56.83 48.384,57.125 C48.616,56.312 48.848,55.491 49.089,54.679 z" fill="#D22D27"/>
    <path d="M68.75,52.241 C70.5,52.616 72.268,52.982 73.982,53.527 L73.464,54.143 C73.161,54.509 72.562,55.241 72.259,55.607 L71.929,56.08 C71.679,55.973 71.17,55.777 70.92,55.67 L69.946,55.455 C69.241,55.143 68.536,54.821 67.839,54.491 C68.062,53.929 68.518,52.804 68.75,52.241 z" fill="#D22D27"/>
    <path d="M85.58,51.955 L86.562,52.42 C88.482,53.429 91.768,54.125 90.062,56.955 C89.491,58.161 88.875,59.339 88.25,60.518 C87.777,60.33 86.821,59.964 86.348,59.777 C85.938,59.58 85.116,59.179 84.705,58.982 L83.5,58.348 C84.304,57.446 85.116,56.562 85.893,55.643 L84.625,55.312 C84.759,54.848 85.027,53.92 85.161,53.455 C85.268,53.08 85.473,52.33 85.58,51.955 z" fill="#D22D27"/>
    <path d="M21.562,55.464 C22.277,55.446 23.714,55.411 24.438,55.393 C24.688,55.375 25.188,55.33 25.438,55.312 C25.536,55.946 25.714,57.214 25.812,57.848 C25.732,58.134 25.58,58.705 25.509,58.991 C24.705,58.75 23.884,58.527 23.071,58.304 C22.839,57.866 22.375,56.991 22.143,56.554 C22,56.286 21.705,55.741 21.562,55.464 z" fill="#D22D27"/>
    <path d="M68.036,57.804 C69.205,57.946 70.366,58.116 71.527,58.295 L71.955,59.116 L71.893,59.429 L70.384,59.991 C70.929,60.438 71.473,60.884 72.018,61.321 C71.661,61.438 70.946,61.679 70.589,61.795 C70.196,62.125 69.411,62.777 69.018,63.098 C67.714,62.857 66.589,62.277 65.643,61.357 L65.562,61.054 C66.384,59.964 67.223,58.902 68.036,57.804 z" fill="#D22D27"/>
    <path d="M76.598,59.116 C77.071,59.295 78.018,59.643 78.491,59.812 C78.071,60.661 77.652,61.5 77.241,62.348 C76.946,62.348 76.375,62.348 76.08,62.348 L75.893,62.491 C75.42,62.839 74.473,63.545 73.991,63.902 C74.107,63.75 74.321,63.455 74.437,63.312 L75.071,62.5 L75.366,61.866 C75.786,60.955 76.187,60.036 76.598,59.116 z" fill="#D22D27"/>
    <path d="M5.402,60.375 C5.768,60.295 6.5,60.134 6.866,60.054 C7.214,60 7.92,59.893 8.268,59.839 C8.545,60.089 9.107,60.58 9.384,60.821 C9.598,61.188 10.027,61.911 10.241,62.268 C9.625,62.321 8.411,62.429 7.804,62.482 C8.759,63.696 9.732,64.902 10.714,66.098 C10.071,66.018 8.795,65.848 8.152,65.759 C8.054,65.75 7.857,65.723 7.768,65.705 C7.402,65.571 6.679,65.304 6.312,65.17 C6.411,64.25 6.223,63.375 5.759,62.536 C5.67,62 5.491,60.92 5.402,60.375 z" fill="#D22D27"/>
    <path d="M18.652,59.598 C19.679,60.214 20.741,60.786 21.804,61.33 C21.687,62.214 21.446,63.982 21.33,64.866 C20.732,63.92 20.116,62.991 19.5,62.062 C19.259,61.679 18.786,60.911 18.545,60.527 L18.652,59.598 z" fill="#D22D27"/>
    <path d="M28.607,62.723 C29.036,62.92 29.884,63.321 30.312,63.527 L30.116,64.179 C28.804,65.304 27.098,63.938 28.607,62.723 z" fill="#D22D27"/>
    <path d="M43.527,64.83 C43.946,64.804 44.777,64.75 45.196,64.723 C45.036,65.839 44.866,66.946 44.696,68.062 C44.277,68.116 43.446,68.214 43.027,68.268 C43.08,68.634 43.187,69.357 43.241,69.723 C43.143,70.384 42.955,71.705 42.857,72.366 C42.384,73.839 40.634,72.964 39.607,72.75 C40.464,71.92 41.277,71.054 42.054,70.152 L40.482,68.857 L40.518,68.321 C40.562,67.714 40.607,67.098 40.679,66.491 C41.045,66.527 41.786,66.589 42.152,66.625 L42.955,66.67 L43.437,66.714 C43.375,66.536 43.259,66.196 43.196,66.027 L42.75,65.134 L43.527,64.83 z" fill="#D22D27"/>
    <path d="M95.232,64.08 C95.768,63.982 96.839,63.795 97.375,63.696 C99.839,64.911 97.33,67.464 96.902,69.205 C96.393,69.232 95.393,69.295 94.893,69.33 L93.83,68.866 L94.277,67.277 L95.607,67.643 L96.705,67.991 C96.161,66.705 95.491,65.455 95.232,64.08 z" fill="#D22D27"/>
    <path d="M57.634,71.134 C57.134,69.286 57.92,67.607 58.786,66.027 C59.375,66.357 60.554,67.018 61.143,67.348 C61.098,68.402 61.348,69.58 60.446,70.411 C61.598,72.295 63.152,73.884 64.545,75.571 L64.536,76.304 L62.812,76.089 C62.527,75.741 61.955,75.054 61.67,74.705 C61.232,74.054 60.786,73.402 60.348,72.75 C59.768,71.286 59.161,69.83 58.437,68.429 C58.232,69.098 57.83,70.455 57.634,71.134 z" fill="#D22D27"/>
    <path d="M78.723,66.804 L79.125,65.777 C79.518,66.884 79.955,67.964 80.339,69.071 C79.741,69.188 78.536,69.411 77.938,69.527 L77.295,69.661 L77.045,69.384 L77.58,69.089 C78.089,68.393 78.464,67.634 78.723,66.804 z" fill="#D22D27"/>
    <path d="M40.062,75.759 C40.554,76.179 41.527,77.009 42.009,77.429 C42.071,77.705 42.196,78.268 42.25,78.554 C41.232,78.821 40.214,79.062 39.188,79.277 C38.911,80.732 38.661,82.187 38.384,83.643 L38.134,83.973 C37.179,84.054 36.214,84.125 35.25,84.187 C34.929,83.92 34.295,83.384 33.973,83.116 C33.241,82.554 32.5,82 31.75,81.455 C31.83,80.937 31.991,79.893 32.08,79.375 C32.143,78.937 32.286,78.062 32.357,77.625 C32.804,77.161 33.696,76.232 34.143,75.768 C34.223,76.473 34.393,77.893 34.482,78.598 C34.875,78.402 35.661,78.018 36.054,77.821 C36.83,77.955 37.598,78.107 38.366,78.286 L38.902,78.411 C39.929,77.804 40.312,76.92 40.062,75.759 z" fill="#D22D27"/>
    <path d="M65.384,83.241 C66.312,83.17 67.134,82.83 67.839,82.232 C68.17,82.348 68.821,82.598 69.152,82.714 C71.179,82.884 70.67,84.812 69.875,86.009 C68.688,86.17 66.973,86.312 66.741,87.812 C66.25,87.062 65.732,86.339 65.196,85.625 L65.866,85.777 C65.696,84.929 65.536,84.089 65.384,83.241 z" fill="#D22D27"/>
    <path d="M41.304,83.893 C41.759,85.054 42.277,86.188 42.795,87.321 C42.607,87.562 42.232,88.045 42.045,88.286 C41.366,88.098 40.018,87.732 39.348,87.545 C40.107,86.384 40.705,85.143 41.304,83.893 z" fill="#D22D27"/>
  </g>
  <g id="#60963de3">
    <path d="M48.277,-0 L48.688,-0 C50.143,2.375 52.295,4.205 54.196,6.205 C53.393,6.75 52.598,7.295 51.795,7.848 C50.589,6.214 49.438,4.536 48.545,2.705 C48.473,2.179 48.33,1.125 48.259,0.598 L48.277,-0 z" fill="#60963D" opacity="0.89"/>
  </g>
  <g id="#67a944ff">
    <path d="M65.705,-0 L65.902,-0 L66.473,0.679 C66.464,1.652 66.455,2.616 66.455,3.589 L64.438,3.411 C64.25,3.339 63.866,3.188 63.67,3.116 C65.33,2.875 65.67,1.509 65.705,-0 z" fill="#67A944"/>
    <path d="M30.929,3.527 C31.339,3.589 32.143,3.714 32.554,3.786 L32.893,4.491 L33.205,5.205 C34.625,8.714 36.295,12.116 37.92,15.536 C38.482,14.312 39.027,13.08 39.571,11.848 C40.679,10.223 41.848,8.652 43.071,7.116 C44.205,5.696 45.804,4.821 47.42,4.063 C47.268,4.616 46.955,5.714 46.804,6.259 C46.205,7.116 45.554,7.929 44.884,8.732 C44.482,9.205 43.688,10.143 43.286,10.616 C43.027,10.929 42.518,11.554 42.259,11.866 C41.25,13.089 40.464,14.491 39.991,16.009 C39.607,17 39.17,17.964 38.652,18.884 C38.42,18.58 37.946,17.982 37.714,17.679 C37.125,16.616 36.58,15.536 35.893,14.536 L34.902,13.812 L34.696,13.402 C34.545,13.098 34.241,12.482 34.089,12.179 C35.312,10.893 34.223,9.339 33.071,8.491 L32.768,7.857 C32.705,7.714 32.571,7.446 32.509,7.304 L32.205,6.688 C32.036,6.098 31.687,4.911 31.518,4.321 L30.929,3.527 z" fill="#67A944"/>
    <path d="M54.759,11.705 C55.429,11.116 56.098,10.545 56.795,9.982 C57.652,11.92 58.491,13.857 59.375,15.786 L57.786,16.045 C56.768,14.607 55.75,13.17 54.759,11.705 z" fill="#67A944"/>
    <path d="M13.643,14.482 C14.027,14.518 14.786,14.607 15.17,14.643 C15.393,15.339 15.598,16.036 15.795,16.741 C16.17,18.179 16.509,19.625 16.839,21.071 C16.196,21.438 14.929,22.161 14.295,22.527 C14,19.848 13.786,17.17 13.643,14.482 z" fill="#67A944"/>
    <path d="M35.277,22.357 C35.661,22.134 36.42,21.687 36.795,21.473 C36.955,21.83 37.277,22.554 37.438,22.92 C38.179,24.723 38.902,26.536 39.643,28.339 C39.107,29.241 38.652,30.179 38.188,31.116 C39.375,31.348 40.562,31.58 41.75,31.804 L41.696,31.955 C39.482,31.875 35.982,30.5 34.714,33.036 C36.554,35.259 39.857,35.848 42.223,37.527 C40.768,37.223 39.304,36.973 37.857,36.616 C35.875,35.696 33.884,34.786 31.786,34.152 C30.938,33.786 30.08,33.42 29.241,33.036 C28.152,32.161 27.205,31.116 26.446,29.946 C28.223,30.634 29.973,31.393 31.714,32.17 C31.795,31.687 31.946,30.723 32.018,30.241 C32.411,31.152 31.938,33.759 33.625,32.759 C33.679,32.304 33.786,31.393 33.839,30.946 C35.411,30.491 36.982,30.054 38.554,29.616 C37.991,27.455 37.241,25.339 36.179,23.375 L35.036,23.375 L35.277,22.357 z" fill="#67A944"/>
    <path d="M11.455,24.027 C11.607,24.027 11.911,24.018 12.062,24.009 C13.866,24.054 15.652,23.723 17.384,23.223 C17.464,23.571 17.625,24.286 17.696,24.634 C17.857,25.286 18.161,26.589 18.312,27.232 L16.884,27.125 C15.795,26.839 14.884,26.259 14.17,25.384 C13.545,24.482 12.455,24.268 11.455,24.027 z" fill="#67A944"/>
    <path d="M45.134,25.125 C46.75,24.527 48.411,24.071 50.08,23.634 C50.232,24.277 50.536,25.554 50.688,26.188 C50.491,24.625 48.777,24.848 47.973,25.714 C47.607,25.884 46.875,26.205 46.509,26.366 C45.696,26.688 44.884,27.009 44.08,27.33 C43.125,28.188 42.598,29.366 42.125,30.527 C42.152,29.705 42.214,28.062 42.241,27.232 C42.634,26.902 43.438,26.232 43.839,25.893 C44.161,25.705 44.812,25.312 45.134,25.125 z" fill="#67A944"/>
    <path d="M76.375,22.75 L76.705,22.875 C76.893,22.982 77.268,23.188 77.455,23.295 L77.67,24.938 C77.732,25.384 77.848,26.268 77.911,26.714 C77.286,28.607 76.402,30.402 75.312,32.071 C75.036,32.339 74.482,32.893 74.205,33.17 L74.116,32.036 C74.777,30.241 75.473,28.438 75.714,26.536 C75.777,26.027 75.893,25 75.955,24.491 L76.357,22.83 L76.375,22.75 z" fill="#67A944"/>
    <path d="M2.777,29.42 C2.955,28.955 3.295,28.027 3.464,27.562 L4.375,27.92 C5.25,28.732 6.17,29.527 7.268,30.036 C8.5,30.786 9.696,31.598 10.866,32.446 L10.973,33.741 C9.339,32.795 7.723,31.821 6.152,30.768 C5.446,30.062 4.652,28.875 3.482,29.312 L2.777,29.42 z" fill="#67A944"/>
    <path d="M13.018,33.411 C14.107,34.911 15.937,35.348 17.679,35.482 L18.661,35.929 C18.973,36.232 19.607,36.839 19.92,37.143 C19.437,37.188 18.464,37.286 17.982,37.339 C16.795,36.991 15.607,36.643 14.411,36.312 C13.821,35.402 13.348,34.438 13.018,33.411 z" fill="#67A944"/>
    <path d="M72.286,39.277 C72.723,39.009 73.598,38.482 74.036,38.223 C73.946,38.884 73.777,40.205 73.688,40.866 C75.241,40.518 76.795,40.179 78.357,39.866 L77.589,40.571 C76.348,41.482 74.857,41.946 73.464,42.527 C73.098,41.75 72.768,40.955 72.464,40.152 L72.286,39.277 z" fill="#67A944"/>
    <path d="M13.723,39.455 C14.107,40.134 14.482,40.812 14.884,41.482 C13.562,41.679 12.268,42.036 10.964,42.339 L10.438,41.812 C11.205,41.312 11.964,40.804 12.723,40.304 C12.973,40.089 13.473,39.67 13.723,39.455 z" fill="#67A944"/>
    <path d="M7.089,43.473 C7.562,43.875 8.045,44.277 8.518,44.688 L9.634,45.625 C7.491,47.393 5.286,49.098 3.045,50.759 C2.607,50.473 1.732,49.902 1.295,49.616 C3.313,47.652 5.268,45.625 7.089,43.473 z" fill="#67A944"/>
    <path d="M11.196,44.152 C12.58,45.054 14.027,45.92 15.107,47.196 C15.759,48.045 16.384,48.911 17.054,49.75 C18.598,51.821 20.741,53.286 22.955,54.545 C23.33,54.759 24.062,55.179 24.438,55.393 C23.714,55.411 22.277,55.446 21.562,55.464 C18.929,54.527 16.688,52.821 14.58,51.036 C14.232,50.562 13.536,49.598 13.187,49.125 C12.295,47.955 11.25,46.92 10.107,46 L11.196,44.152 z" fill="#67A944"/>
    <path d="M57.402,44.929 C58.839,45.42 60.277,45.911 61.714,46.393 C63.92,47.152 66.134,47.911 68.402,48.438 C69.009,48.58 70.214,48.857 70.812,48.991 C70.625,49.402 70.25,50.214 70.062,50.616 C67.875,49.848 65.67,49.152 63.446,48.509 C62.884,48.348 61.759,48.027 61.187,47.866 C59.643,47.509 58.089,47.179 56.518,46.946 L56.116,46.875 C55.562,47.973 55.187,49.125 54.982,50.339 C54.125,51.339 53.232,52.304 52.295,53.232 C52.089,53.196 51.661,53.116 51.446,53.08 C52.75,51.143 53.946,49.134 55.268,47.214 C55.187,46.545 55.009,45.205 54.929,44.536 C55.545,44.634 56.786,44.83 57.402,44.929 z" fill="#67A944"/>
    <path d="M72.286,44.777 C72.848,44.777 73.964,44.795 74.527,44.795 C76.214,45.42 77.616,46.571 79,47.687 C78.509,48.08 78,48.473 77.482,48.848 C75.991,47.205 74.259,45.795 72.286,44.777 z" fill="#67A944"/>
    <path d="M43.179,53.152 C44.179,50.705 45.286,48.312 46.464,45.955 C46.188,48.321 45.723,50.661 45.036,52.938 L45,53.071 L44.991,53.205 C44.955,54.5 44.911,55.804 44.911,57.098 C44.848,56.545 44.732,55.42 44.67,54.866 C42.973,56.527 42.536,58.911 42.036,61.125 C41.982,61.509 41.866,62.268 41.812,62.652 C41.527,62.714 40.955,62.821 40.67,62.884 C40.312,60.214 41.786,57.839 42.571,55.393 C40.384,55.009 38.214,54.482 36.071,53.911 C36.027,53.366 35.955,52.268 35.92,51.723 C36.366,51.929 37.277,52.339 37.732,52.554 C38.893,54.107 40.955,54.411 42.759,54.143 L42.92,53.759 C42.982,53.607 43.116,53.304 43.179,53.152 z" fill="#67A944"/>
    <path d="M98.357,46.634 C98.768,46.964 99.589,47.616 100,47.937 L100,48.723 C97.509,50.955 94.723,52.812 91.991,54.723 C91.67,54.527 91.036,54.134 90.714,53.937 C90.509,53.527 90.107,52.714 89.902,52.304 C92.402,51 94.866,49.634 97.438,48.473 C97.812,48.464 98.545,48.455 98.92,48.455 C98.777,48 98.5,47.089 98.357,46.634 z" fill="#67A944"/>
    <path d="M56.107,50.875 C56.25,50.705 56.527,50.375 56.67,50.205 C56.527,50.375 56.25,50.705 56.107,50.875 z" fill="#67A944"/>
    <path d="M78.679,50.661 C79.018,50.348 79.688,49.723 80.027,49.411 C81.259,51.027 82.482,52.732 82.741,54.812 L81.5,54.437 C81.152,54.223 80.464,53.786 80.116,53.571 C79.598,52.616 79.125,51.643 78.679,50.661 z" fill="#67A944"/>
    <path d="M53.92,54.036 L54.036,54.438 C54.223,54.866 54.589,55.714 54.768,56.143 C56.429,57.321 58.179,58.366 59.938,59.393 L59.848,59.455 C59.366,59.83 58.402,60.589 57.92,60.964 C57.679,59.473 56.759,58.446 55.286,58.045 L55.268,58.286 C54.786,57.92 53.821,57.196 53.33,56.83 C53.482,56.134 53.777,54.732 53.92,54.036 z" fill="#67A944"/>
    <path d="M16.464,59.196 C18.402,58.375 19.848,56.188 22.143,56.554 C22.375,56.991 22.839,57.866 23.071,58.304 C23.884,58.527 24.705,58.75 25.509,58.991 C25.429,59.33 25.259,60.009 25.17,60.348 C25.491,60.339 26.116,60.339 26.429,60.339 L26.661,61.839 C25.652,61.732 24.634,61.634 23.616,61.562 C23.545,63.152 23.054,64.518 21.33,64.866 C21.446,63.982 21.688,62.214 21.804,61.33 C23.161,59.179 20.045,58.045 18.652,59.598 C18.214,59.83 17.321,60.286 16.884,60.518 L16.312,60.786 C15.125,61.25 13.482,61.679 13.339,63.196 C12.741,62.973 11.536,62.536 10.938,62.312 C12.223,61.598 13.482,60.848 14.768,60.143 C15.188,59.902 16.045,59.438 16.464,59.196 z" fill="#67A944"/>
    <path d="M51.116,57.946 L51.661,58.562 C51.554,60.688 51.116,62.786 51.027,64.92 L50.911,65.348 C50.402,65.527 49.393,65.866 48.884,66.036 C49.866,65.25 50.277,63.991 50.143,62.768 L50.125,61.857 C50.589,60.839 50.866,59.768 50.964,58.661 L51.116,57.946 z" fill="#67A944"/>
    <path d="M57.991,61.464 C59.33,61.321 60.625,60.83 61.679,59.991 L62.741,61.098 L63.036,61.411 C63.705,61.705 65.027,62.313 65.696,62.616 C65.187,62.964 64.687,63.313 64.179,63.661 C63.125,62.991 62.062,62.339 60.982,61.705 C60.259,61.795 58.795,61.973 58.071,62.054 L57.991,61.464 z" fill="#67A944"/>
    <path d="M89.196,60.857 C91.098,61.241 93,61.554 94.893,61.955 C95.286,62.25 96.062,62.839 96.455,63.134 L95.179,63.232 C93.098,62.661 91.17,61.696 89.196,60.857 z" fill="#67A944"/>
    <path d="M27.598,62.732 C27.848,62.732 28.357,62.723 28.607,62.723 C27.098,63.938 28.804,65.304 30.116,64.179 C29.893,65.482 29.696,66.795 29.509,68.107 C29.482,68.268 29.429,68.589 29.402,68.759 C27.393,68.473 25.357,68.509 23.348,68.705 C22.643,68.768 21.241,68.884 20.545,68.946 C20.571,68.25 20.634,66.866 20.67,66.17 C21.384,66.179 22.821,66.188 23.545,66.196 C23.42,66.714 23.17,67.741 23.045,68.259 C24.33,68.125 25.607,68.018 26.893,67.938 C28.268,68.08 28.866,67.536 28.679,66.321 L28.464,65.348 C27.571,64.804 26.661,64.304 25.723,63.83 C26.196,63.554 27.125,63.009 27.598,62.732 z" fill="#67A944"/>
    <path d="M79.688,64.42 L80.67,64.009 C80.857,64.259 81.223,64.75 81.411,64.991 C81.17,66.179 81.821,67.295 82.866,67.839 C83.045,68.188 83.393,68.884 83.562,69.232 C83.848,69.991 84.42,71.491 84.705,72.241 C85.42,75.777 85.938,79.339 86.393,82.92 C85.741,83.018 85.107,83.152 84.455,83.223 C84.304,82.67 84,81.562 83.848,81.009 C83.071,78.08 82.125,75.205 81.312,72.286 C81.009,71.205 80.688,70.134 80.339,69.071 C79.955,67.964 79.518,66.884 79.125,65.777 C79.268,65.438 79.545,64.759 79.688,64.42 z" fill="#67A944"/>
    <path d="M49.286,67.223 C49.589,67.312 50.196,67.491 50.5,67.58 C50.473,68.58 50.205,69.491 49.705,70.312 C49.455,70.17 48.955,69.875 48.705,69.732 C48.848,69.107 49.143,67.848 49.286,67.223 z" fill="#67A944"/>
    <path d="M61.143,67.348 C63.536,68.946 66.348,70.08 69.223,69.125 C70.723,70.241 68.455,71.518 67.464,72.036 C65.196,71.295 62.973,69.5 60.446,70.411 C61.348,69.58 61.098,68.402 61.143,67.348 z" fill="#67A944"/>
    <path d="M74.652,68.205 C74.714,69.125 74.768,70.045 74.821,70.964 C75.446,70.634 76.679,69.982 77.295,69.661 L77.938,69.527 C77.607,69.991 76.964,70.902 76.643,71.366 L76.071,71.429 C74.634,71.598 73.205,71.777 71.777,71.964 C71.714,71.054 71.652,70.134 71.839,69.232 C72.545,68.973 73.955,68.455 74.652,68.205 z" fill="#67A944"/>
    <path d="M58.438,68.429 C59.161,69.83 59.768,71.286 60.348,72.75 C60.786,73.402 61.232,74.054 61.67,74.705 C62.768,77.5 63.768,80.339 64.732,83.179 L63.232,83.009 C63.393,81.268 62.571,79.58 61.152,78.58 L61.161,77.571 C60.732,75.875 60.152,74.232 59.536,72.598 C58.562,73.857 58.027,75.348 57.982,76.946 C57.982,77.652 57.973,79.054 57.964,79.759 C57.705,79.455 57.188,78.866 56.929,78.571 C58.304,76.964 55.402,76.438 56.107,78.42 C55.857,78.661 55.375,79.143 55.125,79.375 C54.116,80.384 53.196,81.473 52.304,82.58 C51.732,81.509 51.205,80.411 50.723,79.295 C51.009,78.67 51.589,77.429 51.875,76.804 C52.116,76.964 52.598,77.295 52.839,77.455 C53.491,77.268 54.027,76.866 54.429,76.268 C55.777,74.75 57.455,73.286 57.634,71.134 C57.83,70.455 58.232,69.098 58.438,68.429 z" fill="#67A944"/>
    <path d="M12.268,69.875 C12.839,69.804 13.991,69.661 14.562,69.589 L14.571,70.25 C13.598,71.143 12.83,71.018 12.268,69.875 z" fill="#67A944"/>
    <path d="M28.875,80.107 C29.723,79.812 30.589,79.536 31.455,79.286 L32.08,79.375 C31.991,79.893 31.83,80.938 31.75,81.455 C30.884,82.009 29.982,82.509 29.08,82.991 C28.143,83.464 27.196,83.929 26.241,84.375 C22.607,85.304 18.92,86.223 15.17,86.491 C14.518,84.946 15.679,84.393 16.929,84.027 L17.652,83.777 C20.438,82.92 23.214,81.991 25.991,81.089 C26.955,80.768 27.911,80.438 28.875,80.107 z" fill="#67A944"/>
    <path d="M51.741,84.018 C52.973,84.205 53.929,85.223 54.25,86.402 C52.83,88.455 51.321,86.232 51.527,84.571 L51.741,84.018 z" fill="#67A944"/>
    <path d="M35.982,85.268 C36.214,85.482 36.679,85.902 36.911,86.116 C36.759,88.259 35.938,90.241 34.911,92.089 C34.018,92.402 33.17,92.804 32.366,93.295 C32.562,92.732 32.955,91.598 33.152,91.036 C34.125,89.125 34.911,87.116 35.982,85.268 z" fill="#67A944"/>
    <path d="M44.054,90.786 C42.473,89.295 44.036,89.036 45.446,88.812 C45.652,88.643 46.062,88.295 46.268,88.116 C47.884,90.652 49.527,93.179 50.795,95.92 C51.143,96.893 51.482,97.875 51.83,98.857 C51.491,98.821 50.812,98.759 50.473,98.723 C48.152,96.232 46.116,93.491 44.054,90.786 z" fill="#67A944"/>
  </g>
  <g id="#165e9ced">
    <path d="M45.196,3.402 C46.196,2.446 47.25,1.545 48.259,0.598 C48.33,1.125 48.473,2.179 48.545,2.705 C48.438,3.143 48.232,4.018 48.125,4.455 C49.223,5.679 50.33,6.893 51.491,8.054 C51.018,8.393 50.071,9.054 49.607,9.384 C48.643,8.366 47.732,7.312 46.804,6.259 C46.955,5.714 47.268,4.616 47.42,4.062 L47.589,3.518 C46.991,3.491 45.795,3.429 45.196,3.402 z" fill="#165E9C" opacity="0.93"/>
  </g>
  <g id="#125ea1f2">
    <path d="M66.473,0.679 C67.134,0.964 68.446,1.545 69.098,1.83 C68.366,2.482 67.634,3.143 66.902,3.795 C67.375,3.964 68.33,4.304 68.812,4.473 C68.464,4.973 67.777,5.964 67.429,6.464 L67.17,6.821 C66.937,5.741 66.696,4.67 66.455,3.589 C66.455,2.616 66.464,1.652 66.473,0.679 z" fill="#125EA1" opacity="0.95"/>
    <path d="M32.893,2.848 C33.045,2.438 33.348,1.634 33.5,1.223 C36.661,2.598 39.911,3.982 42.455,6.384 L43.071,7.116 C41.848,8.652 40.679,10.223 39.571,11.848 C39.723,11.446 40.009,10.643 40.161,10.241 C40.357,9.679 40.741,8.562 40.937,8 C40.607,7.732 39.937,7.188 39.607,6.92 C37.652,5.143 35.268,3.946 32.893,2.848 z" fill="#125EA1" opacity="0.95"/>
    <path d="M69.964,7.339 C69.964,6.964 69.973,6.214 69.982,5.839 C71.607,8.616 72.714,11.652 73.723,14.705 C73.161,14.821 72.027,15.054 71.455,15.179 C70.964,13.518 70.438,11.866 69.902,10.214 C69.92,9.5 69.946,8.062 69.964,7.339 z" fill="#125EA1" opacity="0.95"/>
    <path d="M44.884,8.732 C45.723,9.598 46.562,10.455 47.393,11.321 C46.973,11.732 46.116,12.536 45.688,12.938 C44.884,12.161 44.089,11.393 43.286,10.616 C43.688,10.143 44.482,9.205 44.884,8.732 z" fill="#125EA1" opacity="0.95"/>
    <path d="M37.437,22.92 C37.652,22.625 38.089,22.027 38.304,21.732 C40.679,22.661 42.982,23.759 45.134,25.125 C44.812,25.312 44.161,25.705 43.839,25.893 C41.875,24.571 39.714,23.571 37.437,22.92 z" fill="#125EA1" opacity="0.95"/>
    <path d="M34.259,22.991 L35.277,22.357 L35.036,23.375 C34.357,25.848 33.911,28.375 33.839,30.946 C33.786,31.393 33.679,32.304 33.625,32.759 C31.938,33.759 32.411,31.152 32.018,30.241 C32.411,27.723 33.312,25.339 34.259,22.991 z" fill="#125EA1" opacity="0.95"/>
    <path d="M47.973,25.714 C48.777,24.848 50.491,24.625 50.688,26.188 L50.58,27.045 L49.857,27.384 C49.384,26.964 48.438,26.134 47.973,25.714 z" fill="#125EA1" opacity="0.95"/>
    <path d="M88.312,27.884 L89.045,27.75 C89.509,27.67 90.42,27.518 90.884,27.438 C90.982,27.866 91.196,28.732 91.304,29.17 C91.009,29.67 90.42,30.688 90.125,31.196 C89.491,32.554 88.875,33.92 88.312,35.321 C88.259,35.438 88.161,35.688 88.107,35.812 L87.991,36.107 L88.366,36.357 C88.821,37.357 89.098,38.411 89.187,39.518 C87.473,38.545 85.848,37.455 84.259,36.304 C85.17,35.375 86.062,34.429 86.92,33.464 C87.161,33.098 87.643,32.384 87.884,32.027 L88.161,30.982 C87.321,31.036 85.643,31.161 84.804,31.223 C85.009,30.786 85.429,29.902 85.634,29.464 C86.473,28.857 87.393,28.375 88.312,27.884 z" fill="#125EA1" opacity="0.95"/>
    <path d="M3.482,29.312 C4.652,28.875 5.446,30.062 6.152,30.768 L5.598,31.125 C4.179,31.214 3.473,30.607 3.482,29.312 z" fill="#125EA1" opacity="0.95"/>
    <path d="M7.268,30.036 L7.991,29.848 C9.17,29.884 10.348,29.991 11.536,30.018 L10.732,30.348 L10.786,31.223 L10.866,32.446 C9.696,31.598 8.5,30.786 7.268,30.036 z" fill="#125EA1" opacity="0.95"/>
    <path d="M68.795,36.562 C68.902,36.33 69.134,35.884 69.25,35.652 C69.92,35.625 71.259,35.554 71.929,35.527 C73.554,36.357 75.321,36.812 77.098,37.196 C77.214,37.429 77.455,37.902 77.58,38.134 C76.536,38.071 75.491,38 74.437,37.982 L74.036,38.223 C73.598,38.482 72.723,39.009 72.286,39.277 C72.196,38.812 72.009,37.884 71.92,37.42 C71.286,37.455 70.009,37.527 69.366,37.554 C69.223,37.304 68.937,36.804 68.795,36.562 z" fill="#125EA1" opacity="0.95"/>
    <path d="M23.777,44.42 C23.795,44.25 23.812,43.902 23.83,43.732 L24.518,43.58 C25.777,44.036 27.652,44.223 28.161,45.67 C27.259,45.589 25.464,45.438 24.562,45.366 C24.402,45.134 24.08,44.679 23.92,44.446 L23.777,44.42 z" fill="#125EA1" opacity="0.95"/>
    <path d="M56.116,46.875 L56.518,46.946 C56.554,47.759 56.634,49.393 56.67,50.205 C56.527,50.375 56.25,50.705 56.107,50.875 L55.473,50.973 L54.982,50.339 C55.188,49.125 55.562,47.973 56.116,46.875 z" fill="#125EA1" opacity="0.95"/>
    <path d="M28.054,48.893 C28.5,48.67 29.384,48.214 29.83,47.991 L30.83,48.295 C30.536,48.562 29.946,49.098 29.652,49.375 C28,50.857 26.429,52.438 24.884,54.036 C24.732,53.821 24.437,53.402 24.295,53.188 C25.179,52.018 26.134,50.902 27.143,49.83 C27.366,49.598 27.821,49.125 28.054,48.893 z" fill="#125EA1" opacity="0.95"/>
    <path d="M41,52.616 C39.759,52.045 39.518,49.902 41.375,50.643 C42,51.455 42.607,52.295 43.179,53.152 C43.116,53.304 42.982,53.607 42.92,53.759 C42.437,53.473 41.482,52.902 41,52.616 z" fill="#125EA1" opacity="0.95"/>
    <path d="M54.036,54.438 C54.357,53.902 55,52.83 55.321,52.304 C55.509,53.616 55.321,54.902 54.768,56.143 C54.589,55.714 54.223,54.866 54.036,54.438 z" fill="#125EA1" opacity="0.95"/>
    <path d="M25.929,54.786 C28.438,54.893 27.902,57.5 25.812,57.848 C25.714,57.214 25.536,55.946 25.438,55.312 L25.929,54.786 z" fill="#125EA1" opacity="0.95"/>
    <path d="M53.116,58.018 C53.17,57.714 53.277,57.125 53.33,56.83 C53.821,57.196 54.786,57.92 55.268,58.286 C55.286,58.795 55.321,59.821 55.339,60.33 C55.759,60.58 56.58,61.098 57,61.357 C56.411,61.446 55.223,61.643 54.634,61.741 C54.205,61.455 53.33,60.884 52.893,60.598 L54.991,60.054 C54.366,59.375 53.723,58.705 53.116,58.018 z" fill="#125EA1" opacity="0.95"/>
    <path d="M73.991,63.902 C74.473,63.545 75.42,62.839 75.893,62.491 C75.938,63.42 76.009,65.268 76.045,66.196 C75.911,67.438 76.241,68.5 77.045,69.384 L77.295,69.661 C76.679,69.982 75.446,70.634 74.821,70.964 C74.768,70.045 74.714,69.125 74.652,68.205 C73.875,67.58 73.107,66.946 72.348,66.304 C72.911,65.509 73.464,64.714 73.991,63.902 z" fill="#125EA1" opacity="0.95"/>
    <path d="M43.027,68.268 C43.446,68.214 44.277,68.116 44.696,68.062 C44.679,68.527 44.634,69.446 44.616,69.911 C44.214,71.429 45.17,73.027 46.821,73.018 C47.018,73.491 47.411,74.438 47.607,74.911 C47.062,75.143 45.964,75.598 45.42,75.821 C45.17,75.607 44.679,75.17 44.429,74.955 C43.438,75.67 43.134,76.625 43.518,77.83 C43.205,78.009 42.571,78.375 42.25,78.554 C42.196,78.268 42.071,77.705 42.009,77.429 C42.42,76.464 42.857,75.527 43.321,74.589 C43.571,72.973 43.536,71.33 43.241,69.723 C43.188,69.357 43.08,68.634 43.027,68.268 z" fill="#125EA1" opacity="0.95"/>
    <path d="M77.938,69.527 C78.536,69.411 79.741,69.188 80.339,69.071 C80.688,70.134 81.009,71.205 81.312,72.286 C79.75,71.991 78.205,71.661 76.643,71.366 C76.964,70.902 77.607,69.991 77.938,69.527 z" fill="#125EA1" opacity="0.95"/>
    <path d="M31.196,75.562 C32.196,75.339 33.205,75.116 34.205,74.911 C34.455,74.938 34.955,75 35.205,75.036 C34.946,76.223 34.705,77.402 34.482,78.598 C34.393,77.893 34.223,76.473 34.143,75.768 C33.696,76.232 32.804,77.161 32.357,77.625 C32.063,77.116 31.482,76.08 31.196,75.562 z" fill="#125EA1" opacity="0.95"/>
  </g>
  <g id="#165f9ff0">
    <path d="M29.75,2.312 C30.045,2.616 30.634,3.223 30.929,3.527 L31.518,4.321 C31.688,4.911 32.036,6.098 32.205,6.688 L32.509,7.304 C32.571,7.446 32.705,7.714 32.768,7.857 L33.071,8.491 C32.946,9.848 33.286,11.08 34.089,12.179 C34.241,12.482 34.545,13.098 34.696,13.402 L34.259,13.491 L34.402,13.848 L34.902,13.812 L35.893,14.536 C35.473,15.446 35.036,16.357 34.589,17.25 L34.098,16.875 C32.777,13.223 31.955,9.33 29.786,6.045 C29.732,6.598 29.616,7.696 29.563,8.25 C29.482,10.777 29.152,13.259 27.938,15.509 L28.241,15.67 C28.679,15.955 29.554,16.527 29.982,16.821 C31.17,17.625 32.384,18.375 33.634,19.071 C31.973,19.607 30.17,19.554 28.589,20.348 L27.866,20.75 C27.563,19.446 27.205,18.143 26.92,16.83 L26.848,16.027 C26.857,15.536 26.866,14.545 26.875,14.045 C27,11.446 27.08,8.786 28,6.312 C28.563,4.973 29.17,3.643 29.75,2.312 z" fill="#165F9F" opacity="0.94"/>
  </g>
  <g id="#21576ebe">
    <path d="M42.455,6.384 C43.321,5.348 44.214,4.33 45.196,3.402 C45.795,3.429 46.991,3.491 47.589,3.518 L47.42,4.062 C45.804,4.821 44.205,5.696 43.071,7.116 L42.455,6.384 z" fill="#21576E" opacity="0.75"/>
  </g>
  <g id="#235667b5">
    <path d="M31.518,4.321 C31.688,4.911 32.036,6.098 32.205,6.688 C32.036,6.098 31.688,4.911 31.518,4.321 z" fill="#235667" opacity="0.71"/>
  </g>
  <g id="#fabc1dff">
    <path d="M32.893,4.491 C33.384,4.554 34.384,4.679 34.884,4.741 C34.464,4.857 33.625,5.089 33.205,5.205 L32.893,4.491 z" fill="#FABC1D"/>
    <path d="M27.009,5.152 C27.25,5.446 27.75,6.018 28,6.312 C27.08,8.786 27,11.446 26.875,14.045 C26.277,14.027 25.071,13.991 24.473,13.973 C25.25,11.018 26.205,8.107 27.009,5.152 z" fill="#FABC1D"/>
    <path d="M34.884,4.741 C36.446,5.491 38.045,6.17 39.607,6.92 C39.938,7.188 40.607,7.732 40.938,8 C40.741,8.562 40.357,9.679 40.161,10.241 C38.205,8.741 36.259,7.232 34.268,5.786 L34.884,4.741 z" fill="#FABC1D"/>
    <path d="M54.196,6.205 C56.17,5.366 58.295,5 60.402,4.652 L59.509,5.83 C59.125,6.045 58.348,6.473 57.955,6.688 C55.652,7.67 53.598,9.143 51.696,10.759 C49.902,12.161 48.152,13.714 47.339,15.902 C45.643,14.554 43.938,13.223 42.259,11.866 C42.518,11.554 43.027,10.929 43.286,10.616 C44.089,11.393 44.884,12.161 45.688,12.938 C46.116,12.536 46.973,11.732 47.393,11.321 C48.116,10.661 48.839,10 49.607,9.384 C50.071,9.054 51.018,8.393 51.491,8.054 L51.795,7.848 C52.598,7.295 53.393,6.75 54.196,6.205 z" fill="#FABC1D"/>
    <path d="M66.473,6.214 L67.17,6.821 C67.973,8.036 68.723,9.321 69.902,10.214 C70.438,11.866 70.964,13.518 71.455,15.179 L71.938,16.795 L70.893,17.054 L69.812,17.295 C71.071,18.67 72.304,20.071 73.536,21.473 C73.429,21.527 73.214,21.634 73.116,21.696 C72.473,21.991 71.188,22.58 70.545,22.884 L71.045,24.473 L71.152,25.536 C70.223,23.571 70.098,21.366 69.741,19.259 C69.67,18.732 69.545,17.679 69.473,17.152 L68.786,17.062 L67.67,16.705 C68.071,16.661 68.866,16.571 69.268,16.527 C68.839,14.357 68.375,12.187 67.902,10.027 C66.964,10.652 66.071,11.339 65.339,12.196 C65.08,11.375 64.804,10.562 64.518,9.741 L65.92,10.411 C65.991,9.902 66.143,8.866 66.214,8.357 C66.286,7.821 66.411,6.75 66.473,6.214 z" fill="#FABC1D"/>
    <path d="M62.161,6.902 C62.991,7.223 63.83,7.545 64.67,7.866 C62.295,11.402 61.375,15.625 59.741,19.5 L59.205,18.527 C58.75,17.688 58.295,16.857 57.786,16.045 L59.375,15.786 C61.223,13.223 61.17,9.83 62.161,6.902 z" fill="#FABC1D"/>
    <path d="M24.946,17.018 C25.437,16.973 26.429,16.875 26.92,16.83 C26.848,18.688 26.848,20.536 26.804,22.384 C26.75,24.161 26.473,25.929 25.679,27.536 C25.455,26.741 25.232,25.946 25.027,25.152 C24.687,22.455 24.812,19.723 24.946,17.018 z" fill="#FABC1D"/>
    <path d="M55.527,18.562 C55.705,18.071 56.062,17.089 56.232,16.589 C56.545,16.768 57.161,17.116 57.473,17.295 C56.991,17.616 56.018,18.25 55.527,18.562 z" fill="#FABC1D"/>
    <path d="M27.866,20.75 L28.589,20.348 C28.973,20.554 29.75,20.973 30.143,21.188 C29.723,21.464 28.884,22.036 28.464,22.312 C28.312,21.929 28.018,21.143 27.866,20.75 z" fill="#FABC1D"/>
    <path d="M61.384,25.777 C61.741,24.598 62.464,23.58 63.134,22.554 C63.938,24.054 64.545,25.661 65.161,27.241 C63.902,26.768 62.634,26.295 61.384,25.777 z" fill="#FABC1D"/>
    <path d="M55.402,31.634 C55.804,29.134 56.634,26.732 57.884,24.527 C57.554,25.991 59.375,26.562 60.5,26.286 C60.384,26.616 60.143,27.277 60.018,27.598 C59.375,27.536 58.08,27.393 57.429,27.321 C56.911,28.83 56.295,30.304 55.402,31.634 z" fill="#FABC1D"/>
    <path d="M71.688,24.821 C73.107,24.723 74.536,24.616 75.955,24.491 C75.893,25 75.777,26.027 75.714,26.536 C74.402,26 71.589,27.179 71.688,24.821 z" fill="#FABC1D"/>
    <path d="M50.58,27.045 C52.152,26.643 53.75,26.339 55.339,26.036 C55.188,26.464 54.884,27.304 54.732,27.732 L54.304,27.839 C52.884,28.125 51.464,28.393 50.062,28.732 C49.732,28.589 49.071,28.295 48.741,28.143 C49.018,27.955 49.58,27.571 49.857,27.384 L50.58,27.045 z" fill="#FABC1D"/>
    <path d="M63.571,30.42 C63.973,29.884 64.384,29.348 64.786,28.813 C65.607,30.92 67.357,32.42 69.509,33.054 C69.098,33.714 68.982,34.411 69.152,35.143 L69.25,35.652 C69.134,35.884 68.902,36.33 68.795,36.563 C68.938,36.804 69.223,37.304 69.366,37.554 C68.036,40.152 67.098,35.304 67.259,34.196 L68.625,34.08 C67.955,33.634 67.286,33.196 66.598,32.777 C65.259,31.393 63.438,30.777 61.652,30.232 C61.527,30.786 61.277,31.902 61.143,32.464 C61.009,32.607 60.741,32.902 60.598,33.045 L60.295,32.991 C60.232,32.589 60.107,31.768 60.054,31.366 C60.188,31 60.464,30.286 60.607,29.929 L60.107,29.384 C61.259,29.723 62.411,30.071 63.571,30.42 z" fill="#FABC1D"/>
    <path d="M11.536,30.018 C11.946,29.866 12.777,29.563 13.196,29.411 C13.464,29.839 14,30.688 14.268,31.116 C14.661,31.473 15.446,32.196 15.848,32.562 C17.045,33.348 18.232,34.143 19.437,34.929 C19.241,35.179 18.848,35.679 18.661,35.929 L17.679,35.482 C16.321,34.312 14.92,32.384 12.893,32.795 L13.018,33.411 C13.348,34.438 13.821,35.402 14.411,36.312 C15.607,37.902 16.598,39.634 17.589,41.357 L18.205,41.42 C18.33,41.768 18.58,42.455 18.705,42.804 C19.116,43.446 19.518,44.089 19.92,44.732 C20.58,45.821 21.277,46.893 21.839,48.027 C22.411,49.857 23.161,51.625 24.295,53.188 C24.437,53.402 24.732,53.821 24.884,54.036 C25.143,54.223 25.67,54.598 25.929,54.786 L25.437,55.312 C25.187,55.33 24.687,55.375 24.437,55.393 C24.062,55.179 23.33,54.759 22.955,54.545 C21.411,52.321 20.705,49.679 20.625,46.982 C20.152,46.964 19.214,46.911 18.75,46.893 C18.429,46.5 17.795,45.714 17.482,45.321 C16.804,44.42 16.17,43.482 15.554,42.545 L14.884,41.482 C14.482,40.812 14.107,40.134 13.723,39.455 C13.411,38.938 12.795,37.92 12.482,37.402 C12.33,37.054 12.018,36.339 11.857,35.991 C11.437,34.411 11.054,32.83 10.786,31.223 L10.732,30.348 L11.536,30.018 z" fill="#FABC1D"/>
    <path d="M93.339,30.375 L93.786,30.107 C94.464,30.348 95.812,30.821 96.491,31.054 C95.946,31.313 94.857,31.821 94.312,32.08 C93.438,32.5 92.589,32.955 91.768,33.455 C91.214,32.705 90.67,31.946 90.125,31.196 C91.312,31.5 92.384,31.223 93.339,30.375 z" fill="#FABC1D"/>
    <path d="M82.768,33.259 C84.438,32.696 86.161,32.366 87.884,32.027 C87.643,32.384 87.161,33.098 86.92,33.464 C85.464,33.973 83.991,34.446 82.482,34.732 L82.768,33.259 z" fill="#FABC1D"/>
    <path d="M27.598,32.286 C28.009,32.473 28.83,32.848 29.241,33.036 C30.08,33.42 30.938,33.786 31.786,34.152 C33.482,35.062 35.179,35.973 36.946,36.732 C36.009,36.848 35.062,36.964 34.125,37.071 L33.277,37.196 C32.295,37.67 31.321,38.17 30.366,38.688 C30.339,38.134 30.295,37.027 30.277,36.473 C32.232,37.607 32.241,34.661 30.321,34.812 L29.205,34.188 C28.786,33.955 27.946,33.491 27.527,33.259 L27.598,32.286 z" fill="#FABC1D"/>
    <path d="M95.473,33.634 C95.839,33.5 96.58,33.223 96.955,33.089 C95.357,36.143 93.723,39.188 91.616,41.938 C91.018,41.134 90.411,40.348 89.804,39.563 C91.866,37.768 94.071,36.027 95.473,33.634 z" fill="#FABC1D"/>
    <path d="M56.196,41.5 C56.804,39.982 57.482,38.491 58.152,37 L58.616,37.241 C58.616,37.714 58.625,38.652 58.634,39.116 C57.92,40.009 57.036,40.857 56.795,42.018 C56.643,41.884 56.339,41.625 56.196,41.5 z" fill="#FABC1D"/>
    <path d="M23.607,43.071 C25.009,41.134 26.768,39.518 28.598,38.009 C28.518,38.473 28.366,39.402 28.295,39.866 C27.098,41.161 25.866,42.437 24.518,43.58 L23.83,43.732 L23.607,43.071 z" fill="#FABC1D"/>
    <path d="M33.741,40.562 C33.75,40 33.777,39.446 33.812,38.893 C35.232,39.17 36.679,39.223 38.116,39.188 L37.107,39.339 C36.759,39.375 36.071,39.446 35.732,39.482 C35.232,39.75 34.232,40.295 33.741,40.562 z" fill="#FABC1D"/>
    <path d="M22.268,40.491 C22.527,38.08 24.982,40.071 23.393,41.42 C23.107,41.188 22.545,40.723 22.268,40.491 z" fill="#FABC1D"/>
    <path d="M77.589,40.571 C80.009,40.92 81.571,43.071 83.366,44.527 C83.661,44.821 84.25,45.402 84.545,45.696 C85.491,44.893 86.42,44.062 87.33,43.214 C87.964,43.661 88.598,44.107 89.232,44.554 C88.098,45.277 86.973,46.009 85.848,46.741 C86.295,48.018 86.759,49.295 87.152,50.598 C87.295,51.188 87.58,52.357 87.723,52.938 L86.562,52.42 L85.58,51.955 C85.161,50.205 84.375,48.589 82.804,47.616 C82.286,47.009 81.777,46.393 81.232,45.804 C79.848,44.196 77.339,43.062 77.589,40.571 z" fill="#FABC1D"/>
    <path d="M23.92,44.446 C24.08,44.679 24.402,45.134 24.562,45.366 C25.277,46.911 27.027,47.321 28.366,48.143 L28.054,48.893 C27.821,49.125 27.366,49.598 27.143,49.83 L27.955,48.946 C26.795,48.42 25.625,47.902 24.464,47.384 C24.33,46.652 24.054,45.188 23.92,44.446 z" fill="#FABC1D"/>
    <path d="M30.83,48.295 C31.92,48.411 32.982,49.438 32.554,50.598 C31.509,50.384 30.536,49.973 29.652,49.375 C29.946,49.098 30.536,48.562 30.83,48.295 z" fill="#FABC1D"/>
    <path d="M39.402,51.562 C39.92,50.732 40.429,49.902 40.946,49.071 C41.054,49.464 41.268,50.25 41.375,50.643 C39.518,49.902 39.759,52.045 41,52.616 C39.911,52.554 38.821,52.536 37.732,52.554 C37.277,52.339 36.366,51.929 35.92,51.723 C34.955,51.384 34,51.054 33.036,50.741 L32.929,49.634 L33.571,49.83 C35.518,50.42 37.464,50.973 39.402,51.562 z" fill="#FABC1D"/>
    <path d="M61.054,48.598 C61.42,48.812 62.152,49.232 62.518,49.438 C65.67,50.134 68.795,50.973 72.009,51.357 C73.795,51.339 75.607,51.277 77.312,51.893 C77.455,52.25 77.741,52.964 77.884,53.33 C79.089,53.696 80.286,54.08 81.5,54.438 L82.741,54.812 C83.366,54.982 83.991,55.152 84.625,55.312 L85.893,55.643 C85.116,56.562 84.304,57.446 83.5,58.348 C82.438,57.804 81.384,57.25 80.304,56.732 C80.768,56.509 81.705,56.054 82.17,55.83 C79.991,55.795 77.491,56.027 75.804,54.33 C75.348,54.134 74.438,53.723 73.982,53.527 C72.268,52.982 70.5,52.616 68.75,52.241 C66.071,51.67 63.384,51.143 60.696,50.616 C60.786,50.116 60.964,49.107 61.054,48.598 z" fill="#FABC1D"/>
    <path d="M11.089,55.839 C11.893,54.562 13.25,51.143 15.009,52.696 C14.679,54.295 13.187,55.312 12.214,56.536 L11.089,55.839 z" fill="#FABC1D"/>
    <path d="M42.036,61.125 C42.536,58.911 42.973,56.527 44.67,54.866 C44.732,55.42 44.848,56.545 44.911,57.098 L44.946,57.429 C44.179,58.384 43.562,59.438 42.893,60.455 L42.036,61.125 z" fill="#FABC1D"/>
    <path d="M8.268,59.839 C8.464,58.571 9.821,57.741 10.893,58.634 C10.518,59.179 9.759,60.277 9.384,60.821 C9.107,60.58 8.545,60.089 8.268,59.839 z" fill="#FABC1D"/>
    <path d="M61.304,58.402 C62.589,58.893 63.83,59.464 65.116,59.973 C64.321,60.348 63.527,60.723 62.741,61.098 L61.679,59.991 C61.223,59.857 60.312,59.589 59.848,59.455 L59.938,59.393 C60.277,59.143 60.964,58.652 61.304,58.402 z" fill="#FABC1D"/>
    <path d="M84.705,58.982 C85.116,59.179 85.938,59.58 86.348,59.777 C85.973,60.134 85.232,60.848 84.857,61.214 C83.973,61.955 83.089,62.696 82.214,63.446 C81.83,63.589 81.054,63.866 80.67,64.009 L79.688,64.42 C79.545,64.759 79.268,65.438 79.125,65.777 L78.723,66.804 C77.848,66.527 76.964,66.277 76.045,66.196 C76.009,65.268 75.938,63.42 75.893,62.491 L76.08,62.348 C76.375,62.348 76.946,62.348 77.241,62.348 C78.759,62.652 80.062,62.125 81.071,60.991 L81.696,61.214 C81.741,61.214 81.83,61.223 81.875,61.223 C82.866,60.527 83.804,59.786 84.705,58.982 z" fill="#FABC1D"/>
    <path d="M65.643,61.357 C65.616,61.286 65.58,61.134 65.562,61.054 L65.643,61.357 z" fill="#FABC1D"/>
    <path d="M69.018,63.098 C69.411,62.777 70.196,62.125 70.589,61.795 C70.357,63.393 72.92,64.089 73.348,62.446 L74.438,63.312 C74.321,63.455 74.107,63.75 73.991,63.902 C73.464,64.714 72.911,65.509 72.348,66.304 C71.67,65.741 71.036,65.134 70.455,64.473 C70.286,64.125 69.955,63.446 69.795,63.098 C69.438,63.911 69.08,64.705 68.723,65.509 L67.848,66.054 L67.911,65.33 C67.955,64.982 68.045,64.268 68.089,63.92 C68.321,63.714 68.786,63.304 69.018,63.098 z" fill="#FABC1D"/>
    <path d="M5.759,62.536 C6.223,63.375 6.411,64.25 6.312,65.17 C5.83,65.446 4.875,65.991 4.393,66.259 C3.866,64.875 4.866,63.5 5.759,62.536 z" fill="#FABC1D"/>
    <path d="M40.25,62.732 C40.652,63.277 41.045,63.839 41.42,64.402 L40.679,66.491 C40.607,67.098 40.563,67.714 40.518,68.321 C38.241,71.071 37.554,74.661 36.054,77.821 C35.661,78.018 34.875,78.402 34.482,78.598 C34.705,77.402 34.946,76.223 35.205,75.036 C34.955,75 34.455,74.937 34.205,74.911 C33.607,74.08 33.018,73.25 32.411,72.437 C33.277,71.991 34.161,71.161 33.375,70.179 L33.205,69.652 L34.223,69.455 C34.83,71 35.348,72.589 35.902,74.161 C37.446,70.393 39.009,66.616 40.25,62.732 z" fill="#FABC1D"/>
    <path d="M48.509,66.83 C47.545,66.277 45.768,65.777 47.321,64.759 C47.402,65.045 47.554,65.625 47.634,65.911 C47.946,65.946 48.571,66.009 48.884,66.036 C49.393,65.866 50.402,65.527 50.911,65.348 C50.812,65.911 50.598,67.018 50.5,67.58 C50.196,67.491 49.589,67.312 49.286,67.223 C49.143,67.848 48.848,69.107 48.705,69.732 C48.741,70.223 48.795,71.205 48.83,71.696 C48.375,72 47.455,72.598 47,72.902 C46.991,72.857 46.991,72.768 46.991,72.723 C47.009,72.321 47.045,71.527 47.062,71.125 C47.491,69.679 48,68.25 48.509,66.83 z" fill="#FABC1D"/>
    <path d="M7.768,65.705 C7.857,65.723 8.054,65.75 8.152,65.759 L7.893,65.83 L7.768,65.705 z" fill="#FABC1D"/>
    <path d="M4.705,67.223 C5.268,67.08 6.384,66.786 6.946,66.643 L6.83,66.946 L5.536,69.062 C7.571,70.375 9.875,69.348 11.875,68.5 C12.286,68.384 13.107,68.143 13.518,68.027 C14.045,67.857 15.098,67.518 15.625,67.348 C15.268,68.098 14.911,68.839 14.562,69.589 C13.991,69.661 12.839,69.804 12.268,69.875 C10.821,70.795 7.768,70.312 7.312,72.125 C10.518,72.661 13.786,72.134 17.018,72.25 L17.42,72.259 C20.634,72.268 23.848,72.277 27.071,72.321 C27.143,71.92 27.295,71.098 27.366,70.696 C27.92,70.562 29.009,70.304 29.562,70.179 C29.67,70.687 29.893,71.714 30.009,72.223 L30.205,72.795 C30.527,73.723 30.848,74.643 31.196,75.562 C31.482,76.08 32.062,77.116 32.357,77.625 C32.286,78.062 32.143,78.937 32.08,79.375 L31.455,79.286 C30.473,78.205 29.554,77.08 28.768,75.866 C28.527,75.357 28.054,74.357 27.812,73.848 C27.455,73.902 26.723,74 26.357,74.045 C22.357,74.562 18.312,75.83 14.259,75.054 C10.661,74.42 7.045,73.768 3.598,72.545 C4.241,72.429 5.527,72.205 6.17,72.089 C6.393,70.509 4.884,69.518 3.92,68.545 L3.696,68.304 C3.946,68.036 4.455,67.491 4.705,67.223 z" fill="#FABC1D"/>
    <path d="M11.643,67.205 L11.902,67.312 C11.866,67.446 11.795,67.723 11.759,67.857 L11.643,67.205 z" fill="#FABC1D"/>
    <path d="M49.446,73.384 C50.411,72.714 52.08,70.589 53.098,72.295 C53.009,72.759 52.848,73.696 52.768,74.17 C52.5,74.402 51.964,74.866 51.696,75.107 C50.607,75.964 49.491,76.795 48.348,77.571 C48.036,77.768 47.411,78.152 47.089,78.348 C45.045,79.277 44.277,81.411 43.393,83.312 C43.223,83.045 42.884,82.527 42.714,82.268 C42.911,81.768 43.304,80.768 43.5,80.268 C43.125,80.277 42.375,80.304 42.009,80.312 C41.545,80.446 40.625,80.714 40.161,80.848 C39.875,81.33 39.295,82.304 39,82.786 L38.384,83.643 C38.661,82.188 38.911,80.732 39.188,79.277 C40.214,79.062 41.232,78.821 42.25,78.554 C42.571,78.375 43.205,78.009 43.518,77.83 C44.277,77.295 44.911,76.634 45.42,75.821 C45.964,75.598 47.062,75.143 47.607,74.911 C48.339,74.554 48.946,74.045 49.446,73.384 z" fill="#FABC1D"/>
    <path d="M71.777,71.964 C73.205,71.777 74.634,71.598 76.071,71.429 C73.482,72.223 74.777,74.884 74.902,76.777 C75.893,81.929 74.17,87.027 73.018,92 C71.464,88.545 72.33,84.625 72.071,80.964 C72.089,77.964 72.116,74.955 71.777,71.964 z" fill="#FABC1D"/>
    <path d="M39.58,75.42 L40.062,75.759 C40.312,76.92 39.929,77.804 38.902,78.411 L38.366,78.286 C38.455,77.214 38.857,76.259 39.58,75.42 z" fill="#FABC1D"/>
    <path d="M64.402,78.17 L64.455,78.241 L64.482,78.348 C64.455,78.304 64.42,78.214 64.402,78.17 z" fill="#FABC1D"/>
    <path d="M52.304,82.58 C52.768,82.464 53.705,82.223 54.17,82.098 C54.571,83.214 55.321,83.839 56.437,83.955 C55.911,85.214 55.357,86.464 54.75,87.696 C54.625,87.366 54.375,86.723 54.25,86.402 C53.929,85.223 52.973,84.205 51.741,84.018 C51.884,83.661 52.161,82.938 52.304,82.58 z" fill="#FABC1D"/>
    <path d="M58.179,87.786 L58.571,86.777 C61.804,89.25 63.964,93.527 68.107,94.482 C67.634,93.223 67.152,91.973 66.67,90.723 C65.902,90.688 65.134,90.652 64.366,90.625 C65.339,89.946 66.259,89.205 67.17,88.446 C67.473,88.482 68.08,88.554 68.384,88.589 C69.107,89.688 69.804,90.812 70.589,91.866 C70.143,92.607 69.696,93.348 69.241,94.098 C68.384,94.438 67.536,94.795 66.688,95.143 C63.464,93.777 60.455,91.964 57.607,89.929 C57.188,89.473 56.795,89 56.42,88.518 C56.857,88.33 57.741,87.964 58.179,87.786 z" fill="#FABC1D"/>
  </g>
  <g id="#635e3499">
    <path d="M29.786,6.045 C31.955,9.33 32.777,13.223 34.098,16.875 C33.589,16.482 33.08,16.089 32.58,15.688 C31.768,13.134 30.777,10.643 29.562,8.25 C29.616,7.696 29.732,6.598 29.786,6.045 z" fill="#635E34" opacity="0.6"/>
  </g>
  <g id="#1a3a457b">
    <path d="M32.509,7.304 C32.571,7.446 32.705,7.714 32.768,7.857 C32.705,7.714 32.571,7.446 32.509,7.304 z" fill="#1A3A45" opacity="0.48"/>
  </g>
  <g id="#1364aaff">
    <path d="M51.696,10.759 C53.598,9.143 55.652,7.67 57.955,6.688 C58.661,6.714 60.071,6.768 60.777,6.795 C59.438,7.848 58.116,8.92 56.795,9.982 C56.098,10.545 55.429,11.116 54.759,11.705 L54.661,11.964 C55.196,13.5 55.821,15.018 56.232,16.589 C56.062,17.089 55.705,18.071 55.527,18.562 C56.018,18.25 56.991,17.616 57.473,17.295 C57.795,17.625 58.446,18.295 58.768,18.625 C58.054,19.946 57.33,21.268 56.679,22.625 C56.589,21.536 56.241,20.545 55.616,19.643 L55.312,19.071 C54.438,17.286 54.536,14.455 52.661,13.491 C51.062,14.375 49.652,15.545 48.143,16.562 C48.357,14.143 49.964,12.312 51.696,10.759 z" fill="#1364AA"/>
    <path d="M64.67,7.866 C65.054,7.991 65.83,8.232 66.214,8.357 C66.143,8.866 65.991,9.902 65.92,10.411 L64.518,9.741 C64.804,10.562 65.08,11.375 65.339,12.196 C65.277,12.679 65.143,13.625 65.08,14.098 C65.42,14.205 66.107,14.411 66.446,14.518 C65.152,15.241 63.893,16.045 62.741,16.991 L62.429,17.339 L61.973,17.839 C61.277,18.679 60.714,19.607 60.286,20.616 C60.152,20.339 59.875,19.777 59.741,19.5 C61.375,15.625 62.295,11.402 64.67,7.866 z" fill="#1364AA"/>
    <path d="M22.277,14.259 L22.884,14.17 C23.152,14.661 23.705,15.661 23.973,16.152 C24.375,18.286 24.027,20.411 22.527,22.036 L22.277,20.152 C22.214,19.598 22.08,18.5 22.009,17.955 C19.937,17.545 17.857,17.161 15.795,16.741 C15.937,13.616 19.768,15.688 21.777,15.625 C21.902,15.286 22.152,14.598 22.277,14.259 z" fill="#1364AA"/>
    <path d="M63.857,19.054 C65.5,18.402 67.143,17.732 68.786,17.062 L69.473,17.152 C69.545,17.679 69.67,18.732 69.741,19.259 C67.455,20.125 64.321,19.982 63.134,22.554 C62.464,23.58 61.741,24.598 61.384,25.777 C60.973,26.982 60.58,28.196 60.107,29.384 C60.089,29.875 60.062,30.866 60.054,31.366 C59.464,31.625 58.304,32.134 57.714,32.393 C58.5,30.804 59.304,29.223 60.018,27.598 C60.143,27.277 60.384,26.616 60.5,26.286 C60.321,25.848 59.946,24.973 59.768,24.536 C60.054,23.545 60.312,22.545 60.545,21.536 C61.634,20.688 62.723,19.839 63.857,19.054 z" fill="#1364AA"/>
    <path d="M22.964,21.661 C23.973,22.625 24.688,23.812 25.027,25.152 C25.232,25.946 25.455,26.741 25.679,27.536 C25.911,28.348 26.17,29.152 26.446,29.946 C27.205,31.116 28.152,32.161 29.241,33.036 C28.83,32.848 28.009,32.473 27.598,32.286 L27.527,33.259 C27.473,34.143 27.366,35.911 27.312,36.795 C26.143,35.812 24.955,34.839 23.768,33.875 C23.938,35.08 24.116,36.277 24.321,37.473 L24.884,37.786 C23.688,37.955 22.509,38.196 21.321,38.42 C20.17,38.527 18.83,39.125 18.643,40.402 C17.161,39.902 16.884,38.411 17.982,37.339 C18.464,37.286 19.438,37.188 19.92,37.143 C20.946,36.964 21.973,36.741 22.991,36.491 L23.33,36.402 C23.321,35.821 23.304,34.661 23.286,34.071 C22.562,33.482 21.723,33.152 20.768,33.08 L20.562,33.375 C20.277,33.759 19.714,34.536 19.438,34.929 C18.232,34.143 17.045,33.348 15.848,32.562 C16.321,32.339 17.259,31.902 17.732,31.679 C16.634,31.089 15.482,30.902 14.268,31.116 C14,30.688 13.464,29.839 13.196,29.411 C13.607,29.446 14.446,29.5 14.857,29.527 C15.357,29.75 16.357,30.188 16.857,30.411 C17.241,30.446 18.009,30.518 18.393,30.562 C19.455,31.375 20.679,32.375 22.116,32.08 C23.375,31.938 24.625,31.777 25.884,31.598 L25.259,30.661 C24.5,29.429 23.795,28.17 23.089,26.911 C21.5,27.054 19.911,27.259 18.312,27.232 C18.161,26.589 17.857,25.286 17.696,24.634 C19.393,24.634 21.08,24.643 22.777,24.652 C22.75,24.357 22.714,23.768 22.688,23.473 L22.964,21.661 M26.116,34.089 C26.598,34.589 26.598,34.589 26.116,34.089 z" fill="#1364AA"/>
    <path d="M44.08,27.33 C44.884,27.009 45.696,26.688 46.509,26.366 C47.116,27.152 47.857,27.741 48.741,28.143 C49.071,28.295 49.732,28.589 50.062,28.732 C49.804,29.223 49.277,30.205 49.009,30.696 L48.795,30.473 C47.839,28.661 46.08,27.58 44.08,27.33 z" fill="#1364AA"/>
    <path d="M78.589,26.83 C79,26.875 79.821,26.964 80.232,27.009 C81.179,27.161 82.125,27.321 83.071,27.482 C82.375,29.107 81.679,30.732 81.027,32.384 C80.357,32.607 79.696,32.857 79.045,33.116 C79.482,31.125 79.884,29.134 80.286,27.134 C79.866,27.062 79.018,26.911 78.589,26.83 z" fill="#1364AA"/>
    <path d="M54.304,27.839 L54.732,27.732 C54.321,28.857 53.893,29.982 53.437,31.098 C52.071,32.679 50.768,34.312 49.402,35.902 L48.08,35.5 C49.5,33.571 50.58,31.42 51.482,29.205 C52.42,28.741 53.357,28.286 54.304,27.839 z" fill="#1364AA"/>
    <path d="M2.875,33.696 C3.634,33.295 4.366,32.866 5.098,32.411 C7.304,33.688 9.598,34.812 11.857,35.991 C11.545,36.089 10.911,36.277 10.598,36.375 C8.679,35.848 6.991,34.768 5.375,33.634 C4.92,34.027 4.464,34.42 4.018,34.812 C6.268,37.045 8.312,39.464 10.438,41.812 L10.964,42.339 C12.268,42.036 13.562,41.679 14.884,41.482 L15.554,42.545 C14.991,42.982 13.857,43.875 13.295,44.312 C12.679,44.161 11.438,43.857 10.821,43.696 L11.196,44.152 L10.107,46 C9.991,45.911 9.75,45.714 9.634,45.625 L8.518,44.688 C8.589,44.098 8.732,42.92 8.804,42.33 C4.804,41.83 4.429,36.714 2.875,33.696 z" fill="#1364AA"/>
    <path d="M60.598,33.045 C60.741,32.902 61.009,32.607 61.143,32.464 C61.25,32.643 61.464,33 61.571,33.179 C63.25,33.071 64.929,32.937 66.598,32.777 C67.286,33.196 67.955,33.634 68.625,34.08 L67.259,34.196 C65.321,34.295 63.393,34.464 61.464,34.652 L60.554,34.054 C60.563,33.804 60.589,33.295 60.598,33.045 z" fill="#1364AA"/>
    <path d="M36.946,36.732 L37.857,36.616 C39.304,36.973 40.768,37.223 42.223,37.527 C43.232,37.759 44.241,37.991 45.259,38.214 C45.018,38.643 44.545,39.509 44.312,39.946 C42.321,39.223 40.223,38.848 38.116,39.187 C36.679,39.223 35.232,39.17 33.812,38.893 L34.125,37.071 C35.062,36.964 36.009,36.848 36.946,36.732 z" fill="#1364AA"/>
    <path d="M79.866,36.759 C81.991,38.509 84.08,40.348 86.589,41.554 C87.045,41.25 87.973,40.652 88.438,40.357 C89.402,40.777 90.312,41.304 91.161,41.911 C94.018,42.643 96.08,44.911 98.357,46.634 C98.5,47.089 98.777,48 98.92,48.455 C98.545,48.455 97.812,48.464 97.438,48.473 C94.205,46.536 90.848,44.804 87.857,42.491 C86.705,43.518 85.589,44.571 84.545,45.696 C84.25,45.402 83.661,44.821 83.366,44.527 C83.438,44.196 83.58,43.545 83.652,43.223 C84,42.902 84.696,42.25 85.036,41.929 C84.893,40.018 82.179,41.348 81.777,42.509 C80.955,42 80.482,41.268 80.366,40.313 C80.196,39.125 80.045,37.938 79.866,36.759 z" fill="#1364AA"/>
    <path d="M10.705,39.982 C10.643,38.857 11.491,37.83 12.482,37.402 C12.795,37.92 13.411,38.938 13.723,39.455 C13.473,39.67 12.973,40.089 12.723,40.304 C12.223,40.223 11.214,40.062 10.705,39.982 z" fill="#1364AA"/>
    <path d="M58.616,37.241 L59.893,37.92 C59.929,38.536 60,39.759 60.036,40.366 C60.045,41.009 60.062,42.286 60.071,42.92 L60.071,43.223 L60.304,43.482 C60.777,44.446 61.25,45.42 61.714,46.393 C60.277,45.911 58.839,45.42 57.402,44.929 C57.027,44.777 56.277,44.473 55.902,44.33 C55.143,42.018 52.875,40.929 51.062,39.589 C51.348,39.375 51.938,38.938 52.232,38.714 C53.598,39.571 54.929,40.491 56.196,41.5 C56.339,41.625 56.643,41.884 56.795,42.018 C57.259,42.205 58.205,42.589 58.679,42.777 C58.973,41.571 58.955,40.348 58.634,39.116 C58.625,38.652 58.616,37.714 58.616,37.241 z" fill="#1364AA"/>
    <path d="M19.348,40.67 L20.161,40.393 C20.688,40.411 21.741,40.464 22.268,40.491 C22.545,40.723 23.107,41.188 23.393,41.42 L23.161,41.911 L22.384,42.312 L21.812,42.25 C21.223,41.92 20.054,41.25 19.464,40.92 L19.348,40.67 z" fill="#1364AA"/>
    <path d="M18.205,41.42 C18.598,41.455 19.384,41.536 19.777,41.58 C19.884,41.893 20.107,42.518 20.223,42.83 C19.848,42.821 19.089,42.812 18.705,42.804 C18.58,42.455 18.33,41.768 18.205,41.42 z" fill="#1364AA"/>
    <path d="M15.107,47.196 C15.893,46.571 16.687,45.946 17.482,45.321 C17.795,45.714 18.429,46.5 18.75,46.893 C17.964,47.723 17.393,48.67 17.054,49.75 C16.384,48.911 15.759,48.045 15.107,47.196 z" fill="#1364AA"/>
    <path d="M81.232,45.804 C81.777,46.393 82.286,47.009 82.804,47.616 C84.375,48.589 85.161,50.205 85.58,51.955 C85.473,52.33 85.268,53.08 85.161,53.455 C85.339,51.018 82.723,49.857 81.33,48.241 C80.893,48.634 80.455,49.018 80.027,49.411 C79.688,49.723 79.018,50.348 78.679,50.661 C78.339,50.973 77.652,51.589 77.312,51.893 C75.607,51.277 73.795,51.339 72.009,51.357 C71.705,50.527 71.357,49.705 70.812,48.991 C70.214,48.857 69.009,48.58 68.402,48.438 C69.045,47.589 69.688,46.732 70.339,45.893 C71.232,47.161 72.152,48.42 73.179,49.589 L73.464,49.946 L73.911,49.848 C75.134,49.634 76.321,49.295 77.482,48.848 C78,48.473 78.509,48.08 79,47.688 C79.75,47.062 80.491,46.438 81.232,45.804 z" fill="#1364AA"/>
    <path d="M1.295,49.616 C1.732,49.902 2.607,50.473 3.045,50.759 C4.964,52.009 6.92,53.205 8.875,54.393 C10.304,52.625 11.741,50.866 13.188,49.125 C13.536,49.598 14.232,50.562 14.58,51.036 C13.232,52.5 11.848,53.946 10.696,55.571 L11.089,55.839 L12.214,56.536 C13.643,57.411 15.054,58.295 16.464,59.196 C16.045,59.438 15.188,59.902 14.768,60.143 C13.473,59.652 12.17,59.17 10.893,58.634 C9.821,57.741 8.464,58.571 8.268,59.839 C7.92,59.893 7.214,60 6.866,60.054 C7.17,59.223 7.473,58.384 7.759,57.545 C5.179,55.375 2.571,53.241 0,51.062 L0,50.411 L0.295,50.277 C0.545,50.116 1.045,49.786 1.295,49.616 z" fill="#1364AA"/>
    <path d="M87.152,50.598 C88.071,51.161 88.991,51.723 89.902,52.304 C90.107,52.714 90.509,53.527 90.714,53.938 C91.036,54.134 91.67,54.527 91.991,54.723 C94.089,57.295 95.634,60.25 97.33,63.089 L96.455,63.134 C96.062,62.839 95.286,62.25 94.893,61.955 C93.25,60.321 91.652,58.643 90.062,56.955 C91.768,54.125 88.482,53.429 86.562,52.42 L87.723,52.938 C87.58,52.357 87.295,51.188 87.152,50.598 z" fill="#1364AA"/>
    <path d="M72.259,55.607 C72.562,55.241 73.161,54.509 73.464,54.143 C75.071,55.232 77.259,55.518 78.687,56.777 C77.277,57.625 75.786,58.304 74.312,59.018 C74.679,59.964 75.027,60.911 75.366,61.866 L75.071,62.5 L74.437,63.312 L73.348,62.446 C73.018,62.161 72.348,61.607 72.018,61.321 C71.473,60.884 70.929,60.437 70.384,59.991 L71.893,59.429 L72.08,59.366 C72.045,59.304 71.982,59.179 71.955,59.116 L71.527,58.295 C71.125,57.58 70.339,56.17 69.946,55.455 L70.92,55.67 C71.17,55.777 71.679,55.973 71.929,56.08 C72.509,56.982 74.679,58.33 74.929,56.482 C74.339,55.5 73.455,55.214 72.259,55.607 z" fill="#1364AA"/>
    <path d="M57.92,60.964 C58.402,60.589 59.366,59.83 59.848,59.455 C60.312,59.589 61.223,59.857 61.679,59.991 C60.625,60.83 59.33,61.321 57.991,61.464 L57.92,60.964 z" fill="#1364AA"/>
    <path d="M86.348,59.777 C86.821,59.964 87.777,60.33 88.25,60.518 C88.491,60.607 88.964,60.777 89.196,60.857 C91.17,61.696 93.098,62.661 95.179,63.232 L95.232,64.08 C95.491,65.455 96.161,66.705 96.705,67.991 L95.607,67.643 C95.17,67.446 94.295,67.045 93.866,66.848 C95.938,65.857 93.312,64.089 92.562,66.027 C92.17,65.982 91.393,65.884 91.009,65.83 C90.893,66.679 90.652,68.366 90.536,69.205 C91.634,69.08 92.732,68.973 93.83,68.866 L94.893,69.33 C91.598,70.643 88.179,71.562 84.705,72.241 C84.42,71.491 83.848,69.991 83.562,69.232 C85.375,69.161 87.179,69.098 88.991,69.089 C89.375,69.161 90.134,69.304 90.509,69.375 C89.848,68.366 89.179,67.357 88.393,66.446 C90.973,66.946 89.5,64.098 87.759,65.223 C87.705,64.705 87.589,63.652 87.536,63.134 C87.205,63.536 86.536,64.33 86.205,64.732 C85.107,64.366 84.018,64 82.92,63.634 L82.732,63.321 C83.268,62.795 84.33,61.741 84.857,61.214 C85.232,60.848 85.973,60.134 86.348,59.777 M89.509,62.67 C89.304,64.009 91.562,64.705 92.589,64.179 C92.705,62.92 90.527,62.116 89.509,62.67 z" fill="#1364AA"/>
    <path d="M7.804,62.482 C8.411,62.429 9.625,62.321 10.241,62.268 C10.411,62.286 10.768,62.304 10.938,62.312 C11.536,62.536 12.741,62.973 13.339,63.196 C14.455,63.777 15.714,63.17 16.705,62.607 C17.607,63.473 18.705,62.598 19.5,62.062 C20.116,62.991 20.732,63.92 21.33,64.866 C22.777,64.437 24.241,64.089 25.723,63.83 C26.661,64.304 27.571,64.804 28.464,65.348 L28.679,66.321 C28.241,66.286 27.357,66.214 26.92,66.187 C25.795,66.187 24.67,66.187 23.545,66.196 C22.821,66.187 21.384,66.179 20.67,66.17 C20.634,66.866 20.571,68.25 20.545,68.946 C20.062,70.277 19.036,71.214 17.848,71.937 C18.116,70.964 18.393,70 18.679,69.036 C18.875,68.527 19.25,67.509 19.446,67 L19.598,66.464 C19.223,66.393 18.473,66.241 18.098,66.161 C17.429,66.161 16.107,66.161 15.446,66.161 L15.625,67.348 C15.098,67.518 14.045,67.857 13.518,68.027 C13.955,67.045 14,66.062 13.661,65.098 C12.446,64.518 11.955,66.384 11.643,67.205 C10.562,67.348 9.518,67.607 8.509,68 L8.036,68.205 L6.83,66.946 L6.946,66.643 L7.402,66.152 L7.893,65.83 L8.152,65.759 C8.795,65.848 10.071,66.018 10.714,66.098 C9.732,64.902 8.759,63.696 7.804,62.482 z" fill="#1364AA"/>
    <path d="M47.321,64.759 C48.089,63.884 49.152,63.357 50.143,62.768 C50.277,63.991 49.866,65.25 48.884,66.036 C48.571,66.009 47.946,65.946 47.634,65.911 C47.554,65.625 47.402,65.045 47.321,64.759 z" fill="#1364AA"/>
    <path d="M65.536,66.777 C65.393,65.562 65.875,64.339 66.152,63.161 C66.589,63.705 67.473,64.795 67.911,65.33 L67.848,66.054 C67.152,66.616 66.384,66.857 65.536,66.777 z" fill="#1364AA"/>
    <path d="M69.795,63.098 C69.955,63.446 70.286,64.125 70.455,64.473 C70.616,65.438 70.768,66.42 70.893,67.393 L72.259,66.973 C72.152,67.536 71.946,68.67 71.839,69.232 C71.652,70.134 71.714,71.054 71.777,71.964 C72.116,74.955 72.089,77.964 72.071,80.964 C71.339,80.643 70.616,80.321 69.884,80 C69.652,80.911 69.411,81.813 69.152,82.714 C68.821,82.598 68.17,82.348 67.839,82.232 C67.804,81.875 67.75,81.179 67.714,80.821 C67.67,80.339 67.58,79.375 67.536,78.893 C66.634,78.205 65.723,77.527 64.804,76.866 C65.277,76.696 66.214,76.348 66.679,76.179 C66.848,75.875 67.179,75.268 67.348,74.973 C67.384,73.991 67.42,73.009 67.464,72.036 C68.455,71.518 70.723,70.241 69.223,69.125 C69.098,68.223 68.848,66.411 68.723,65.509 C69.08,64.705 69.438,63.911 69.795,63.098 z" fill="#1364AA"/>
    <path d="M29.509,68.107 C32.839,67.777 36.08,66.938 39.152,65.598 C38.518,67.929 36.232,68.714 34.223,69.455 L33.205,69.652 C31.955,69.42 30.705,69.67 29.562,70.179 C29.009,70.304 27.92,70.562 27.366,70.696 C27.295,71.098 27.143,71.92 27.071,72.321 L26.884,71.286 C26.58,69.589 24.223,70.571 23.161,70.884 C22.687,70.723 21.759,70.393 21.286,70.232 C21.964,69.714 22.652,69.205 23.348,68.705 C25.357,68.509 27.393,68.473 29.402,68.759 C29.429,68.589 29.482,68.268 29.509,68.107 z" fill="#1364AA"/>
    <path d="M36.054,77.821 C37.554,74.661 38.241,71.071 40.518,68.321 L40.482,68.857 C39.848,70.991 39.375,73.17 39.58,75.42 C38.857,76.259 38.455,77.214 38.366,78.286 C37.598,78.107 36.83,77.955 36.054,77.821 z" fill="#1364AA"/>
    <path d="M30.009,72.223 C30.652,70.973 32.188,70.679 33.375,70.179 C34.161,71.161 33.277,71.991 32.411,72.438 C31.857,72.527 30.759,72.705 30.205,72.795 L30.009,72.223 z" fill="#1364AA"/>
    <path d="M26.357,74.045 C26.723,74 27.455,73.902 27.812,73.848 C28.054,74.357 28.527,75.357 28.768,75.866 C28.848,77.277 28.857,78.696 28.875,80.107 C27.911,80.438 26.955,80.768 25.991,81.089 C26.089,78.741 26.223,76.393 26.357,74.045 z" fill="#1364AA"/>
    <path d="M61.67,74.705 C61.955,75.054 62.527,75.741 62.812,76.089 C63.214,76.607 64.009,77.652 64.402,78.17 C64.42,78.214 64.455,78.304 64.482,78.348 C64.58,78.812 64.777,79.759 64.875,80.223 L66.482,80.518 C65.634,81.268 65.268,82.179 65.384,83.241 C65.536,84.089 65.696,84.929 65.866,85.777 L65.196,85.625 C64.241,85.411 63.286,85.196 62.339,84.991 C61.625,84.295 60.786,83.946 59.812,83.938 C59.732,85.17 61.125,86.348 62.295,85.688 C62.866,86.616 63.491,87.509 64.116,88.402 L63.661,88.277 C61.991,87.67 60.411,86.875 58.821,86.098 L58.571,86.777 L58.179,87.786 C57.768,87.795 56.955,87.821 56.554,87.839 L56.42,88.518 C56.795,89 57.187,89.473 57.607,89.929 C55.562,92.83 53.687,95.839 51.83,98.857 C51.482,97.875 51.143,96.893 50.795,95.92 C52.018,93.134 53.455,90.446 54.75,87.696 C55.357,86.464 55.911,85.214 56.437,83.955 L56.714,83.259 C57.286,81.634 56.187,80.455 55.125,79.375 C55.375,79.143 55.857,78.661 56.107,78.42 L56.929,78.571 C57.187,78.866 57.705,79.455 57.964,79.759 C58.08,79.902 58.321,80.196 58.437,80.348 C58.768,79.768 59.429,78.616 59.759,78.036 C59.768,79.464 59.777,80.902 59.786,82.33 C60.768,82.554 61.759,82.759 62.75,82.955 L63.232,83.009 L64.732,83.179 C63.768,80.339 62.768,77.5 61.67,74.705 z" fill="#1364AA"/>
    <path d="M15.946,75.5 C16.741,75.5 18.321,75.482 19.107,75.482 C18.598,78.241 18.232,81.027 17.652,83.777 L16.929,84.027 L15.518,84.482 C15.652,81.482 15.812,78.491 15.946,75.5 z" fill="#1364AA"/>
    <path d="M47.089,78.348 C47.411,78.152 48.036,77.768 48.348,77.571 L49.348,77.116 C49.688,77.661 50.375,78.75 50.723,79.295 C51.205,80.411 51.732,81.509 52.304,82.58 C52.161,82.937 51.884,83.661 51.741,84.018 L51.527,84.571 C51.098,84.357 50.259,83.92 49.83,83.696 C52.741,82.598 49,80.696 49.089,83.545 C48.196,85.098 47.277,86.634 46.268,88.116 C46.062,88.295 45.652,88.643 45.446,88.812 C44.036,89.036 42.473,89.295 44.054,90.786 C41.312,92.982 38.393,94.929 35.554,96.982 C34.92,96.286 34.277,95.589 33.616,94.92 C33.902,94.571 34.491,93.875 34.786,93.527 C34.982,94.062 35.375,95.116 35.571,95.643 C37.071,95.107 36.259,92.991 34.786,93.527 C34.812,93.17 34.875,92.446 34.911,92.089 C35.938,90.241 36.759,88.259 36.911,86.116 L37.116,86.366 C37.929,85.277 38.455,84.018 39,82.786 C39.295,82.304 39.875,81.33 40.161,80.848 C40.536,81.866 40.911,82.884 41.304,83.893 C40.705,85.143 40.107,86.384 39.348,87.545 L39.009,87.857 C38.92,87.937 38.741,88.107 38.661,88.196 C37.312,89.25 36.732,90.857 36.277,92.446 C36.759,92.018 37.714,91.152 38.196,90.723 C38.375,91.116 38.732,91.893 38.911,92.277 C39.964,90.955 41.018,89.634 42.045,88.286 C42.232,88.045 42.607,87.562 42.795,87.321 C43.375,86.58 43.964,85.857 44.562,85.134 C45.768,83.696 47,82.295 48.25,80.902 C47.866,80.045 47.482,79.196 47.089,78.348 z" fill="#1364AA"/>
    <path d="M75.321,78.75 C78.179,79.455 81.054,80.089 83.848,81.009 C84,81.562 84.304,82.67 84.455,83.223 C81.429,82.929 78.42,82.473 75.402,82.17 C75.384,81.312 75.348,79.607 75.321,78.75 z" fill="#1364AA"/>
    <path d="M26.241,84.375 C27.196,83.929 28.143,83.464 29.08,82.991 C29.295,85.438 29.518,87.884 29.759,90.33 L29.804,91.107 C29.732,91.643 29.58,92.714 29.509,93.25 C27.143,91.205 26.929,87.348 26.241,84.375 z" fill="#1364AA"/>
    <path d="M33.973,83.116 C34.295,83.384 34.929,83.92 35.25,84.187 C34.911,86.562 33.991,88.795 33.152,91.036 C32.955,91.598 32.562,92.732 32.366,93.295 C32.33,93.625 32.25,94.277 32.205,94.598 L31.17,94.312 C31.143,93.786 31.089,92.741 31.062,92.214 C30.884,92.036 30.527,91.696 30.348,91.518 C30.571,91.223 31.018,90.616 31.241,90.312 C32.125,87.902 32.875,85.446 33.973,83.116 z" fill="#1364AA"/>
  </g>
  <g id="#193c457f">
    <path d="M33.071,8.491 C34.223,9.339 35.312,10.893 34.089,12.179 C33.286,11.08 32.946,9.848 33.071,8.491 z" fill="#193C45" opacity="0.5"/>
  </g>
  <g id="#1a3e4d85">
    <path d="M34.259,13.491 L34.696,13.402 L34.902,13.812 L34.402,13.848 L34.259,13.491 z" fill="#1A3E4D" opacity="0.52"/>
  </g>
  <g id="#20444183">
    <path d="M15.17,14.643 C17.545,14.875 19.929,14.679 22.277,14.259 C22.152,14.598 21.902,15.286 21.777,15.625 C19.768,15.688 15.938,13.616 15.795,16.741 C15.598,16.036 15.393,15.339 15.17,14.643 z" fill="#204441" opacity="0.51"/>
  </g>
  <g id="#63a345f9">
    <path d="M22.884,14.17 C23.277,14.116 24.071,14.027 24.473,13.973 C25.071,13.991 26.277,14.027 26.875,14.045 C26.866,14.545 26.857,15.536 26.848,16.027 C26.134,16.062 24.696,16.125 23.973,16.152 C23.705,15.661 23.152,14.661 22.884,14.17 z" fill="#63A345" opacity="0.98"/>
  </g>
  <g id="#1e494f97">
    <path d="M35.893,14.536 C36.58,15.536 37.125,16.616 37.714,17.679 C37.223,17.777 36.232,17.973 35.741,18.071 C35.455,17.866 34.875,17.455 34.589,17.25 C35.036,16.357 35.473,15.446 35.893,14.536 z" fill="#1E494F" opacity="0.59"/>
  </g>
  <g id="#639e40f1">
    <path d="M28.241,15.67 C28.616,15.482 29.357,15.098 29.732,14.911 C30.446,15.107 31.866,15.491 32.58,15.688 C33.08,16.089 33.589,16.482 34.098,16.875 L34.589,17.25 C34.875,17.455 35.455,17.866 35.741,18.071 C35.982,18.464 36.455,19.25 36.688,19.643 C36.116,19.625 34.973,19.58 34.402,19.554 L34.411,19.304 C33.312,17.911 31.58,17.411 29.982,16.821 C29.554,16.527 28.679,15.955 28.241,15.67 z" fill="#639E40" opacity="0.95"/>
  </g>
  <g id="#5d9048e5">
    <path d="M62.741,16.991 C63.893,16.045 65.152,15.241 66.446,14.518 L68.054,14.955 C67.58,15.393 66.634,16.259 66.161,16.696 C66.536,16.696 67.286,16.705 67.67,16.705 L68.786,17.062 C67.143,17.732 65.5,18.402 63.857,19.054 L61.973,17.839 L62.429,17.339 L62.902,17.473 L63.134,17.152 L62.741,16.991 z" fill="#5D9048" opacity="0.9"/>
  </g>
  <g id="#68a743fc">
    <path d="M71.455,15.179 C72.027,15.054 73.161,14.821 73.723,14.705 C77.312,14.634 81.027,14.018 84.518,15.045 L83.884,15.786 C81.705,17.089 78.536,17.705 76.348,16.071 C74.866,16.241 73.393,16.438 71.938,16.795 L71.455,15.179 z" fill="#68A743"/>
  </g>
  <g id="#797043ba">
    <path d="M23.973,16.152 C24.696,16.125 26.134,16.062 26.848,16.027 L26.92,16.83 C26.429,16.875 25.438,16.973 24.946,17.018 C24.812,19.723 24.688,22.455 25.027,25.152 C24.688,23.812 23.973,22.625 22.964,21.661 L22.688,23.473 C22.661,23.232 22.607,22.75 22.58,22.509 L22.527,22.036 C24.027,20.411 24.375,18.286 23.973,16.152 z" fill="#797043" opacity="0.73"/>
  </g>
  <g id="#4f5b6fc2">
    <path d="M26.92,16.83 C27.205,18.143 27.563,19.446 27.866,20.75 C28.018,21.143 28.313,21.929 28.464,22.312 C28.045,22.33 27.214,22.366 26.804,22.384 C26.848,20.536 26.848,18.688 26.92,16.83 z" fill="#4F5B6F" opacity="0.76"/>
  </g>
  <g id="#ecb31ef3">
    <path d="M62.741,16.991 L63.134,17.152 L62.902,17.473 L62.429,17.339 L62.741,16.991 z" fill="#ECB31E" opacity="0.95"/>
  </g>
  <g id="#1963a5fa">
    <path d="M70.893,17.054 C71.982,16.902 74.161,16.607 75.259,16.455 C75.188,17.402 75.125,18.348 75.054,19.295 L74.205,18.759 C74.036,19.438 73.705,20.795 73.536,21.473 C72.304,20.071 71.071,18.67 69.812,17.295 L70.893,17.054 z" fill="#1963A5" opacity="0.98"/>
  </g>
  <g id="#63a243f7">
    <path d="M75.857,22.107 C75.786,20.143 75.741,18.179 75.705,16.205 C78.366,16.714 78.214,19.116 78.473,21.17 C77.812,21.402 76.509,21.875 75.857,22.107 z" fill="#63A243" opacity="0.97"/>
  </g>
  <g id="#1463a7fc">
    <path d="M82.482,16.688 C82.812,16.768 83.464,16.938 83.795,17.027 C84.5,18.732 83.973,20.589 83.964,22.366 C85.634,22.991 87.312,23.643 89.08,23.964 C88.893,24.339 88.509,25.107 88.312,25.482 C85.196,24.33 81.875,24.062 78.58,23.929 L77.455,23.295 C77.268,23.188 76.893,22.982 76.705,22.875 C78.08,22.152 79.625,21.92 81.152,21.812 C81.536,20.089 81.893,18.357 82.482,16.688 z" fill="#1463A7"/>
  </g>
  <g id="#5020136b">
    <path d="M35.741,18.071 C36.232,17.973 37.223,17.777 37.714,17.679 C37.946,17.982 38.42,18.58 38.652,18.884 C38.161,19.08 37.179,19.455 36.688,19.643 C36.455,19.25 35.982,18.464 35.741,18.071 z" fill="#502013" opacity="0.42"/>
  </g>
  <g id="#952623be">
    <path d="M55.616,19.643 C56.241,20.545 56.589,21.536 56.679,22.625 L56.357,23.295 C53.973,23.652 53.964,20.598 55.616,19.643 z" fill="#952623" opacity="0.75"/>
  </g>
  <g id="#61953ee4">
    <path d="M58.768,18.625 L59.33,19.634 C59.527,21.375 58.455,22.955 57.884,24.527 C56.634,26.732 55.804,29.134 55.402,31.634 C54.232,33.518 53.393,35.562 52.661,37.643 C52.366,37.464 51.777,37.116 51.482,36.938 C52.08,34.973 52.741,33.027 53.438,31.098 C53.893,29.982 54.321,28.857 54.732,27.732 C54.884,27.304 55.188,26.464 55.339,26.036 C55.67,25.116 56.009,24.205 56.357,23.295 L56.679,22.625 C57.33,21.268 58.054,19.946 58.768,18.625 z" fill="#61953E" opacity="0.89"/>
  </g>
  <g id="#eab21cf1">
    <path d="M16.839,21.071 C18.625,20.643 20.455,20.42 22.277,20.152 L22.527,22.036 L22.58,22.509 C20.839,22.687 19.089,22.821 17.384,23.223 C15.652,23.723 13.866,24.054 12.063,24.009 C12.616,23.634 13.732,22.902 14.295,22.527 C14.929,22.161 16.196,21.437 16.839,21.071 z" fill="#EAB21C" opacity="0.95"/>
  </g>
  <g id="#1564a9fe">
    <path d="M70.545,22.884 C71.188,22.58 72.473,21.991 73.116,21.696 C74.214,21.991 75.304,22.339 76.375,22.75 L76.357,22.83 C75.634,25.33 72.839,24.125 71.045,24.473 L70.545,22.884 z" fill="#1564A9"/>
  </g>
  <g id="#8d7434b3">
    <path d="M77.455,23.295 L78.58,23.929 C81.875,24.062 85.196,24.33 88.312,25.482 L88.536,26.161 C85.036,24.991 81.348,24.518 77.67,24.938 L77.455,23.295 z" fill="#8D7434" opacity="0.7"/>
  </g>
  <g id="#f4b81efb">
    <path d="M77.67,24.938 C81.348,24.518 85.036,24.991 88.536,26.161 C88.661,26.554 88.92,27.348 89.045,27.75 L88.312,27.884 C85.598,27.777 82.973,26.893 80.232,27.009 C79.821,26.964 79,26.875 78.589,26.83 L77.911,26.714 C77.848,26.268 77.732,25.384 77.67,24.938 z" fill="#F4B81E"/>
  </g>
  <g id="#145a90de">
    <path d="M3.464,27.562 C3.679,27.071 4.098,26.089 4.312,25.598 C5.661,26.277 7.009,26.946 8.339,27.67 L8.107,29.107 C7.268,27.884 5.661,28.027 4.375,27.92 L3.464,27.562 z" fill="#145A90" opacity="0.87"/>
  </g>
  <g id="#ebb11df4">
    <path d="M13.455,27.857 C13.634,27.241 13.991,26 14.17,25.384 C14.884,26.259 15.795,26.839 16.884,27.125 C19.75,28.125 22.518,29.357 25.259,30.661 L25.884,31.598 C24.625,31.777 23.375,31.938 22.116,32.08 C22.259,30.277 20.17,29.321 18.67,29.991 C18.134,29.009 17.295,28.464 16.125,28.366 C15.295,27.696 14.411,27.527 13.455,27.857 z" fill="#EBB11D" opacity="0.96"/>
  </g>
  <g id="#574548ae">
    <path d="M90.884,27.438 C92.625,26.688 93.33,28.866 93.786,30.107 L93.339,30.375 C92.83,30.071 91.812,29.464 91.304,29.17 C91.196,28.732 90.982,27.866 90.884,27.438 z" fill="#574548" opacity="0.68"/>
  </g>
  <g id="#193a4a7f">
    <path d="M4.375,27.92 C5.661,28.027 7.268,27.884 8.107,29.107 L7.991,29.848 L7.268,30.036 C6.17,29.527 5.25,28.732 4.375,27.92 z" fill="#193A4A" opacity="0.5"/>
  </g>
  <g id="#64480c68">
    <path d="M13.455,27.857 C14.411,27.527 15.295,27.696 16.125,28.366 C15.804,28.652 15.179,29.241 14.857,29.527 C14.446,29.5 13.607,29.446 13.196,29.411 C13.259,29.027 13.393,28.25 13.455,27.857 z" fill="#64480C" opacity="0.41"/>
  </g>
  <g id="#c43224ee">
    <path d="M39.643,28.339 C40.286,28.062 41.589,27.509 42.241,27.232 C42.214,28.062 42.152,29.705 42.125,30.527 L41.75,31.804 C40.562,31.58 39.375,31.348 38.188,31.116 C38.652,30.179 39.107,29.241 39.643,28.339 z" fill="#C43224" opacity="0.93"/>
  </g>
  <g id="#0a1d243f">
    <path d="M14.857,29.527 C15.179,29.241 15.804,28.652 16.125,28.366 C16.304,28.875 16.67,29.893 16.857,30.411 C16.357,30.188 15.357,29.75 14.857,29.527 z" fill="#0A1D24" opacity="0.25"/>
  </g>
  <g id="#629339dc">
    <path d="M16.125,28.366 C17.295,28.464 18.134,29.009 18.67,29.991 L18.393,30.562 C18.009,30.518 17.241,30.446 16.857,30.411 C16.67,29.893 16.304,28.875 16.125,28.366 z" fill="#629339" opacity="0.86"/>
  </g>
  <g id="#61943ee2">
    <path d="M91.304,29.17 C91.812,29.464 92.83,30.071 93.339,30.375 C92.384,31.223 91.312,31.5 90.125,31.196 C90.42,30.688 91.009,29.67 91.304,29.17 z" fill="#61943E" opacity="0.89"/>
  </g>
  <g id="#5e460a60">
    <path d="M48.795,30.473 L49.009,30.696 C48.946,30.777 48.812,30.92 48.75,30.991 L48.795,30.473 z" fill="#5E460A" opacity="0.38"/>
  </g>
  <g id="#3b442f77">
    <path d="M14.268,31.116 C15.482,30.902 16.634,31.089 17.732,31.679 C17.259,31.902 16.321,32.339 15.848,32.562 C15.446,32.196 14.661,31.473 14.268,31.116 z" fill="#3B442F" opacity="0.47"/>
  </g>
  <g id="#67a242f5">
    <path d="M84.804,31.223 C85.643,31.161 87.321,31.036 88.161,30.982 L87.884,32.027 C86.161,32.366 84.438,32.696 82.768,33.259 C82.482,33.625 81.893,34.348 81.607,34.705 C81.054,34.589 79.946,34.357 79.393,34.25 C82.446,36.232 86.045,37.5 88.438,40.357 C87.973,40.652 87.045,41.25 86.589,41.554 C84.08,40.348 81.991,38.509 79.866,36.759 C77.964,36.321 76.027,36.027 74.107,35.679 C74.866,35.17 75.634,34.688 76.411,34.223 C77.071,33.946 78.384,33.393 79.045,33.116 C79.696,32.857 80.357,32.607 81.027,32.384 C82.286,32.009 83.598,31.759 84.804,31.223 z" fill="#67A242" opacity="0.96"/>
  </g>
  <g id="#92742baf">
    <path d="M88.312,35.321 C88.875,33.92 89.491,32.554 90.125,31.196 C90.67,31.946 91.214,32.705 91.768,33.455 C90.634,34.107 89.464,34.696 88.312,35.321 z" fill="#92742B" opacity="0.69"/>
  </g>
  <g id="#0a050713">
    <path d="M20.768,33.08 C21.723,33.152 22.562,33.482 23.286,34.071 C23.304,34.661 23.321,35.821 23.33,36.402 L22.991,36.491 C22.134,35.482 21.321,34.446 20.562,33.375 L20.768,33.08 z" fill="#0A0507" opacity="0.07"/>
  </g>
  <g id="#174777b7">
    <path d="M69.509,33.054 C70.25,33.205 71.741,33.518 72.491,33.67 C72.375,33.982 72.134,34.598 72.009,34.911 C71.295,34.964 69.866,35.089 69.152,35.143 C68.982,34.411 69.098,33.714 69.509,33.054 z" fill="#174777" opacity="0.72"/>
  </g>
  <g id="#65a642fb">
    <path d="M26.116,34.089 C26.598,34.589 26.598,34.589 26.116,34.089 z" fill="#65A642"/>
  </g>
  <g id="#bb3b2ae7">
    <path d="M27.527,33.259 C27.946,33.491 28.786,33.955 29.205,34.188 C29.018,35.393 28.848,36.598 28.634,37.804 C27.384,37.804 26.134,37.804 24.884,37.786 L24.321,37.473 C24.116,36.277 23.937,35.08 23.768,33.875 C24.955,34.839 26.143,35.813 27.312,36.795 C27.366,35.911 27.473,34.143 27.527,33.259 z" fill="#BB3B2A" opacity="0.91"/>
  </g>
  <g id="#1c4a78ba">
    <path d="M28.634,37.804 C28.848,36.598 29.018,35.393 29.205,34.188 L30.321,34.813 C30.312,35.223 30.286,36.054 30.277,36.473 C30.295,37.027 30.339,38.134 30.366,38.688 C30.411,40.161 30.473,41.643 30.527,43.125 L29.67,42.723 C29.17,41.795 28.714,40.839 28.295,39.866 C28.366,39.402 28.518,38.473 28.598,38.009 L28.634,37.804 z" fill="#1C4A78" opacity="0.73"/>
  </g>
  <g id="#4d7154c7">
    <path d="M11.857,35.991 C12.018,36.339 12.33,37.054 12.482,37.402 C11.491,37.83 10.643,38.857 10.705,39.982 L10.196,39.902 C9.348,38.812 10.018,37.402 10.598,36.375 C10.911,36.277 11.545,36.089 11.857,35.991 z" fill="#4D7154" opacity="0.78"/>
  </g>
  <g id="#65a743fc">
    <path d="M88.107,35.812 C88.179,35.946 88.304,36.223 88.366,36.357 L87.991,36.107 L88.107,35.812 z" fill="#65A743"/>
  </g>
  <g id="#a12f2cd3">
    <path d="M18.643,40.402 C18.83,39.125 20.17,38.527 21.321,38.42 C21.036,38.911 20.455,39.902 20.161,40.393 L19.348,40.67 L18.643,40.402 z" fill="#A12F2C" opacity="0.83"/>
    <path d="M15.884,69.214 C16.839,69.384 17.768,69.321 18.679,69.036 C18.393,70 18.116,70.964 17.848,71.938 L17.42,72.259 L17.018,72.25 C16.384,71.321 16,70.304 15.884,69.214 z" fill="#A12F2C" opacity="0.83"/>
    <path d="M44.616,69.911 C45.223,70.214 46.455,70.821 47.062,71.125 C47.045,71.527 47.009,72.321 46.991,72.723 L46.821,73.018 C45.17,73.027 44.214,71.429 44.616,69.911 z" fill="#A12F2C" opacity="0.83"/>
    <path d="M66.482,80.518 C66.795,80.589 67.411,80.75 67.714,80.821 C67.75,81.179 67.804,81.875 67.839,82.232 C67.134,82.83 66.313,83.17 65.384,83.241 C65.268,82.179 65.634,81.268 66.482,80.518 z" fill="#A12F2C" opacity="0.83"/>
    <path d="M34.58,98.321 C32.545,97.929 28.071,97.241 29.393,94.339 C29.83,94.33 30.723,94.321 31.17,94.313 L32.205,94.598 C32.562,94.679 33.259,94.839 33.616,94.92 C34.277,95.589 34.92,96.286 35.554,96.982 L34.58,98.321 z" fill="#A12F2C" opacity="0.83"/>
  </g>
  <g id="#784c43b9">
    <path d="M19.464,40.92 C20.054,41.25 21.223,41.92 21.812,42.25 C21.893,42.295 22.062,42.393 22.152,42.438 L22.384,42.312 L23.161,41.911 C23.268,42.205 23.491,42.777 23.607,43.071 L23.83,43.732 C23.812,43.902 23.795,44.25 23.777,44.42 C22.464,44.089 21.071,43.723 19.92,44.732 C19.518,44.089 19.116,43.446 18.705,42.804 C19.089,42.812 19.848,42.821 20.223,42.83 C20.107,42.518 19.884,41.893 19.777,41.58 L19.464,40.92 z" fill="#784C43" opacity="0.73"/>
  </g>
  <g id="#923f34d1">
    <path d="M81.777,42.509 C82.179,41.348 84.893,40.018 85.036,41.929 C84.696,42.25 84,42.902 83.652,43.223 C83.179,43.045 82.241,42.688 81.777,42.509 z" fill="#923F34" opacity="0.82"/>
  </g>
  <g id="#f2b61ef8">
    <path d="M21.812,42.25 L22.384,42.312 L22.152,42.438 C22.062,42.393 21.893,42.295 21.812,42.25 z" fill="#F2B61E" opacity="0.97"/>
  </g>
  <g id="#1663a2f7">
    <path d="M47.705,42.598 L48.071,42.688 C49.205,45.375 47.393,48.393 47.33,51.223 C47.384,51.634 47.491,52.446 47.554,52.848 C46.929,53.643 46.607,54.562 46.589,55.598 C46.536,56.214 46.429,57.455 46.366,58.071 L44.946,57.429 L44.911,57.098 C44.911,55.804 44.955,54.5 44.991,53.205 L45,53.071 L45.036,52.938 C45.723,50.661 46.188,48.321 46.464,45.955 C46.821,44.911 47.196,43.875 47.58,42.839 L47.705,42.598 z" fill="#1663A2" opacity="0.97"/>
  </g>
  <g id="#568d3bd7">
    <path d="M60.071,42.92 L60.187,43.205 L60.304,43.482 L60.071,43.223 L60.071,42.92 z" fill="#568D3B" opacity="0.84"/>
  </g>
  <g id="#679b3ef0">
    <path d="M50.214,44.705 C50.554,44.5 51.232,44.098 51.571,43.893 C52.33,44.089 53.857,44.482 54.625,44.679 C53.946,45.973 52.304,45.821 51.08,45.723 C50.866,45.464 50.429,44.955 50.214,44.705 z" fill="#679B3E" opacity="0.94"/>
  </g>
  <g id="#225383cb">
    <path d="M33.08,48.143 C34.598,47.312 35.134,49.536 33.571,49.83 L32.929,49.634 C32.964,49.259 33.045,48.518 33.08,48.143 z" fill="#225383" opacity="0.8"/>
  </g>
  <g id="#154f80c4">
    <path d="M61.188,47.866 C61.759,48.027 62.884,48.348 63.446,48.509 C63.214,48.741 62.75,49.205 62.518,49.438 C62.152,49.232 61.42,48.812 61.054,48.598 L61.188,47.866 z" fill="#154F80" opacity="0.77"/>
  </g>
  <g id="#8b6a259b">
    <path d="M73.179,49.589 L73.58,49.589 L73.911,49.848 L73.464,49.946 L73.179,49.589 z" fill="#8B6A25" opacity="0.61"/>
  </g>
  <g id="#61a040f2">
    <path d="M0,49.973 C0.071,50.054 0.223,50.205 0.295,50.277 L0,50.411 L0,49.973 z" fill="#61A040" opacity="0.95"/>
  </g>
  <g id="#3a6435a0">
    <path d="M47.33,51.223 C48.696,51.67 48.768,52.214 47.554,52.848 C47.491,52.446 47.384,51.634 47.33,51.223 z" fill="#3A6435" opacity="0.63"/>
  </g>
  <g id="#1b3a3f75">
    <path d="M45,53.071 L45.036,52.938 L45,53.071 L44.991,53.205 L45,53.071 z" fill="#1B3A3F" opacity="0.46"/>
  </g>
  <g id="#676932b2">
    <path d="M46.589,55.598 C47.429,55.312 48.268,55 49.089,54.679 C48.848,55.491 48.616,56.312 48.384,57.125 L48.241,57.58 C47.777,57.705 46.839,57.946 46.366,58.071 C46.429,57.455 46.536,56.214 46.589,55.598 z" fill="#676932" opacity="0.7"/>
  </g>
  <g id="#4b38469d">
    <path d="M48.384,57.125 C49.5,56.83 50.411,57.107 51.116,57.946 L50.964,58.661 L50.304,58.741 C49.786,58.446 48.759,57.866 48.241,57.58 L48.384,57.125 z" fill="#4B3846" opacity="0.62"/>
  </g>
  <g id="#2d6485e2">
    <path d="M79.571,56.929 L80.304,56.732 C81.384,57.25 82.437,57.804 83.5,58.348 L84.705,58.982 C83.804,59.786 82.866,60.527 81.875,61.223 L81.696,61.214 L81.071,60.991 C80.429,60.696 79.143,60.107 78.491,59.812 C78.018,59.643 77.071,59.295 76.598,59.116 L76.973,58.304 C77.795,57.759 78.661,57.304 79.571,56.929 z" fill="#2D6485" opacity="0.89"/>
  </g>
  <g id="#824221b4">
    <path d="M18.652,59.598 C20.045,58.045 23.161,59.179 21.804,61.33 C20.741,60.786 19.679,60.214 18.652,59.598 z" fill="#824221" opacity="0.71"/>
  </g>
  <g id="#77231794">
    <path d="M50.304,58.741 L50.964,58.661 C50.866,59.768 50.589,60.839 50.125,61.857 C49.188,60.991 48.911,59.375 50.304,58.741 z" fill="#772317" opacity="0.58"/>
  </g>
  <g id="#531d1e75">
    <path d="M71.955,59.116 C71.982,59.179 72.045,59.304 72.08,59.366 L71.893,59.429 L71.955,59.116 z" fill="#531D1E" opacity="0.46"/>
  </g>
  <g id="#355273c7">
    <path d="M16.884,60.518 C17.321,60.286 18.214,59.83 18.652,59.598 L18.545,60.527 C18.134,60.527 17.295,60.518 16.884,60.518 z" fill="#355273" opacity="0.78"/>
  </g>
  <g id="#717e32c4">
    <path d="M78.491,59.812 C79.143,60.107 80.429,60.696 81.071,60.991 C80.062,62.125 78.759,62.652 77.241,62.348 C77.652,61.5 78.071,60.661 78.491,59.812 z" fill="#717E32" opacity="0.77"/>
  </g>
  <g id="#b5912bd1">
    <path d="M13.339,63.196 C13.482,61.679 15.125,61.25 16.312,60.786 C16.411,61.241 16.607,62.152 16.705,62.607 C15.714,63.17 14.455,63.777 13.339,63.196 z" fill="#B5912B" opacity="0.82"/>
  </g>
  <g id="#be2823e7">
    <path d="M26.429,60.339 C28.036,60.277 29.616,60.554 31.188,60.884 C30.893,61.759 30.598,62.643 30.313,63.527 C29.884,63.321 29.036,62.92 28.607,62.723 C28.357,62.723 27.848,62.732 27.598,62.732 L26.661,61.839 L26.429,60.339 z" fill="#BE2823" opacity="0.91"/>
  </g>
  <g id="#1363a9fe">
    <path d="M42.036,61.125 L42.893,60.455 L43.83,60.786 C43.473,61.286 42.759,62.295 42.402,62.795 L41.812,62.652 C41.866,62.268 41.982,61.509 42.036,61.125 z" fill="#1363A9"/>
  </g>
  <g id="#2747307b">
    <path d="M43.83,60.786 C44.732,60.857 46.268,62.027 45.036,62.83 C44.17,63.134 43.286,63.125 42.402,62.795 C42.759,62.295 43.473,61.286 43.83,60.786 z" fill="#274730" opacity="0.48"/>
  </g>
  <g id="#74592082">
    <path d="M81.696,61.214 L81.875,61.223 C81.83,61.223 81.741,61.214 81.696,61.214 z" fill="#745920" opacity="0.51"/>
  </g>
  <g id="#0c406da4">
    <path d="M89.509,62.67 C90.527,62.116 92.705,62.92 92.589,64.179 C91.562,64.705 89.304,64.009 89.509,62.67 z" fill="#0C406D" opacity="0.64"/>
  </g>
  <g id="#4e8646d6">
    <path d="M86.205,64.732 C86.536,64.33 87.205,63.536 87.536,63.134 C87.589,63.652 87.705,64.705 87.759,65.223 L87.821,65.839 L88.393,66.446 C89.179,67.357 89.848,68.366 90.509,69.375 C90.134,69.304 89.375,69.161 88.991,69.089 C87.295,66.848 84.009,66.33 82.92,63.634 C84.018,64 85.107,64.366 86.205,64.732 z" fill="#4E8646" opacity="0.84"/>
  </g>
  <g id="#125ea0f0">
    <path d="M81.411,64.991 C81.848,63.554 82.393,63.527 83.027,64.911 C82.625,64.929 81.812,64.973 81.411,64.991 z" fill="#125EA0" opacity="0.94"/>
  </g>
  <g id="#536868cc">
    <path d="M11.643,67.205 C11.955,66.384 12.446,64.518 13.661,65.098 C14,66.062 13.955,67.045 13.518,68.027 C13.107,68.143 12.286,68.384 11.875,68.5 L11.759,67.857 C11.795,67.723 11.866,67.446 11.902,67.312 L11.643,67.205 z" fill="#536868" opacity="0.8"/>
  </g>
  <g id="#1d304d7d">
    <path d="M42.152,66.625 C42.304,66.259 42.598,65.509 42.75,65.134 L43.196,66.027 L42.955,66.67 L42.152,66.625 z" fill="#1D304D" opacity="0.49"/>
  </g>
  <g id="#824a32c7">
    <path d="M81.411,64.991 C81.812,64.973 82.625,64.929 83.027,64.911 C82.982,65.643 82.911,67.107 82.866,67.839 C81.821,67.295 81.17,66.179 81.411,64.991 z" fill="#824A32" opacity="0.78"/>
  </g>
  <g id="#05121b2c">
    <path d="M87.759,65.223 C89.5,64.098 90.973,66.946 88.393,66.446 L87.821,65.839 L87.759,65.223 z" fill="#05121B" opacity="0.17"/>
  </g>
  <g id="#416f3db3">
    <path d="M92.562,66.027 C93.312,64.089 95.938,65.857 93.866,66.848 C93.536,66.643 92.884,66.232 92.562,66.027 z" fill="#416F3D" opacity="0.7"/>
  </g>
  <g id="#cfa429e6">
    <path d="M18.098,66.161 C18.473,66.241 19.223,66.393 19.598,66.464 L19.446,67 C18.348,67.616 17.107,67.821 15.911,68.134 C16.17,67.045 16.902,66.384 18.098,66.161 z" fill="#CFA429" opacity="0.9"/>
  </g>
  <g id="#e1aa21ea">
    <path d="M26.92,66.188 C27.357,66.214 28.241,66.286 28.679,66.321 C28.866,67.536 28.268,68.08 26.893,67.938 C26.902,67.5 26.911,66.625 26.92,66.188 z" fill="#E1AA21" opacity="0.92"/>
  </g>
  <g id="#f0b420f7">
    <path d="M43.196,66.027 C43.259,66.196 43.375,66.536 43.438,66.714 L42.955,66.67 L43.196,66.027 z" fill="#F0B420" opacity="0.97"/>
  </g>
  <g id="#548453dd">
    <path d="M15.911,68.134 C17.107,67.821 18.348,67.616 19.446,67 C19.25,67.509 18.875,68.527 18.679,69.036 C17.768,69.321 16.839,69.384 15.884,69.214 C15.893,68.946 15.911,68.402 15.911,68.134 z" fill="#548453" opacity="0.87"/>
  </g>
  <g id="#c12e24ea">
    <path d="M3.598,72.545 C3.045,71.241 1.92,69.17 3.357,68.08 L3.696,68.304 L3.92,68.545 C4.884,69.518 6.393,70.509 6.17,72.089 C5.527,72.205 4.241,72.429 3.598,72.545 z" fill="#C12E24" opacity="0.92"/>
  </g>
  <g id="#508435c8">
    <path d="M8.036,68.205 L8.509,68 L8.795,68.357 L8.393,68.589 L8.036,68.205 z" fill="#508435" opacity="0.78"/>
  </g>
  <g id="#3c6463c4">
    <path d="M20.545,68.946 C21.241,68.884 22.643,68.768 23.348,68.705 C22.652,69.205 21.964,69.714 21.286,70.232 C21.759,70.393 22.688,70.723 23.161,70.884 C24.259,71.545 25.67,71.92 26.884,71.286 L27.071,72.321 C23.848,72.277 20.634,72.268 17.42,72.259 L17.848,71.938 C19.036,71.214 20.062,70.277 20.545,68.946 z" fill="#3C6463" opacity="0.77"/>
  </g>
  <g id="#0105090e">
    <path d="M23.161,70.884 C24.223,70.571 26.58,69.589 26.884,71.286 C25.67,71.92 24.259,71.545 23.161,70.884 z" fill="#010509" opacity="0.05"/>
  </g>
  <g id="#688a3fd5">
    <path d="M48.83,71.696 L48.973,72.018 C49.089,72.366 49.33,73.045 49.446,73.384 C48.946,74.045 48.339,74.554 47.607,74.911 C47.411,74.437 47.018,73.491 46.821,73.018 L47,72.902 C47.455,72.598 48.375,72 48.83,71.696 z" fill="#688A3F" opacity="0.84"/>
  </g>
  <g id="#b04325dc">
    <path d="M57.982,76.946 C58.027,75.348 58.562,73.857 59.536,72.598 C60.152,74.232 60.732,75.875 61.161,77.571 C60.098,77.366 59.045,77.152 57.982,76.946 z" fill="#B04325" opacity="0.86"/>
  </g>
  <g id="#195f9dee">
    <path d="M51.696,75.107 C51.964,74.866 52.5,74.402 52.768,74.17 C53.348,74.848 53.902,75.545 54.429,76.268 C54.027,76.866 53.491,77.268 52.839,77.455 C52.598,77.295 52.116,76.964 51.875,76.804 C51.83,76.384 51.741,75.527 51.696,75.107 z" fill="#195F9D" opacity="0.93"/>
  </g>
  <g id="#518a4ade">
    <path d="M64.545,75.571 C65.25,75.42 66.652,75.116 67.348,74.973 C67.179,75.268 66.848,75.875 66.679,76.179 C66.143,76.205 65.071,76.268 64.536,76.304 L64.545,75.571 z" fill="#518A4A" opacity="0.87"/>
  </g>
  <g id="#375b2a8e">
    <path d="M56.107,78.42 C55.402,76.438 58.304,76.964 56.929,78.571 L56.107,78.42 z" fill="#375B2A" opacity="0.56"/>
  </g>
  <g id="#31413d7f">
    <path d="M57.982,76.946 C59.045,77.152 60.098,77.366 61.161,77.571 L61.152,78.58 C60.955,80.214 60.973,82.196 62.75,82.955 C61.759,82.759 60.768,82.554 59.786,82.33 C59.777,80.902 59.768,79.464 59.759,78.036 C59.429,78.616 58.768,79.768 58.437,80.348 C58.321,80.196 58.08,79.902 57.964,79.759 C57.973,79.054 57.982,77.652 57.982,76.946 z" fill="#31413D" opacity="0.5"/>
  </g>
  <g id="#c19720d2">
    <path d="M61.152,78.58 C62.571,79.58 63.393,81.268 63.232,83.009 L62.75,82.955 C60.973,82.196 60.955,80.214 61.152,78.58 z" fill="#C19720" opacity="0.82"/>
  </g>
  <g id="#346363c2">
    <path d="M52.304,82.58 C53.196,81.473 54.116,80.384 55.125,79.375 C56.188,80.455 57.286,81.634 56.714,83.259 C56.83,81.67 55.25,81.045 54.17,82.098 C53.705,82.223 52.768,82.464 52.304,82.58 z" fill="#346363" opacity="0.76"/>
  </g>
  <g id="#659c3fec">
    <path d="M40.161,80.848 C40.625,80.714 41.545,80.446 42.009,80.312 C42.179,80.804 42.536,81.777 42.714,82.268 C42.884,82.527 43.223,83.045 43.393,83.312 C43.688,83.768 44.268,84.679 44.562,85.134 C43.964,85.857 43.375,86.58 42.795,87.321 C42.277,86.187 41.759,85.054 41.304,83.893 C40.911,82.884 40.536,81.866 40.161,80.848 z" fill="#659C3F" opacity="0.93"/>
  </g>
  <g id="#46481468">
    <path d="M42.009,80.312 C42.375,80.304 43.125,80.277 43.5,80.268 C43.304,80.768 42.911,81.768 42.714,82.268 C42.536,81.777 42.179,80.804 42.009,80.312 z" fill="#464814" opacity="0.41"/>
  </g>
  <g id="#5f9b40ec">
    <path d="M54.17,82.098 C55.25,81.045 56.83,81.67 56.714,83.259 L56.438,83.955 C55.321,83.839 54.571,83.214 54.17,82.098 z" fill="#5F9B40" opacity="0.93"/>
  </g>
  <g id="#8b754bc2">
    <path d="M49.089,83.545 C49,80.696 52.741,82.598 49.83,83.696 L49.089,83.545 z" fill="#8B754B" opacity="0.76"/>
  </g>
  <g id="#12313767">
    <path d="M59.812,83.938 C60.786,83.946 61.625,84.295 62.339,84.991 L62.295,85.688 C61.125,86.348 59.732,85.17 59.812,83.938 z" fill="#123137" opacity="0.4"/>
  </g>
  <g id="#677543c7">
    <path d="M62.339,84.991 C63.286,85.196 64.241,85.411 65.196,85.625 C65.732,86.339 66.25,87.062 66.741,87.812 L67.17,88.446 C66.259,89.205 65.339,89.946 64.366,90.625 C64.188,90.036 63.839,88.866 63.661,88.277 L64.116,88.402 C63.491,87.509 62.866,86.616 62.295,85.688 L62.339,84.991 z" fill="#677543" opacity="0.78"/>
  </g>
  <g id="#45595bc2">
    <path d="M66.741,87.812 C66.973,86.312 68.688,86.17 69.875,86.009 C69.536,86.964 69.036,87.821 68.384,88.589 C68.08,88.554 67.473,88.482 67.17,88.446 L66.741,87.812 z" fill="#45595B" opacity="0.76"/>
  </g>
  <g id="#599540e5">
    <path d="M38.661,88.196 C38.741,88.107 38.92,87.937 39.009,87.857 C38.92,87.937 38.741,88.107 38.661,88.196 z" fill="#599540" opacity="0.9"/>
  </g>
  <g id="#14304979">
    <path d="M39.009,87.857 L39.348,87.545 C40.018,87.732 41.366,88.098 42.045,88.286 C41.018,89.634 39.964,90.955 38.911,92.277 C38.732,91.893 38.375,91.116 38.196,90.723 C37.714,91.152 36.759,92.018 36.277,92.446 C36.732,90.857 37.312,89.25 38.661,88.196 C38.741,88.107 38.92,87.938 39.009,87.857 z" fill="#143049" opacity="0.47"/>
  </g>
  <g id="#375278c1">
    <path d="M56.554,87.839 C56.955,87.821 57.768,87.795 58.179,87.786 C57.741,87.964 56.857,88.33 56.42,88.518 L56.554,87.839 z" fill="#375278" opacity="0.76"/>
  </g>
  <g id="#467849c7">
    <path d="M29.759,90.33 C30.125,90.33 30.875,90.321 31.241,90.312 C31.018,90.616 30.571,91.223 30.348,91.518 L29.804,91.107 L29.759,90.33 z" fill="#467849" opacity="0.78"/>
  </g>
  <g id="#04111a2a">
    <path d="M32.366,93.295 C33.17,92.804 34.018,92.402 34.911,92.089 C34.875,92.446 34.812,93.17 34.786,93.527 C34.491,93.875 33.902,94.571 33.616,94.92 C33.259,94.839 32.562,94.679 32.205,94.598 C32.25,94.277 32.33,93.625 32.366,93.295 z" fill="#04111A" opacity="0.16"/>
  </g>
  <g id="#c32e24ec">
    <path d="M70.589,91.866 C71.214,91.955 72.455,92.134 73.08,92.214 C73.473,94.946 71.286,96.295 69.268,97.464 C68.429,96.661 67.563,95.893 66.688,95.143 C67.536,94.795 68.384,94.438 69.241,94.098 C69.696,93.348 70.143,92.607 70.589,91.866 z" fill="#C32E24" opacity="0.93"/>
  </g>
  <defs/>
</svg>
