<?xml version="1.0" encoding="UTF-8"?>
<!DOCTYPE svg PUBLIC "-//W3C//DTD SVG 1.1//EN" "http://www.w3.org/Graphics/SVG/1.1/DTD/svg11.dtd">
<svg version="1.1" xmlns="http://www.w3.org/2000/svg" xmlns:xlink="http://www.w3.org/1999/xlink" x="0px" y="0px" width="201.786" height="100" viewBox="0, 0, 201.786, 100">
  <g id="#d42c27ff">
    <path d="M31.179,0 L32.411,0 C32.759,0.321 33.455,0.973 33.804,1.295 L32.768,1.455 L32.696,2.768 L32.661,3.554 C32.268,3.795 31.473,4.259 31.071,4.491 C30.804,3.964 30.259,2.911 29.991,2.384 C29.375,3.723 28.759,5.063 28.179,6.42 C27.902,6.107 27.366,5.491 27.089,5.179 C27.598,2.902 29.045,0.982 31.179,0 z" fill="#D42C27"/>
    <path d="M62.098,2.759 C62.491,2.857 63.268,3.045 63.661,3.143 C64.464,3.411 65.277,3.67 66.098,3.92 C66.902,3.616 67.714,3.321 68.527,3.018 C68.705,3.116 69.054,3.304 69.232,3.393 C69.482,4.205 69.723,5.018 69.938,5.839 C69.902,6.277 69.813,7.143 69.768,7.571 C69.179,7.268 67.982,6.652 67.393,6.348 C68.768,6.25 69,3.268 67.366,4.589 C67.241,4.955 66.973,5.696 66.839,6.063 C66.732,6.67 66.527,7.875 66.429,8.482 C65.857,8.491 64.723,8.5 64.152,8.5 L64.107,7.429 C63.625,7.321 62.661,7.107 62.17,7 L61.098,6.813 C60.661,6.741 59.795,6.589 59.357,6.518 L60.393,4.679 C60.947,4.036 61.518,3.384 62.098,2.759 z" fill="#D42C27"/>
    <path d="M38.518,18.973 C38.884,18.67 39.616,18.071 39.982,17.777 C40.241,19.411 39.313,20.75 38.321,21.929 L37.839,22.518 C37.071,22.375 35.536,22.08 34.768,21.929 C34.661,21.482 34.455,20.58 34.348,20.125 C34.991,20.027 36.268,19.83 36.902,19.732 C37.313,19.545 38.116,19.161 38.518,18.973 z" fill="#D42C27"/>
    <path d="M59.813,20.786 C60.607,19.688 61.411,18.589 62.277,17.545 C62.58,18.045 63.188,19.045 63.491,19.545 C62.322,20.33 61.179,21.152 60.018,21.955 C60.089,22.795 60.161,23.634 60.232,24.473 C59.643,24.67 58.455,25.071 57.866,25.277 L58.089,24.25 C58.268,23.732 58.616,22.688 58.795,22.161 C59.054,21.821 59.554,21.125 59.813,20.786 z" fill="#D42C27"/>
    <path d="M54.679,23.089 C54.214,21.875 54.527,20.92 55.616,20.232 C55.848,20.866 56.304,22.143 56.527,22.777 L56.125,23.464 C55.759,23.366 55.045,23.188 54.679,23.089 z" fill="#D42C27"/>
    <path d="M10.098,24.33 C10.509,24.375 11.339,24.464 11.759,24.509 C12.866,24.643 13.964,24.777 15.063,24.92 L14.036,26.161 C13.902,26.196 13.616,26.277 13.482,26.321 C13.634,26.634 13.929,27.268 14.08,27.589 C13.973,28.241 13.75,29.563 13.643,30.214 C12.884,30.33 11.357,30.563 10.598,30.679 C9.911,30.402 8.536,29.857 7.848,29.589 C8.063,29.071 8.5,28.036 8.723,27.518 C9.188,26.464 9.643,25.393 10.098,24.33 z" fill="#D42C27"/>
    <path d="M40.795,24.839 C45.357,24.813 49.929,24.866 54.491,24.795 C60.714,31.696 66.295,39.161 72.277,46.277 C77.384,39.821 82.732,33.571 87.875,27.143 C88.768,26.205 89.518,24.643 91.072,24.848 C95.268,24.759 99.473,24.866 103.67,24.857 C103.688,42.839 103.679,60.83 103.67,78.813 C98.643,78.83 93.616,78.947 88.589,78.741 C88.652,67.67 88.697,56.598 88.572,45.527 C82.545,51.723 77.848,59.08 71.902,65.357 C66.384,58.679 61.232,51.652 55.357,45.286 C55.17,56.447 55.286,67.616 55.304,78.786 C50.464,78.884 45.634,78.848 40.795,78.813 C40.75,60.822 40.741,42.83 40.795,24.839 z" fill="#D42C27"/>
    <path d="M61.339,26.018 C62.438,26.304 63.536,26.598 64.634,26.911 L65.366,27.321 C65.232,27.679 64.964,28.411 64.83,28.777 C64.527,29.545 64.232,30.313 63.947,31.08 C63.277,30.991 62.616,30.911 61.947,30.848 C61.589,30.411 60.866,29.527 60.5,29.08 C60.777,28.063 61.054,27.036 61.339,26.018 z" fill="#D42C27"/>
    <path d="M2.071,32.554 C2.411,31.161 2.866,29.795 3.286,28.42 L3.393,29.563 C3.527,31.018 4.277,31.473 5.643,30.929 L5.143,32.518 C5.027,32.714 4.786,33.089 4.661,33.286 C4.223,33.509 3.357,33.955 2.92,34.179 C2.705,33.768 2.286,32.955 2.071,32.554 z" fill="#D42C27"/>
    <path d="M37.554,30.018 C37.884,29.813 38.536,29.384 38.866,29.179 L39.268,29.67 C39.25,30.027 39.232,30.759 39.223,31.125 C38.804,30.848 37.973,30.295 37.554,30.018 z" fill="#D42C27"/>
    <path d="M73.589,33.304 C74.063,33.018 75.009,32.446 75.482,32.161 C75.607,32.786 75.866,34.036 75.991,34.661 C75.188,35.018 74.393,35.393 73.607,35.777 C74.911,36.223 76.223,36.652 77.536,37.08 C77.42,37.161 77.188,37.313 77.072,37.393 C75.455,37.366 73.848,37.089 72.464,36.214 C72.339,35.893 72.098,35.259 71.982,34.946 C72.259,34.625 72.813,34 73.089,33.679 L73.589,33.304 z" fill="#D42C27"/>
    <path d="M23.411,34.393 C24.884,35.482 26.446,36.438 28.152,37.116 C27.75,36.536 26.946,35.366 26.545,34.786 L26.929,34.527 L28.08,33.777 C28.339,33.982 28.857,34.411 29.125,34.625 C29.063,35.429 28.938,37.045 28.875,37.857 C27.634,37.929 26.393,38 25.143,38.009 L24,36.839 C22.563,36.911 21.134,37.125 19.714,37.33 L19.366,36.821 C19.536,36.089 19.857,34.634 20.018,33.902 C21.161,34.661 22.125,35.982 23.563,36.125 C23.527,35.696 23.446,34.83 23.411,34.393 z" fill="#D42C27"/>
    <path d="M22.089,40.634 C20.536,41.393 18.42,38.929 21.045,39.134 C21.304,39.509 21.83,40.259 22.089,40.634 z" fill="#D42C27"/>
    <path d="M20.143,44.116 L21.429,43.714 L21.634,43.723 C22.554,44.196 23.464,44.688 24.357,45.205 C24.375,45.893 24.402,47.277 24.411,47.964 C23.786,47.991 22.536,48.045 21.911,48.071 C21.08,46.848 20.402,45.536 19.866,44.161 C19.938,44.152 20.071,44.125 20.143,44.116 z" fill="#D42C27"/>
    <path d="M29.848,43.08 C30.054,43.179 30.455,43.384 30.661,43.482 C31.946,44.268 34.348,44.438 33.768,46.545 C32.991,47.393 32.411,48.402 32.152,49.527 L31.241,49.161 C30.804,49 29.929,48.679 29.491,48.518 C29.295,48.125 28.902,47.33 28.705,46.938 C28.857,46.536 29.161,45.741 29.313,45.348 L29.848,43.08 z" fill="#D42C27"/>
    <path d="M85.339,53.5 C85.768,53.214 86.616,52.634 87.036,52.339 C87,54.75 87,57.161 86.964,59.58 C86.348,59.598 85.107,59.643 84.491,59.67 C84.143,59.366 83.438,58.768 83.089,58.464 C84.143,57.759 85.197,57.045 86.241,56.322 C85.741,56.116 84.75,55.714 84.25,55.518 C84.518,55.018 85.063,54.009 85.339,53.5 z" fill="#D42C27"/>
    <path d="M21.705,56.107 C22.464,56.089 23.973,56.036 24.732,56.018 C25.205,56.107 26.134,56.286 26.607,56.384 C26.491,56.786 26.277,57.607 26.161,58.009 C25.911,58.536 25.393,59.572 25.143,60.089 C24.116,58.857 23.054,57.661 22.009,56.447 L21.705,56.107 z" fill="#D42C27"/>
    <path d="M5.464,60.911 C5.83,60.777 6.563,60.5 6.929,60.366 C7.259,60.518 7.911,60.822 8.241,60.982 C8.58,61.045 9.268,61.17 9.616,61.232 L9.625,62.339 C10,62.5 10.759,62.822 11.143,62.973 L11.268,63.027 C10.295,63.161 9.313,63.304 8.339,63.447 C9.036,64.491 10.821,65.402 9.973,66.866 C9.491,66.688 8.527,66.322 8.045,66.143 L6.67,66.259 C6.598,66.018 6.455,65.527 6.393,65.286 C6.188,64.67 5.795,63.455 5.598,62.848 C5.563,62.366 5.5,61.393 5.464,60.911 z" fill="#D42C27"/>
    <path d="M18.839,61.518 C19.527,61.045 20.214,60.572 20.911,60.098 L22.027,60.563 C21.518,62.018 21.009,63.518 21.205,65.089 C20.714,64.295 20.214,63.518 19.696,62.75 L18.839,61.518 z" fill="#D42C27"/>
    <path d="M27.438,60.67 C28.688,60.947 29.929,61.25 31.17,61.563 C30.804,62.536 30.455,63.509 30.125,64.491 C29.08,63.875 28.045,63.259 27.018,62.625 C27.125,62.134 27.33,61.161 27.438,60.67 z" fill="#D42C27"/>
    <path d="M81.545,65.893 C81.973,65.929 82.813,66 83.232,66.027 C83.125,66.67 82.902,67.955 82.795,68.598 C81.991,67.92 81.447,66.973 81.545,65.893 z" fill="#D42C27"/>
    <path d="M57.429,69.5 C57.911,68.572 58.411,67.652 58.92,66.732 C60.08,67.402 61.232,68.089 62.402,68.75 L60.902,68.589 C61.232,69.063 61.893,70.018 62.223,70.5 L60.089,71.098 C60.777,71.929 61.482,72.741 62.17,73.563 C62.857,74.205 63.527,74.866 64.179,75.545 C64.143,75.938 64.063,76.723 64.027,77.125 L62.973,76.5 C62.661,76.214 62.045,75.643 61.732,75.348 C60.589,73.223 59.518,71.063 58.366,68.938 C58.17,69.67 57.786,71.116 57.598,71.839 C57.545,71.063 57.491,70.286 57.429,69.5 z" fill="#D42C27"/>
    <path d="M78.375,66.652 L78.411,66.777 C79.438,67.455 80,68.411 80.098,69.625 C79.625,69.563 78.679,69.447 78.205,69.384 C78.25,68.705 78.33,67.339 78.375,66.652 z" fill="#D42C27"/>
    <path d="M2.491,68.875 C3.375,69.125 4.25,69.384 5.134,69.652 C5.482,69.857 6.196,70.259 6.545,70.455 C6.241,71.866 5.732,73.232 4.188,73.661 C3.482,72.116 2.955,70.5 2.491,68.875 z" fill="#D42C27"/>
    <path d="M15.964,70.5 C16.839,70.125 17.732,69.822 18.652,69.58 C18.393,70.643 18.071,71.688 17.67,72.705 L17.152,72.777 C16.857,72.205 16.259,71.063 15.964,70.5 z" fill="#D42C27"/>
    <path d="M58.357,77.554 C58.447,76.143 58.598,74.688 59.464,73.518 C59.947,75.045 60.339,76.598 60.643,78.179 C60.072,78.018 58.929,77.705 58.357,77.554 z" fill="#D42C27"/>
    <path d="M32.563,78.42 C33.071,77.884 34.098,76.83 34.607,76.295 C34.607,76.991 34.607,78.375 34.598,79.072 C34.973,79.009 35.723,78.884 36.089,78.822 C36.536,78.777 37.429,78.679 37.875,78.625 C38.205,78.768 38.875,79.045 39.205,79.179 L38.973,80.464 C38.786,81.58 38.634,82.714 38.5,83.839 C38.179,84 37.545,84.304 37.232,84.464 C36.911,84.545 36.268,84.723 35.946,84.813 C35.482,84.545 34.554,84.009 34.089,83.741 C33.304,83.259 32.536,82.768 31.768,82.268 C31.875,81.866 32.089,81.072 32.196,80.67 C32.33,79.92 32.455,79.17 32.563,78.42 z" fill="#D42C27"/>
    <path d="M66.714,81.482 C66.964,81.616 67.455,81.875 67.697,82 C67.768,82.447 67.902,83.357 67.973,83.804 C68.33,83.634 69.045,83.286 69.402,83.107 C70.875,84.205 70.598,85.572 69.67,86.893 C68.339,87.197 66.893,87.357 65.839,88.313 C65.75,88.054 65.572,87.545 65.482,87.295 C65.455,86.143 65.429,84.991 65.402,83.848 C65.839,83.063 66.277,82.268 66.714,81.482 z" fill="#D42C27"/>
    <path d="M41.304,84.545 C41.777,85.697 42.25,86.839 42.696,88.009 C42.5,88.241 42.107,88.705 41.902,88.938 C41.339,88.848 40.205,88.67 39.643,88.572 C40.143,87.214 40.723,85.875 41.304,84.545 z" fill="#D42C27"/>
    <path d="M70.67,93.054 L71.741,92.991 C71.991,92.973 72.491,92.929 72.741,92.911 C72.804,93.563 72.929,94.857 72.991,95.5 C71.759,96.393 70.527,97.277 69.295,98.152 C68.777,97.652 67.75,96.661 67.241,96.161 C68.366,95.107 69.482,94.045 70.67,93.054 z" fill="#D42C27"/>
    <path d="M28.991,95.027 L29.911,95.045 C30.25,95.58 30.929,96.652 31.268,97.188 C31.473,96.777 31.884,95.955 32.089,95.545 C32.688,95.732 33.875,96.089 34.473,96.268 L34.723,96.536 C34.813,97.143 35,98.357 35.098,98.964 C32.634,98.732 29.018,98.241 28.991,95.027 z" fill="#D42C27"/>
  </g>
  <g id="#69a542f9">
    <path d="M48.241,-0 L48.661,-0 C49.964,2.473 52.134,4.286 54.125,6.188 C53.518,6.607 52.304,7.455 51.697,7.875 C50.705,6.411 49.696,4.955 48.92,3.366 C48.688,2.42 48.491,1.455 48.313,0.5 L48.241,-0 z" fill="#69A542" opacity="0.98"/>
    <path d="M65.813,-0 L65.795,-0 L66.759,0.652 C66.563,1.741 66.339,2.839 66.098,3.92 C65.277,3.67 64.464,3.411 63.661,3.143 C64.848,2.446 65.616,1.384 65.813,-0 z" fill="#69A542" opacity="0.98"/>
    <path d="M31.071,4.491 C31.473,4.259 32.268,3.795 32.661,3.554 C33.063,3.821 33.866,4.339 34.259,4.607 L34.42,5.027 C33.625,5.839 32.393,6.286 31.33,5.732 C31.268,5.42 31.134,4.804 31.071,4.491 z" fill="#69A542" opacity="0.98"/>
    <path d="M39.384,12.598 C41.339,9.67 43.179,6.375 46.152,4.384 L47.563,4.107 C47.321,4.866 47.063,5.616 46.795,6.366 C46.438,6.848 45.732,7.813 45.375,8.295 C44.759,9.08 44.125,9.848 43.491,10.616 C43.188,10.982 42.58,11.714 42.277,12.08 C40.884,13.67 39.741,15.571 39.982,17.777 C39.616,18.071 38.884,18.67 38.518,18.973 C38.33,18.634 37.973,17.946 37.786,17.607 C38.134,16.152 38.607,14.732 39.098,13.321 L39.384,12.598 z" fill="#69A542" opacity="0.98"/>
    <path d="M33.071,7.75 C33.25,7.464 33.607,6.893 33.786,6.607 C35.071,9.777 36.634,12.83 38.027,15.955 L37.545,17.223 C36.25,15.688 34.339,14.268 34.5,12.027 C34.777,10.795 34.33,9.938 33.161,9.482 C33.134,9.045 33.098,8.179 33.071,7.75 z" fill="#69A542" opacity="0.98"/>
    <path d="M54.509,11.777 C55.098,11.366 56.286,10.527 56.884,10.107 C57.688,12 58.473,13.911 59.223,15.821 L58,16.357 C56.83,14.839 55.67,13.304 54.509,11.777 z" fill="#69A542" opacity="0.98"/>
    <path d="M13.955,14.482 C14.304,14.616 14.991,14.902 15.339,15.045 C15.482,15.527 15.759,16.5 15.902,16.982 C16.25,18.411 16.571,19.839 16.911,21.268 C16.071,21.696 15.259,22.179 14.464,22.679 C14.063,19.964 13.884,17.223 13.955,14.482 z" fill="#69A542" opacity="0.98"/>
    <path d="M28.054,15.313 L29.241,14.902 C31,15.339 32.714,15.92 34.313,16.786 L34.652,17.179 C35.33,18.089 36,19.027 36.902,19.732 C36.268,19.83 34.991,20.027 34.348,20.125 C34.286,19.786 34.152,19.107 34.089,18.759 C32.661,17.955 31.134,17.366 29.598,16.83 C29.214,16.446 28.438,15.688 28.054,15.313 z" fill="#69A542" opacity="0.98"/>
    <path d="M65.42,14.991 C65.964,14.929 67.054,14.795 67.598,14.723 C67.473,15.232 67.214,16.25 67.089,16.75 L68.92,16.67 C68.929,16.973 68.947,17.589 68.955,17.902 C67.027,18.045 65.125,18.482 63.491,19.545 C63.188,19.045 62.58,18.045 62.277,17.545 C63.268,16.625 64.33,15.795 65.42,14.991 z" fill="#69A542" opacity="0.98"/>
    <path d="M71.518,16.205 L72.259,15.018 L73.723,14.875 C77.259,14.768 80.786,14.804 84.322,14.839 L84.17,16.205 C83.688,16.321 82.723,16.563 82.25,16.688 C80.804,16.964 79.348,17.196 77.902,17.438 C77.732,17.214 77.393,16.777 77.214,16.563 L76.313,16.33 C74.661,16.509 73.027,16.813 71.366,16.804 C71.411,16.661 71.482,16.357 71.518,16.205 z" fill="#69A542" opacity="0.98"/>
    <path d="M75.964,17.455 C76.482,17.723 77.536,18.25 78.063,18.509 C78.17,19.705 78.25,20.902 78.33,22.098 C77.679,22.107 76.375,22.125 75.723,22.143 C75.643,20.875 75.58,19.616 75.518,18.357 L75.964,17.455 z" fill="#69A542" opacity="0.98"/>
    <path d="M56.527,22.777 C57.375,21.295 58.179,19.786 58.92,18.25 C59.098,18.741 59.464,19.714 59.643,20.196 L59.813,20.786 C59.554,21.125 59.054,21.821 58.795,22.161 C58.616,22.688 58.268,23.732 58.089,24.25 L57.866,25.277 L57.688,26.009 C57.17,25.161 56.661,24.304 56.125,23.464 L56.527,22.777 z" fill="#69A542" opacity="0.98"/>
    <path d="M34.768,21.929 C35.536,22.08 37.071,22.375 37.839,22.518 L37.795,23.143 C37.482,24.536 38,26.107 39.348,26.741 C39.33,27.473 39.286,28.938 39.268,29.67 L38.866,29.179 C37.795,27.134 36.795,25.036 35.464,23.134 C35.321,22.893 35.036,22.411 34.893,22.179 L34.768,21.929 z" fill="#69A542" opacity="0.98"/>
    <path d="M15.063,24.92 C15.821,24.277 16.625,23.688 17.464,23.152 C17.589,23.893 17.857,25.366 17.982,26.107 L18.036,26.402 C18.071,26.625 18.143,27.08 18.179,27.313 C16.795,26.929 15.42,26.527 14.036,26.161 L15.063,24.92 z" fill="#69A542" opacity="0.98"/>
    <path d="M75.33,24.804 C75.67,24.375 76.366,23.509 76.705,23.071 C77.009,23.393 77.598,24.027 77.893,24.348 L77.991,24.759 C77.947,25.33 77.875,26.455 77.839,27.018 C77.295,28.839 76.402,30.518 75.482,32.161 C75.009,32.446 74.063,33.018 73.589,33.304 C74.482,31.143 75.223,28.929 75.875,26.688 C75.009,26.705 73.268,26.741 72.393,26.759 C71.634,25.866 70.857,24.991 70.134,24.063 C71.857,24.366 73.589,24.607 75.33,24.804 z" fill="#69A542" opacity="0.98"/>
    <path d="M3.563,27.482 C5.946,29.134 8.089,31.33 10.991,32.009 C11.205,32.884 11.375,33.759 11.571,34.643 C9.768,33.143 7.67,32.089 5.643,30.929 C5.179,29.982 4.429,29.527 3.393,29.563 L3.286,28.42 L3.563,27.482 z" fill="#69A542" opacity="0.98"/>
    <path d="M16.902,29.536 C17.857,29.268 18.75,29.429 19.607,30.009 C19.357,30.304 18.857,30.902 18.607,31.196 L17.571,31.241 L16.839,30.839 L16.688,30.25 L16.902,29.536 z" fill="#69A542" opacity="0.98"/>
    <path d="M26.107,29.643 C27.821,30.839 29.759,31.643 31.696,32.42 C32.188,32.607 33.17,32.982 33.661,33.179 C33.696,32.75 33.786,31.902 33.83,31.482 C35.071,30.982 36.321,30.527 37.554,30.018 C37.973,30.295 38.804,30.848 39.223,31.125 L39.205,31.429 C37.304,31.804 35.482,32.464 33.804,33.42 C35.563,34.339 37.357,35.196 39.107,36.152 C39.116,36.384 39.116,36.839 39.116,37.063 C38.134,37.08 37.143,37.134 36.161,37.241 C33.402,35.554 30.563,34.009 27.688,32.527 C27.152,31.571 26.598,30.625 26.107,29.643 z" fill="#69A542" opacity="0.98"/>
    <path d="M78.955,33.527 C79.348,33.384 80.134,33.08 80.518,32.929 C79.643,34.393 78.634,35.777 77.536,37.08 C76.223,36.652 74.911,36.223 73.607,35.777 C74.393,35.393 75.188,35.018 75.991,34.661 C76.973,34.277 77.964,33.893 78.955,33.527 z" fill="#69A542" opacity="0.98"/>
    <path d="M26.598,34.339 L26.929,34.527 L26.545,34.786 L26.348,34.509 L26.598,34.339 z" fill="#69A542" opacity="0.98"/>
    <path d="M13.42,34.152 C14.813,34.75 16.25,35.25 17.688,35.723 C18.259,36.08 18.813,36.446 19.366,36.821 L19.714,37.33 L18.929,37.446 C17.491,37.286 16.054,37.08 14.625,36.902 C14.17,36.009 13.795,35.071 13.42,34.152 z" fill="#69A542" opacity="0.98"/>
    <path d="M12.554,37.991 C13.17,38.955 13.804,39.911 14.393,40.893 C13.33,41.58 12.268,42.268 11.17,42.902 L10.554,42.241 C11.482,41.616 12.429,40.991 13.375,40.384 L13.527,40.304 C13.286,39.723 12.804,38.563 12.554,37.991 z" fill="#69A542" opacity="0.98"/>
    <path d="M7.563,43.464 C7.768,43.277 8.161,42.902 8.357,42.705 C8.804,43.866 9.241,45.036 9.759,46.161 C7.536,47.777 5.429,49.527 3.179,51.098 C2.08,50.634 1.063,50.786 0.125,51.563 L0,51.625 L0,50.804 C2.884,48.75 5.348,46.214 7.563,43.464 z" fill="#69A542" opacity="0.98"/>
    <path d="M9.929,46.33 C10.375,45.893 11.268,45.027 11.705,44.598 C13.589,46.063 15.116,47.902 16.696,49.67 C18.393,51.741 20.384,53.554 22.795,54.741 C23.438,55.17 24.08,55.598 24.732,56.018 C23.973,56.036 22.464,56.089 21.705,56.107 C19.616,55.072 17.589,53.893 15.813,52.375 C15.634,52.179 15.268,51.795 15.08,51.598 C14.643,51.08 13.759,50.054 13.321,49.536 C12.286,48.366 11.107,47.348 9.929,46.33 z" fill="#69A542" opacity="0.98"/>
    <path d="M36.58,52.848 L37.089,52.857 L36.964,53.161 L36.705,53.152 L36.58,52.848 z" fill="#69A542" opacity="0.98"/>
    <path d="M16.527,59.634 C18.357,58.58 20.17,57.473 22.009,56.447 C23.054,57.661 24.116,58.857 25.143,60.089 C25.598,60.777 26.036,61.473 26.446,62.179 C25.688,62.188 24.17,62.197 23.411,62.197 C23.491,63.045 23.571,63.902 23.652,64.75 C23.036,64.83 21.813,65 21.205,65.089 C21.009,63.518 21.518,62.018 22.027,60.563 L20.911,60.098 C20.875,59.813 20.804,59.25 20.768,58.973 C19.786,59.688 18.839,60.447 17.982,61.322 C17.527,61.268 16.616,61.152 16.161,61.098 C16.446,61.875 16.723,62.652 17.009,63.438 C15.08,64.063 13.098,63.929 11.268,63.027 L11.143,62.973 C12.384,62.197 13.616,61.402 14.866,60.634 C15.277,60.384 16.116,59.884 16.527,59.634 z" fill="#69A542" opacity="0.98"/>
    <path d="M78.491,60.536 C80.545,60.786 82.616,60.607 84.491,59.67 C84.063,60.116 83.197,61 82.759,61.447 C80.875,62.018 78.938,63.232 76.92,62.491 C77.313,62 78.098,61.018 78.491,60.536 z" fill="#69A542" opacity="0.98"/>
    <path d="M57.786,62.822 C59.143,62.143 60.473,61.42 61.795,60.697 C62.875,62.286 64.598,63.554 66.572,63.67 C66.652,64.027 66.822,64.723 66.902,65.08 C66.509,65.759 66.25,66.491 66.134,67.277 C65.804,67.393 65.143,67.616 64.813,67.723 C65.098,67.054 65.661,65.732 65.947,65.063 C64.348,64.072 62.688,63.17 60.973,62.402 C59.911,62.554 58.848,62.688 57.786,62.822 z" fill="#69A542" opacity="0.98"/>
    <path d="M78.411,66.777 C79.679,64.991 81.429,63.697 83.313,62.634 C83.732,64.366 85.563,64.795 86.875,65.652 C86.893,66.098 86.92,66.973 86.938,67.42 C86.33,67.179 85.116,66.697 84.509,66.455 C84.214,66.188 83.634,65.643 83.339,65.366 C82.848,65.161 81.866,64.75 81.366,64.545 C81.411,64.875 81.5,65.554 81.545,65.893 C81.447,66.973 81.991,67.92 82.795,68.598 C82.982,68.83 83.348,69.286 83.536,69.509 C83.929,70.652 84.277,71.813 84.589,72.982 C85.313,76.661 86.188,80.357 86.089,84.134 L84.679,83.973 C84.375,83.17 84.089,82.357 83.83,81.536 C82.991,78.67 82.179,75.804 81.214,72.973 C80.83,71.857 80.447,70.75 80.098,69.625 C80,68.411 79.438,67.455 78.411,66.777 z" fill="#69A542" opacity="0.98"/>
    <path d="M8.045,66.143 C8.527,66.322 9.491,66.688 9.973,66.866 L9.321,67.223 C9,66.955 8.357,66.411 8.045,66.143 z" fill="#69A542" opacity="0.98"/>
    <path d="M20.75,66.893 C21.464,66.857 22.884,66.795 23.598,66.759 C23.473,67.357 23.214,68.545 23.089,69.143 C23.554,69.045 24.482,68.848 24.955,68.75 C23.205,69.259 20.848,69.411 20.83,71.786 C21.545,71.697 22.955,71.527 23.67,71.438 L22.714,72.268 L22.054,72.759 C20.277,72.875 18.5,72.848 16.714,72.822 L17.152,72.777 L17.67,72.705 C18.259,72.625 19.429,72.464 20.009,72.384 C20.33,70.563 20.536,68.723 20.75,66.893 z" fill="#69A542" opacity="0.98"/>
    <path d="M71.33,66.911 L72.089,67.152 C72.027,67.572 71.902,68.402 71.839,68.822 C71.705,68.339 71.455,67.384 71.33,66.911 z" fill="#69A542" opacity="0.98"/>
    <path d="M11.705,70.714 C14.179,69.661 16.705,68.723 19.205,67.723 C19.063,68.188 18.786,69.116 18.652,69.58 C17.732,69.822 16.839,70.125 15.964,70.5 C14.589,70.955 13.107,71.518 11.705,70.714 z" fill="#69A542" opacity="0.98"/>
    <path d="M60.902,68.589 L62.402,68.75 C64.402,69.625 66.518,70.223 68.723,69.991 L70.134,70.009 C69.313,70.982 68.429,71.902 67.509,72.786 C65.741,72.045 64,71.232 62.223,70.5 C61.893,70.018 61.232,69.063 60.902,68.589 z" fill="#69A542" opacity="0.98"/>
    <path d="M74.375,68.652 C74.589,69.625 74.804,70.589 75.018,71.554 C75.786,71.089 76.545,70.616 77.304,70.143 L77.973,69.714 C77.473,70.464 76.964,71.205 76.438,71.929 C75.67,72.348 74.902,72.759 74.134,73.152 L74,72.625 C73.411,72.518 72.223,72.322 71.634,72.223 C71.438,71.214 71.616,70.286 72.152,69.42 C72.705,69.223 73.822,68.848 74.375,68.652 z" fill="#69A542" opacity="0.98"/>
    <path d="M58.366,68.938 C59.518,71.063 60.589,73.223 61.732,75.348 C62.884,78.241 63.768,81.223 64.375,84.277 C62.947,83.848 61.5,83.455 60.089,83.009 C60.955,81.697 61.045,80.152 60.973,78.634 C60.884,78.518 60.723,78.295 60.643,78.179 C60.339,76.598 59.947,75.045 59.464,73.518 C58.598,74.688 58.447,76.143 58.357,77.554 C58.313,78.25 58.214,79.661 58.161,80.357 L57.197,80.536 C57.134,77.634 57.259,74.732 57.598,71.839 C57.786,71.116 58.17,69.67 58.366,68.938 z" fill="#69A542" opacity="0.98"/>
    <path d="M64.179,75.545 C65.259,75.107 66.429,75.491 67.482,75.813 C67.366,76.116 67.143,76.705 67.036,77 C66.286,77.036 64.777,77.089 64.027,77.125 C64.063,76.723 64.143,75.938 64.179,75.545 z" fill="#69A542" opacity="0.98"/>
    <path d="M29.045,80.625 C29.643,80.411 30.83,79.991 31.429,79.786 L32.196,80.67 C32.089,81.072 31.875,81.866 31.768,82.268 C30.938,82.759 30.107,83.223 29.259,83.679 C28.179,84.223 27.08,84.741 25.946,85.179 C22.295,86.018 18.625,86.875 14.875,87.214 C15,86.67 15.25,85.572 15.375,85.018 C16,84.866 17.232,84.563 17.857,84.411 C20.616,83.67 23.304,82.67 25.991,81.714 C27.009,81.348 28.027,80.982 29.045,80.625 z" fill="#69A542" opacity="0.98"/>
    <path d="M50.429,80.563 C51.777,80.536 53.116,80.527 54.455,80.527 C54.268,80.902 53.893,81.652 53.705,82.027 C54.634,81.857 55.572,81.679 56.5,81.509 C56.5,82.661 56.491,83.822 56.42,84.973 C55.089,84.179 53.75,83.384 52.447,82.536 C51.75,81.902 51.098,81.223 50.429,80.563 z" fill="#69A542" opacity="0.98"/>
    <path d="M40.036,81.482 C40.545,81.375 41.545,81.161 42.054,81.063 C42.25,81.563 42.652,82.58 42.848,83.08 C43.054,83.393 43.464,84.009 43.67,84.313 C43.902,84.679 44.357,85.411 44.589,85.777 L45.205,85.072 C44.366,86.045 43.527,87.018 42.696,88.009 C42.25,86.839 41.777,85.697 41.304,84.545 C40.884,83.518 40.464,82.5 40.036,81.482 z" fill="#69A542" opacity="0.98"/>
    <path d="M35.946,84.813 C36.268,84.723 36.911,84.545 37.232,84.464 C36.848,85.464 36.714,86.5 36.83,87.563 C36.902,88.295 37.063,89.759 37.143,90.482 C36.714,90.697 35.866,91.116 35.438,91.33 C34.455,91.732 33.857,92.67 33.455,93.616 L32.714,93.563 C33.071,92.438 33.411,91.313 33.741,90.188 C34.027,89.714 34.598,88.786 34.884,88.322 C35.214,87.143 35.554,85.964 35.946,84.813 z" fill="#69A542" opacity="0.98"/>
    <path d="M43.045,89.491 C43.839,89.652 44.625,89.804 45.42,89.955 C45.643,89.652 46.071,89.054 46.286,88.75 C47.929,91.277 49.473,93.875 50.768,96.598 C51.125,97.607 51.464,98.625 51.795,99.643 L51.572,100 L50.714,100 C48.58,97.152 46.134,94.545 44.205,91.554 C43.813,90.866 43.429,90.179 43.045,89.491 z" fill="#69A542" opacity="0.98"/>
    <path d="M29.536,90.679 C29.973,90.723 30.857,90.822 31.304,90.866 C31.25,91.277 31.152,92.107 31.107,92.518 C30.714,92.438 29.92,92.286 29.527,92.205 C29.527,91.822 29.536,91.063 29.536,90.679 z" fill="#69A542" opacity="0.98"/>
  </g>
  <g id="#1a64abff">
    <path d="M42.643,6.464 C44.482,4.429 46.429,2.491 48.313,0.5 C48.491,1.455 48.688,2.42 48.92,3.366 C47.991,3.688 47.063,4.027 46.152,4.384 C43.179,6.375 41.339,9.67 39.384,12.598 C39.571,12.054 39.946,10.973 40.134,10.429 C40.616,9.161 40.955,7.786 39.634,6.893 C37.607,5.08 35.018,4.125 32.696,2.768 L32.768,1.455 L33.804,1.295 C36.839,2.857 39.884,4.438 42.643,6.464 z" fill="#1A64AB"/>
    <path d="M66.759,0.652 C67.259,0.955 68.268,1.554 68.768,1.857 C68.884,2.241 69.116,3.009 69.232,3.393 C69.054,3.304 68.705,3.116 68.527,3.018 C67.714,3.321 66.902,3.616 66.098,3.92 C66.339,2.839 66.563,1.741 66.759,0.652 z" fill="#1A64AB"/>
    <path d="M29.991,2.384 C30.259,2.911 30.804,3.964 31.071,4.491 C31.134,4.804 31.268,5.42 31.33,5.732 C31.554,6.679 31.67,7.848 33.071,7.75 C33.098,8.179 33.134,9.045 33.161,9.482 C32.911,10.777 33.357,11.625 34.5,12.027 C34.339,14.268 36.25,15.688 37.545,17.223 L38.027,15.955 C38.384,15.08 38.741,14.205 39.098,13.321 C38.607,14.732 38.134,16.152 37.786,17.607 C36.759,17.339 35.714,17.196 34.652,17.179 L34.313,16.786 C33.866,16.232 33.446,15.661 33.036,15.08 C32.268,12.205 31.161,9.42 29.893,6.723 C29.866,7.063 29.804,7.723 29.777,8.054 C29.527,10.33 29.42,12.616 29.241,14.902 L28.054,15.313 C28.438,15.688 29.214,16.446 29.598,16.83 C31.098,17.973 32.714,18.946 34.25,20.054 C32.58,19.938 30.92,19.795 29.259,19.643 C29.277,20.357 29.313,21.795 29.33,22.518 C28.768,22.482 27.643,22.411 27.08,22.375 C26.33,17.018 26.786,11.634 28.179,6.42 C28.759,5.063 29.375,3.723 29.991,2.384 z" fill="#1A64AB"/>
    <path d="M47.563,4.107 C48.848,5.429 50.054,6.821 51.268,8.205 C50.697,8.661 50.125,9.125 49.572,9.598 C48.652,8.509 47.732,7.429 46.795,6.366 C47.063,5.616 47.321,4.866 47.563,4.107 z" fill="#1A64AB"/>
    <path d="M67.366,4.589 C69,3.268 68.768,6.25 67.393,6.348 L66.839,6.063 C66.973,5.696 67.241,4.955 67.366,4.589 z" fill="#1A64AB"/>
    <path d="M48.482,13.705 C51.875,10.991 55.063,7.732 59.357,6.518 C59.795,6.589 60.661,6.741 61.098,6.813 C59.67,7.893 58.313,9.054 56.884,10.107 C56.286,10.527 55.098,11.366 54.509,11.777 C55.089,13.455 55.732,15.107 56.25,16.804 C55.875,16.955 55.134,17.259 54.759,17.411 C54.268,16.036 53.723,14.679 53.152,13.33 C51.58,14.384 50.054,15.518 48.563,16.696 L48.536,16.286 C48.527,15.643 48.491,14.348 48.482,13.705 z" fill="#1A64AB"/>
    <path d="M69.768,7.571 C69.813,7.143 69.902,6.277 69.938,5.839 C71.42,8.759 72.714,11.768 73.723,14.875 L72.259,15.018 L71.518,16.205 C71.17,14.688 70.741,13.188 70.286,11.696 C70.045,10.33 69.839,8.955 69.768,7.571 z" fill="#1A64AB"/>
    <path d="M43.491,10.616 C44.125,9.848 44.759,9.08 45.375,8.295 L44.857,9.018 C45.679,9.875 46.527,10.696 47.366,11.527 C46.946,11.911 46.098,12.67 45.679,13.054 C44.946,12.241 44.214,11.429 43.491,10.616 z" fill="#1A64AB"/>
    <path d="M64.152,8.5 C64.723,8.5 65.857,8.491 66.429,8.482 C65.875,9.321 65.205,10.071 64.545,10.83 L65.455,10.679 C65.438,12.116 65.384,13.554 65.42,14.991 C64.33,15.795 63.268,16.625 62.277,17.545 C61.411,18.589 60.607,19.688 59.813,20.786 L59.643,20.196 C61.063,16.268 62.598,12.384 64.152,8.5 z" fill="#1A64AB"/>
    <path d="M15.339,15.045 C16.991,15.25 18.679,15.482 20.33,15.143 C20.768,15.054 21.652,14.893 22.098,14.813 C22.946,15.393 23.786,16 24.625,16.598 C24.634,17.982 24.652,19.366 24.67,20.75 C24.411,20.929 23.884,21.268 23.625,21.446 C24.741,23.277 25.063,25.42 25.527,27.482 C25.67,28.018 25.964,29.098 26.107,29.643 C26.598,30.625 27.152,31.571 27.688,32.527 L28.08,33.777 L26.929,34.527 L26.598,34.339 L26.348,34.509 L26.545,34.786 C26.946,35.366 27.75,36.536 28.152,37.116 C26.446,36.438 24.884,35.482 23.411,34.393 C22.58,33.714 21.634,33.277 20.571,33.098 C20.429,33.304 20.161,33.705 20.018,33.902 L19.223,35.107 C18.438,34.536 17.652,33.973 16.857,33.42 C17.036,32.875 17.393,31.786 17.571,31.241 L18.607,31.196 C19.679,31.723 20.732,32.554 21.991,32.5 C22.366,32.509 23.107,32.518 23.482,32.518 C23.652,32.5 23.982,32.455 24.152,32.438 L25.25,32.125 C24.946,31.625 24.339,30.634 24.036,30.134 C24.813,26.339 20.438,26.884 18.036,26.402 L17.982,26.107 L17.795,24.866 C19.509,24.893 21.223,24.929 22.929,24.973 C22.866,24.429 22.723,23.348 22.661,22.804 C22.58,22.241 22.438,21.125 22.357,20.563 C22.277,19.955 22.116,18.741 22.036,18.134 C20,17.723 17.946,17.339 15.902,16.982 C15.759,16.5 15.482,15.527 15.339,15.045 z" fill="#1A64AB"/>
    <path d="M77.214,16.563 C77.393,16.777 77.732,17.214 77.902,17.438 C77.947,17.705 78.018,18.241 78.063,18.509 C77.536,18.25 76.482,17.723 75.964,17.455 L75.518,18.357 C75.107,18.643 74.268,19.223 73.848,19.518 C73.795,20.402 73.741,21.295 73.697,22.188 C74.205,22.179 75.223,22.152 75.723,22.143 C76.375,22.125 77.679,22.107 78.33,22.098 C79.054,22.098 80.5,22.089 81.223,22.089 C81.563,20.295 81.911,18.491 82.25,16.688 C82.723,16.563 83.688,16.321 84.17,16.205 C83.991,18.295 83.866,20.402 83.723,22.5 C85.161,23.054 86.589,23.607 88.027,24.152 C87.714,24.42 87.098,24.964 86.786,25.232 C83.866,24.616 80.884,24.393 77.893,24.348 C77.598,24.027 77.009,23.393 76.705,23.071 C76.366,23.509 75.67,24.375 75.33,24.804 C73.589,24.607 71.857,24.366 70.134,24.063 L70.223,22.946 C71.054,22.777 71.884,22.616 72.723,22.464 C72.643,21.848 72.482,20.607 72.402,19.991 C71.67,19.491 70.205,18.482 69.473,17.982 C72.018,17.339 74.616,16.946 77.214,16.563 z" fill="#1A64AB"/>
    <path d="M55.197,19.705 C56.116,19.098 56.893,18.339 57.536,17.438 C57.83,17.5 58.411,17.634 58.705,17.696 L58.92,18.25 C58.179,19.786 57.375,21.295 56.527,22.777 C56.304,22.143 55.848,20.866 55.616,20.232 L55.197,19.705 z" fill="#1A64AB"/>
    <path d="M63.491,19.545 C65.125,18.482 67.027,18.045 68.955,17.902 C69.036,18.232 69.197,18.902 69.277,19.232 L69.402,19.714 C67.589,20.214 65.768,20.67 63.938,21.116 C63.813,21.58 63.563,22.518 63.438,22.991 C62.83,23.688 62.232,24.393 61.634,25.098 L61.339,26.018 C61.054,27.036 60.777,28.063 60.5,29.08 C60.304,28.839 59.893,28.357 59.697,28.116 C59.884,27.661 60.277,26.75 60.473,26.295 C60.411,25.839 60.295,24.929 60.232,24.473 C60.161,23.634 60.089,22.795 60.018,21.955 C61.179,21.152 62.322,20.33 63.491,19.545 z" fill="#1A64AB"/>
    <path d="M37.839,22.518 L38.321,21.929 C38.723,22.241 39.536,22.848 39.946,23.161 L39.259,23.446 C38.893,23.366 38.161,23.214 37.795,23.143 L37.839,22.518 z" fill="#1A64AB"/>
    <path d="M31.696,32.42 C32.339,28.884 33.295,25.402 34.893,22.179 C35.036,22.411 35.321,22.893 35.464,23.134 C34.598,25.848 33.946,28.625 33.83,31.482 C33.786,31.902 33.696,32.75 33.661,33.179 C33.17,32.982 32.188,32.607 31.696,32.42 z" fill="#1A64AB"/>
    <path d="M174.152,25.098 C182.723,22.625 191.724,24.884 199.875,27.83 C199.947,32.036 199.938,36.241 199.893,40.446 C194.402,36.455 187.322,34.08 180.59,36.063 C173.259,37.723 168.143,45.223 168.598,52.616 C168.688,60.759 175.715,68.268 183.965,68.366 C189.822,68.714 195.313,66.188 200.134,63.116 C200.206,67.089 200.206,71.072 200.125,75.045 C193.161,79.33 184.679,79.929 176.723,79.098 C168.572,78.25 161.429,72.447 158.116,65.072 C154.848,56.83 154.75,47.411 157.768,39.08 C160.598,32.188 166.813,26.679 174.152,25.098 z" fill="#1A64AB"/>
    <path d="M3.563,27.482 C4.348,25.027 7.036,27.482 8.723,27.518 C8.5,28.036 8.063,29.071 7.848,29.589 C8.536,29.857 9.911,30.402 10.598,30.679 L10.991,32.009 C8.089,31.33 5.946,29.134 3.563,27.482 z" fill="#1A64AB"/>
    <path d="M80.197,27.33 C81.277,27.473 82.348,27.616 83.429,27.75 C82.616,28.554 82.045,29.518 81.714,30.634 C81.348,31.42 80.964,32.188 80.518,32.929 C80.134,33.08 79.348,33.384 78.955,33.527 C79.357,31.464 79.777,29.393 80.197,27.33 z" fill="#1A64AB"/>
    <path d="M3.393,29.563 C4.429,29.527 5.179,29.982 5.643,30.929 C4.277,31.473 3.527,31.018 3.393,29.563 z" fill="#1A64AB"/>
    <path d="M13.643,30.214 C14.652,29.839 15.67,29.848 16.688,30.25 L16.839,30.839 C16.214,30.955 14.973,31.188 14.348,31.304 C14.17,31.036 13.813,30.491 13.643,30.214 z" fill="#1A64AB"/>
    <path d="M4.661,33.286 C4.786,33.089 5.027,32.714 5.143,32.518 C7.313,33.982 9.643,35.196 11.955,36.42 C12.134,36.955 12.33,37.473 12.554,37.991 C12.804,38.563 13.286,39.723 13.527,40.304 L13.375,40.384 C12.473,40.286 10.679,40.098 9.777,40 C10.071,39.009 10.366,38.027 10.652,37.036 C8.688,36.063 6.848,34.714 4.688,34.188 C4.643,34.429 4.563,34.902 4.518,35.143 C6.214,37.759 8.571,39.848 10.554,42.241 L11.17,42.902 C12.268,42.268 13.33,41.58 14.393,40.893 C14.679,41.384 15.259,42.357 15.545,42.848 C14.759,43.563 13.964,44.277 13.179,45 C13.83,45.848 14.473,46.705 15.125,47.554 C15.938,46.946 16.741,46.339 17.554,45.732 C17.902,46.152 18.589,46.991 18.938,47.411 C18.179,48.152 17.429,48.902 16.696,49.67 C15.116,47.902 13.589,46.063 11.705,44.598 C11.268,45.027 10.375,45.893 9.929,46.33 L9.759,46.161 C9.241,45.036 8.804,43.866 8.357,42.705 C8.161,42.902 7.768,43.277 7.563,43.464 C5.527,40.634 4.295,37.357 2.92,34.179 C3.357,33.955 4.223,33.509 4.661,33.286 z" fill="#1A64AB"/>
    <path d="M64.464,33.348 C64.938,33.321 65.875,33.277 66.339,33.25 C67.518,33.313 68.679,33.446 69.848,33.554 C70.929,33.643 72.009,33.688 73.089,33.679 C72.813,34 72.259,34.625 71.982,34.946 C71.339,34.911 70.054,34.857 69.411,34.83 C68.884,34.821 67.822,34.821 67.295,34.813 C66.732,34.777 65.607,34.688 65.045,34.652 C64.902,34.321 64.607,33.67 64.464,33.348 z" fill="#1A64AB"/>
    <path d="M29.125,34.625 C29.393,34.723 29.938,34.911 30.205,35.009 C29.652,35.821 29.589,36.714 30.018,37.696 C30.027,38.071 30.045,38.821 30.063,39.196 C30.179,40.634 30.42,42.054 30.661,43.482 C30.455,43.384 30.054,43.179 29.848,43.08 C29.411,42.063 28.991,41.045 28.589,40.009 C28.643,39.625 28.75,38.848 28.813,38.464 C28.83,38.313 28.857,38.009 28.875,37.857 C28.938,37.045 29.063,35.429 29.125,34.625 z" fill="#1A64AB"/>
    <path d="M19.714,37.33 C21.134,37.125 22.563,36.911 24,36.839 L25.143,38.009 C23.759,38.313 22.402,38.714 21.045,39.134 C18.42,38.929 20.536,41.393 22.089,40.634 L22.455,40.955 C22.821,41.723 22.866,42.571 22.946,43.402 C22.366,42.929 21.214,41.973 20.634,41.5 C20.83,42.054 21.223,43.161 21.429,43.714 L20.143,44.116 L19.83,44.063 C18.643,42.759 17.554,41.375 16.598,39.893 C16.705,39.491 16.92,38.67 17.027,38.268 C17.5,38.063 18.455,37.652 18.929,37.446 L19.714,37.33 M18.152,40.973 C18.366,43.938 20.821,39.661 18.152,40.973 z" fill="#1A64AB"/>
    <path d="M36.161,37.241 C37.143,37.134 38.134,37.08 39.116,37.063 C39.116,37.58 39.116,38.607 39.116,39.125 C37.384,38.875 35.473,38.554 33.866,39.464 L34.196,37.839 C34.688,37.688 35.67,37.393 36.161,37.241 z" fill="#1A64AB"/>
    <path d="M67.902,36.214 L69.598,36.375 C70.313,36.33 71.741,36.259 72.464,36.214 C73.848,37.089 75.455,37.366 77.072,37.393 C76.741,37.616 76.089,38.054 75.759,38.268 C75.366,38.384 74.572,38.616 74.179,38.732 C73.714,38.955 72.795,39.402 72.33,39.634 C72.259,39.125 72.107,38.116 72.027,37.616 C71.241,37.634 69.67,37.67 68.884,37.688 C68.634,37.313 68.143,36.58 67.902,36.214 z" fill="#1A64AB"/>
    <path d="M21.634,43.723 C22.67,43.759 23.741,43.705 24.741,44.009 C26.223,44.571 27.688,45.313 29.313,45.348 C29.161,45.741 28.857,46.536 28.705,46.938 C27.277,46.348 25.848,45.777 24.402,45.232 L24.357,45.205 C23.464,44.688 22.554,44.196 21.634,43.723 z" fill="#1A64AB"/>
    <path d="M32.152,49.527 C32.411,48.402 32.991,47.393 33.768,46.545 C34.205,47.821 34.75,49.179 34.357,50.536 C33.571,50.33 32.83,49.991 32.152,49.527 z" fill="#1A64AB"/>
    <path d="M29.491,48.518 C29.929,48.679 30.804,49 31.241,49.161 C30.884,49.348 30.17,49.714 29.813,49.902 C28.321,51.009 26.964,52.259 25.545,53.447 C26.259,54.589 26.982,55.732 27.705,56.866 C27.321,57.152 26.545,57.723 26.161,58.009 C26.277,57.607 26.491,56.786 26.607,56.384 C25.839,55.661 25.161,54.857 24.571,53.982 L24.821,52.839 C25.929,51.563 27.107,50.339 28.313,49.161 L29.027,48.759 C29.143,48.696 29.375,48.58 29.491,48.518 z" fill="#1A64AB"/>
    <path d="M8.955,54.857 C10.375,53.054 11.848,51.295 13.321,49.536 C13.759,50.054 14.643,51.08 15.08,51.598 C13.634,52.964 12.196,54.33 10.813,55.759 C12.536,57.304 14.571,58.438 16.527,59.634 C16.116,59.884 15.277,60.384 14.866,60.634 C13.661,60.143 12.455,59.661 11.259,59.179 C10.875,59.027 10.116,58.714 9.741,58.563 C8.821,59.107 8.321,59.92 8.241,60.982 C7.911,60.822 7.259,60.518 6.929,60.366 C7.17,59.813 7.652,58.697 7.893,58.143 C5.313,55.947 2.839,53.598 0.125,51.563 C1.063,50.786 2.08,50.634 3.179,51.098 C5.071,52.411 7.009,53.643 8.955,54.857 z" fill="#1A64AB"/>
    <path d="M79.866,58.822 C80.83,58.089 81.973,58.054 83.089,58.464 C83.438,58.768 84.143,59.366 84.491,59.67 C82.616,60.607 80.545,60.786 78.491,60.536 C78.83,60.107 79.518,59.25 79.866,58.822 z" fill="#1A64AB"/>
    <path d="M58.982,59.25 C60.018,59.679 61.045,60.107 62.08,60.536 L61.795,60.697 C60.473,61.42 59.143,62.143 57.786,62.822 L57.268,62.902 L57.455,61.857 C57.947,60.973 58.455,60.107 58.982,59.25 z" fill="#1A64AB"/>
    <path d="M83.313,62.634 C84.545,61.83 85.759,61.018 86.947,60.152 C86.911,61.982 86.884,63.822 86.875,65.652 C85.563,64.795 83.732,64.366 83.313,62.634 z" fill="#1A64AB"/>
    <path d="M8.339,63.447 C9.313,63.304 10.295,63.161 11.268,63.027 C13.098,63.929 15.08,64.063 17.009,63.438 C17.679,63.268 19.027,62.92 19.696,62.75 C20.214,63.518 20.714,64.295 21.205,65.089 C21.813,65 23.036,64.83 23.652,64.75 C24.232,64.661 25.393,64.491 25.973,64.402 C26.911,64.964 30.696,64.893 28.911,66.464 C28.223,66.545 26.866,66.697 26.179,66.777 C25.321,66.741 24.455,66.714 23.598,66.759 C22.884,66.795 21.464,66.857 20.75,66.893 C20.536,68.723 20.33,70.563 20.009,72.384 C19.429,72.464 18.259,72.625 17.67,72.705 C18.071,71.688 18.393,70.643 18.652,69.58 C18.786,69.116 19.063,68.188 19.205,67.723 C19.321,67.348 19.563,66.589 19.688,66.214 C18.946,66.554 18.214,66.902 17.491,67.268 C17.17,65.348 14.464,66.232 15.071,67.973 C14.589,68.161 13.625,68.527 13.143,68.705 C12.839,68.268 12.25,67.384 11.946,66.938 L11.714,67.697 C10.25,68.063 8.786,68.42 7.313,68.741 C7.152,68.125 6.83,66.884 6.67,66.259 L8.045,66.143 C8.357,66.411 9,66.955 9.321,67.223 L9.973,66.866 C10.821,65.402 9.036,64.491 8.339,63.447 z" fill="#1A64AB"/>
    <path d="M73.509,66.259 C74.205,65.509 74.893,64.759 75.572,64 C75.857,64.866 76.42,66.598 76.705,67.473 L76.393,68.17 C76.616,68.661 77.072,69.652 77.304,70.143 C76.545,70.616 75.786,71.089 75.018,71.554 C74.804,70.589 74.589,69.625 74.375,68.652 C74.161,68.054 73.723,66.857 73.509,66.259 z" fill="#1A64AB"/>
    <path d="M81.366,64.545 C81.866,64.75 82.848,65.161 83.339,65.366 L83.232,66.027 C82.813,66 81.973,65.929 81.545,65.893 C81.5,65.554 81.411,64.875 81.366,64.545 z" fill="#1A64AB"/>
    <path d="M66.134,67.277 C66.25,66.491 66.509,65.759 66.902,65.08 L67.357,65.063 C67.839,65.357 68.795,65.938 69.277,66.223 L70.08,66.473 C70.393,66.58 71.018,66.804 71.33,66.911 C71.455,67.384 71.705,68.339 71.839,68.822 L72.152,69.42 C71.616,70.286 71.438,71.214 71.634,72.223 C71.973,75.286 71.964,78.375 72,81.464 C71.384,81.232 70.17,80.786 69.554,80.554 C69.5,81.402 69.447,82.259 69.402,83.107 C69.045,83.286 68.33,83.634 67.973,83.804 C67.902,83.357 67.768,82.447 67.697,82 C67.661,81.384 67.598,80.143 67.572,79.527 C66.42,78.679 65.232,77.893 64.027,77.125 C64.777,77.089 66.286,77.036 67.036,77 C67.143,76.705 67.366,76.116 67.482,75.813 C67.491,74.804 67.5,73.795 67.509,72.786 C68.429,71.902 69.313,70.982 70.134,70.009 L68.723,69.991 C68.911,69.107 69.295,67.322 69.491,66.429 C68.652,66.643 66.973,67.072 66.134,67.277 z" fill="#1A64AB"/>
    <path d="M29.321,68.509 C32.411,68.518 35.455,67.92 38.214,66.491 C38.009,67.339 37.75,68.179 37.482,69.018 C36.643,69.214 34.973,69.607 34.143,69.804 C33.92,69.813 33.473,69.822 33.25,69.83 C31.946,69.268 28.33,71.045 31.25,71.643 C31.786,71.527 32.866,71.304 33.402,71.188 C33.759,71.447 34.473,71.964 34.83,72.223 C34.134,72.375 32.732,72.661 32.036,72.804 C30.786,73.518 30.491,74.58 31.17,75.964 C31.982,75.875 33.598,75.697 34.411,75.598 L34.616,75.92 L34.607,76.295 C34.098,76.83 33.071,77.884 32.563,78.42 C30.973,76.188 30.143,73.572 29.643,70.911 C29.027,70.902 27.795,70.884 27.17,70.875 C27.179,71.348 27.179,72.295 27.188,72.759 C25.473,72.75 23.759,72.714 22.054,72.759 L22.714,72.268 C24.054,72.205 25.393,72.17 26.732,72.134 C26.714,71.777 26.67,71.054 26.652,70.697 C25.661,70.938 24.661,71.179 23.67,71.438 C22.955,71.527 21.545,71.697 20.83,71.786 C20.848,69.411 23.205,69.259 24.955,68.75 C25.554,68.616 26.75,68.339 27.357,68.205 C27.929,68.75 28.509,69.277 29.098,69.795 L29.321,68.509 z" fill="#1A64AB"/>
    <path d="M77.973,69.714 L78.205,69.384 C78.679,69.447 79.625,69.563 80.098,69.625 C80.447,70.75 80.83,71.857 81.214,72.973 C79.616,72.652 78.018,72.313 76.438,71.929 C76.964,71.205 77.473,70.464 77.973,69.714 z" fill="#1A64AB"/>
    <path d="M83.536,69.509 C84.393,69.536 86.107,69.598 86.964,69.634 C86.964,70.304 86.947,71.643 86.938,72.313 C86.357,72.482 85.179,72.813 84.589,72.982 C84.277,71.813 83.929,70.652 83.536,69.509 z" fill="#1A64AB"/>
    <path d="M36.089,78.822 C36.92,76.214 38.071,73.714 39.134,71.188 C39.143,73.366 39.152,75.536 39.161,77.705 C38.839,77.938 38.196,78.402 37.875,78.625 C37.429,78.679 36.536,78.777 36.089,78.822 z" fill="#1A64AB"/>
    <path d="M25.241,74.697 C26.143,74.518 27.063,74.402 27.982,74.277 C28.179,74.893 28.571,76.143 28.768,76.759 C28.893,78.045 28.982,79.33 29.045,80.625 C28.027,80.982 27.009,81.348 25.991,81.714 C25.946,79.464 26.777,76.947 25.67,74.875 L25.241,74.697 z" fill="#1A64AB"/>
    <path d="M15.982,76.036 C16.795,75.982 18.411,75.884 19.223,75.83 C18.777,78.688 18.286,81.545 17.857,84.411 C17.232,84.563 16,84.866 15.375,85.018 C15.768,82.036 15.83,79.036 15.982,76.036 z" fill="#1A64AB"/>
    <path d="M61.732,75.348 C62.045,75.643 62.661,76.214 62.973,76.5 C63.286,77.125 63.92,78.366 64.232,78.982 L64.348,79.25 C64.67,80.429 65.464,81.17 66.714,81.482 C66.277,82.268 65.839,83.063 65.402,83.848 C65.429,84.991 65.455,86.143 65.482,87.295 L64.563,86.098 C64.152,86.179 63.313,86.322 62.902,86.402 C62.322,84.804 60.536,84.25 59,84.375 C59.697,85.732 61.036,86.518 62.491,86.839 C64.563,87.598 65.964,89.152 65.964,91.447 C64.947,90.893 64.179,90.045 63.455,89.161 C62.161,88.438 60.839,87.75 59.491,87.134 L58.75,87.768 C57.991,88.411 57.17,88.964 56.295,89.438 C56.732,89.795 57.17,90.152 57.607,90.509 C55.572,93.5 53.697,96.58 51.795,99.643 C51.464,98.625 51.125,97.607 50.768,96.598 C52.089,93.839 53.518,91.134 54.786,88.348 C55.33,87.223 55.911,86.116 56.42,84.973 C56.491,83.822 56.5,82.661 56.5,81.509 C55.572,81.679 54.634,81.857 53.705,82.027 C53.893,81.652 54.268,80.902 54.455,80.527 C55.143,80.527 56.509,80.536 57.197,80.536 L58.161,80.357 C58.411,79.723 58.893,78.447 59.134,77.813 C59.991,79.42 60.054,81.223 60.089,83.009 C61.5,83.455 62.947,83.848 64.375,84.277 C63.768,81.223 62.884,78.241 61.732,75.348 z" fill="#1A64AB"/>
    <path d="M75.107,79.259 C78.027,79.991 80.929,80.777 83.83,81.536 C84.089,82.357 84.375,83.17 84.679,83.973 C81.482,83.625 78.286,83.241 75.098,82.804 C75.17,81.616 75.179,80.438 75.107,79.259 z" fill="#1A64AB"/>
    <path d="M48.67,80.589 C49.107,80.58 49.991,80.572 50.429,80.563 C51.098,81.223 51.75,81.902 52.447,82.536 C52.295,84 52.205,85.473 52.259,86.947 C51.58,85.822 51.268,83.572 49.455,84.143 C48.232,85.563 47.33,87.205 46.286,88.75 C46.071,89.054 45.643,89.652 45.42,89.955 C44.625,89.804 43.839,89.652 43.045,89.491 C43.429,90.179 43.813,90.866 44.205,91.554 C41.821,93.188 39.464,94.884 37.348,96.884 C36.804,96.027 36.268,95.161 35.732,94.304 L35.134,95.482 C35.25,94.098 35.304,92.705 35.438,91.33 C35.866,91.116 36.714,90.697 37.143,90.482 C36.973,91.179 36.634,92.554 36.464,93.241 L37.616,91.277 C37.955,91.857 38.304,92.438 38.643,93.027 C39.696,91.634 40.777,90.268 41.902,88.938 C42.107,88.705 42.5,88.241 42.696,88.009 C43.527,87.018 44.366,86.045 45.205,85.072 C46.464,83.661 47.625,82.161 48.67,80.589 z" fill="#1A64AB"/>
    <path d="M38.884,84.188 C39.17,83.509 39.75,82.161 40.036,81.482 C40.464,82.5 40.884,83.518 41.304,84.545 C40.723,85.875 40.143,87.214 39.643,88.572 C39.554,89.348 39.375,90.893 39.286,91.661 C38.696,90.92 38.107,90.179 37.509,89.438 C37.42,89.697 37.232,90.223 37.143,90.482 C37.063,89.759 36.902,88.295 36.83,87.563 C38.188,86.938 38.866,85.643 38.884,84.188 z" fill="#1A64AB"/>
    <path d="M25.946,85.179 C27.08,84.741 28.179,84.223 29.259,83.679 C29.438,86.009 29.616,88.339 29.536,90.679 C29.536,91.063 29.527,91.822 29.527,92.205 C29.607,92.911 29.75,94.322 29.83,95.027 C27.652,92.152 27.143,88.491 25.946,85.179 z" fill="#1A64AB"/>
    <path d="M34.089,83.741 C34.554,84.009 35.482,84.545 35.946,84.813 C35.554,85.964 35.214,87.143 34.884,88.322 C34.598,88.786 34.027,89.714 33.741,90.188 C33.411,91.313 33.071,92.438 32.714,93.563 C32.554,94.063 32.241,95.054 32.089,95.545 C31.884,95.955 31.473,96.777 31.268,97.188 C30.929,96.652 30.25,95.58 29.911,95.045 C30.259,95.045 30.964,95.036 31.321,95.036 C31.268,94.402 31.161,93.143 31.107,92.518 C31.152,92.107 31.25,91.277 31.304,90.866 C32.196,88.482 33.071,86.08 34.089,83.741 z" fill="#1A64AB"/>
    <path d="M65.839,88.313 C66.893,87.357 68.339,87.197 69.67,86.893 C69.295,87.732 68.866,88.527 68.357,89.295 C67.143,89.697 66.304,89.366 65.839,88.313 z" fill="#1A64AB"/>
  </g>
  <g id="#fbbd1bff">
    <path d="M27.089,5.179 C27.366,5.491 27.902,6.107 28.179,6.42 C26.786,11.634 26.33,17.018 27.08,22.375 C26.795,24.134 26.696,26.018 25.527,27.482 C25.063,25.42 24.741,23.277 23.625,21.446 C23.884,21.268 24.411,20.929 24.67,20.75 C24.652,19.366 24.634,17.982 24.625,16.598 C23.786,16 22.946,15.393 22.098,14.813 C21.652,14.893 20.768,15.054 20.33,15.143 C21.652,14.83 22.973,14.509 24.304,14.259 C25.304,11.259 26.179,8.214 27.089,5.179 z" fill="#FBBD1B"/>
    <path d="M34.42,5.027 C36.188,5.554 37.938,6.152 39.634,6.893 C40.955,7.786 40.616,9.161 40.134,10.429 C38.161,8.723 35.563,7.5 34.42,5.027 z" fill="#FBBD1B"/>
    <path d="M54.125,6.188 C56.17,5.536 58.295,5.17 60.393,4.679 L59.357,6.518 C55.063,7.732 51.875,10.991 48.482,13.705 C48.491,14.348 48.527,15.643 48.536,16.286 C46.188,15.321 44.152,13.786 42.277,12.08 C42.58,11.714 43.188,10.982 43.491,10.616 C44.214,11.429 44.946,12.241 45.679,13.054 C46.098,12.67 46.946,11.911 47.366,11.527 C48.098,10.875 48.83,10.232 49.572,9.598 C50.125,9.125 50.697,8.661 51.268,8.205 C51.375,8.125 51.589,7.955 51.697,7.875 C52.304,7.455 53.518,6.607 54.125,6.188 z" fill="#FBBD1B"/>
    <path d="M66.429,8.482 C66.527,7.875 66.732,6.67 66.839,6.063 C67.947,7.964 69.116,9.83 70.286,11.696 C70.741,13.188 71.17,14.688 71.518,16.205 C71.482,16.357 71.411,16.661 71.366,16.804 C70.554,16.795 69.741,16.741 68.929,16.652 C68.893,14.482 68.491,12.348 67.786,10.304 C67.205,10.402 66.045,10.58 65.455,10.679 L64.545,10.83 C65.205,10.071 65.875,9.321 66.429,8.482 z" fill="#FBBD1B"/>
    <path d="M29.893,6.723 C31.161,9.42 32.268,12.205 33.036,15.08 C31.759,12.839 30.795,10.429 29.777,8.054 C29.804,7.723 29.866,7.063 29.893,6.723 z" fill="#FBBD1B"/>
    <path d="M62.17,7 C62.661,7.107 63.625,7.321 64.107,7.429 L64.152,8.5 C62.598,12.384 61.063,16.268 59.643,20.196 C59.464,19.714 59.098,18.741 58.92,18.25 L58.705,17.696 C58.527,17.366 58.179,16.696 58,16.357 L59.223,15.821 C59.429,15.714 59.839,15.509 60.045,15.402 C60.777,12.607 61.447,9.795 62.17,7 z" fill="#FBBD1B"/>
    <path d="M54.759,17.411 C55.134,17.259 55.875,16.955 56.25,16.804 C56.572,16.964 57.214,17.277 57.536,17.438 C56.893,18.339 56.116,19.098 55.197,19.705 C54.768,19.027 54.616,18.259 54.759,17.411 z" fill="#FBBD1B"/>
    <path d="M69.277,19.232 C69.322,18.92 69.42,18.295 69.473,17.982 C70.205,18.482 71.67,19.491 72.402,19.991 C72.482,20.607 72.643,21.848 72.723,22.464 C71.884,22.616 71.054,22.777 70.223,22.946 C70,21.857 69.723,20.777 69.402,19.714 L69.277,19.232 z" fill="#FBBD1B"/>
    <path d="M16.911,21.268 C18.723,20.982 20.545,20.786 22.357,20.563 C22.438,21.125 22.58,22.241 22.661,22.804 C20.929,22.911 19.188,23 17.464,23.152 C16.625,23.688 15.821,24.277 15.063,24.92 C13.964,24.777 12.866,24.643 11.759,24.509 C12.652,23.884 13.554,23.277 14.464,22.679 C15.259,22.179 16.071,21.696 16.911,21.268 z" fill="#FBBD1B"/>
    <path d="M58.089,24.25 C58.268,23.732 58.616,22.688 58.795,22.161 C58.616,22.688 58.268,23.732 58.089,24.25 z" fill="#FBBD1B"/>
    <path d="M61.634,25.098 C62.232,24.393 62.83,23.688 63.438,22.991 C63.813,24.304 64.214,25.616 64.634,26.911 C63.536,26.598 62.438,26.304 61.339,26.018 L61.634,25.098 z" fill="#FBBD1B"/>
    <path d="M77.991,24.759 C80.893,24.473 83.822,24.768 86.607,25.652 C86.143,26.214 85.214,27.321 84.75,27.884 C84.42,27.848 83.759,27.777 83.429,27.75 C82.348,27.616 81.277,27.473 80.197,27.33 C79.607,27.25 78.429,27.098 77.839,27.018 C77.875,26.455 77.947,25.33 77.991,24.759 z" fill="#FBBD1B"/>
    <path d="M111.884,24.973 C116.893,24.696 121.92,24.884 126.938,24.848 C126.982,38.991 126.884,53.134 126.991,67.268 C135.473,67.223 143.956,67.268 152.438,67.241 C152.438,71.107 152.438,74.973 152.438,78.839 C138.964,78.866 125.491,78.786 112.018,78.884 C111.795,60.911 112.063,42.946 111.884,24.973 z" fill="#FBBD1B"/>
    <path d="M13.482,26.321 C13.616,26.277 13.902,26.196 14.036,26.161 C15.42,26.527 16.795,26.929 18.179,27.313 C19.723,28.857 21.866,29.884 24.036,30.134 C24.339,30.634 24.946,31.625 25.25,32.125 L24.152,32.438 C23.982,32.455 23.652,32.5 23.482,32.518 C23.107,32.518 22.366,32.509 21.991,32.5 C22.321,31.036 20.714,30.357 19.607,30.009 C18.75,29.429 17.857,29.268 16.902,29.536 C15.973,28.857 15.009,28.25 14.08,27.589 C13.929,27.268 13.634,26.634 13.482,26.321 z" fill="#FBBD1B"/>
    <path d="M58.714,26.875 C59.152,26.732 60.027,26.438 60.473,26.295 C60.277,26.75 59.884,27.661 59.697,28.116 C59.447,27.813 58.955,27.188 58.714,26.875 z" fill="#FBBD1B"/>
    <path d="M63.947,31.08 C64.232,30.313 64.527,29.545 64.83,28.777 C64.786,29.134 64.688,29.848 64.634,30.196 C66.295,31.438 67.893,32.804 69.848,33.554 C68.679,33.446 67.518,33.313 66.339,33.25 C65.991,32.161 65.188,31.438 63.947,31.08 z" fill="#FBBD1B"/>
    <path d="M10.598,30.679 C11.357,30.563 12.884,30.33 13.643,30.214 C13.813,30.491 14.17,31.036 14.348,31.304 C15,32.205 15.929,32.83 16.857,33.42 C17.652,33.973 18.438,34.536 19.223,35.107 L20.018,33.902 C19.857,34.634 19.536,36.089 19.366,36.821 C18.813,36.446 18.259,36.08 17.688,35.723 C16.071,34.563 14.446,33.402 12.759,32.33 C12.964,32.938 13.179,33.554 13.42,34.152 C13.795,35.071 14.17,36.009 14.625,36.902 C15.277,37.902 15.929,38.902 16.598,39.893 C17.554,41.375 18.643,42.759 19.83,44.063 L19.866,44.161 C20.402,45.536 21.08,46.848 21.911,48.071 C22.313,50.232 23.313,52.197 24.571,53.982 C25.161,54.857 25.839,55.661 26.607,56.384 C26.134,56.286 25.205,56.107 24.732,56.018 C24.08,55.598 23.438,55.17 22.795,54.741 C21.402,52.545 20.732,50.045 20.589,47.464 C20.179,47.446 19.348,47.429 18.938,47.411 C18.589,46.991 17.902,46.152 17.554,45.732 C16.839,44.804 16.17,43.839 15.545,42.848 C15.259,42.357 14.679,41.384 14.393,40.893 C13.804,39.911 13.17,38.955 12.554,37.991 C12.33,37.473 12.134,36.955 11.955,36.42 L11.571,34.643 C11.375,33.759 11.205,32.884 10.991,32.009 L10.598,30.679 z" fill="#FBBD1B"/>
    <path d="M27.688,32.527 C30.563,34.009 33.402,35.554 36.161,37.241 C35.67,37.393 34.688,37.688 34.196,37.839 L34.411,36.795 C32.955,37.589 31.509,38.393 30.063,39.196 C30.045,38.821 30.027,38.071 30.018,37.696 C32.036,37.554 32.545,35.107 30.205,35.009 C29.938,34.911 29.393,34.723 29.125,34.625 C28.857,34.411 28.339,33.982 28.08,33.777 L27.688,32.527 z" fill="#FBBD1B"/>
    <path d="M67.295,34.813 C67.822,34.821 68.884,34.821 69.411,34.83 C69.455,35.214 69.545,35.991 69.598,36.375 L67.902,36.214 C68.143,36.58 68.634,37.313 68.884,37.688 C69,38.25 69.232,39.384 69.339,39.955 C68.741,39.17 68.277,38.286 67.795,37.429 C67.67,36.777 67.42,35.473 67.295,34.813 z" fill="#FBBD1B"/>
    <path d="M72.027,37.616 C72.107,38.116 72.259,39.125 72.33,39.634 C72.795,39.402 73.714,38.955 74.179,38.732 C74.036,39.277 73.759,40.375 73.616,40.92 C73.063,41.723 72.473,42.491 71.866,43.259 C71.902,42.848 71.964,42.036 72,41.634 C72.152,40.295 72.143,38.946 72.027,37.616 z" fill="#FBBD1B"/>
    <path d="M23.58,43.268 C25.161,41.5 26.884,39.848 28.813,38.464 C28.75,38.848 28.643,39.625 28.589,40.009 C27.33,41.357 26.018,42.67 24.741,44.009 C23.741,43.705 22.67,43.759 21.634,43.723 L21.429,43.714 C21.223,43.161 20.83,42.054 20.634,41.5 C21.214,41.973 22.366,42.929 22.946,43.402 C22.866,42.571 22.821,41.723 22.455,40.955 C22.83,40.634 23.58,40 23.946,39.679 C23.857,40.58 23.67,42.375 23.58,43.268 z" fill="#FBBD1B"/>
    <path d="M33.866,39.464 C35.473,38.554 37.384,38.875 39.116,39.125 L39.116,39.384 C38.009,39.679 36.911,39.955 35.804,40.223 C35.286,40.33 34.259,40.554 33.741,40.661 C33.768,40.366 33.839,39.768 33.866,39.464 z" fill="#FBBD1B"/>
    <path d="M24.357,45.205 L24.402,45.232 C24.964,47.384 27.304,47.875 29.027,48.759 L28.313,49.161 C27.009,48.786 25.723,48.33 24.411,47.964 C24.402,47.277 24.375,45.893 24.357,45.205 z" fill="#FBBD1B"/>
    <path d="M29.813,49.902 C30.17,49.714 30.884,49.348 31.241,49.161 L32.152,49.527 C32.83,49.991 33.571,50.33 34.357,50.536 C35.964,50.982 37.58,51.393 39.17,51.893 L39.214,52.518 C38.679,52.598 37.625,52.768 37.089,52.857 L36.58,52.848 L35.464,52.33 C33.607,51.447 31.688,50.714 29.813,49.902 z" fill="#FBBD1B"/>
    <path d="M85.098,52.866 C84.714,51.179 87.473,50.054 87.036,52.339 C86.616,52.634 85.768,53.214 85.339,53.5 L85.098,52.866 z" fill="#FBBD1B"/>
    <path d="M15.08,51.598 C15.268,51.795 15.634,52.179 15.813,52.375 C14.75,53.929 13.661,55.473 12.554,57 C12.116,56.688 11.25,56.072 10.813,55.759 C12.196,54.33 13.634,52.964 15.08,51.598 z" fill="#FBBD1B"/>
    <path d="M79.866,58.822 C80.884,57.661 81.955,56.527 82.866,55.259 C83.205,55.322 83.902,55.455 84.25,55.518 C84.75,55.714 85.741,56.116 86.241,56.322 C85.197,57.045 84.143,57.759 83.089,58.464 C81.973,58.054 80.83,58.089 79.866,58.822 z" fill="#FBBD1B"/>
    <path d="M57.429,57.938 C57.598,58.232 57.955,58.83 58.134,59.125 C59.241,59.143 60.348,59.143 61.447,59.134 L61.232,58.518 C62.83,59.509 64.473,60.447 66.098,61.393 C66.563,61.839 67.018,62.295 67.482,62.741 C67.259,62.973 66.795,63.438 66.572,63.67 C66.205,61.652 63.652,61.33 62.08,60.536 C61.045,60.107 60.018,59.679 58.982,59.25 C58.455,60.107 57.947,60.973 57.455,61.857 C57.509,61.42 57.634,60.554 57.697,60.125 C57.625,59.572 57.491,58.482 57.429,57.938 z" fill="#FBBD1B"/>
    <path d="M8.241,60.982 C8.321,59.92 8.821,59.107 9.741,58.563 C10.116,58.714 10.875,59.027 11.259,59.179 C10.848,59.688 10.027,60.714 9.616,61.232 C9.268,61.17 8.58,61.045 8.241,60.982 z" fill="#FBBD1B"/>
    <path d="M84.491,59.67 C85.107,59.643 86.348,59.598 86.964,59.58 L86.947,60.152 C85.759,61.018 84.545,61.83 83.313,62.634 C81.429,63.697 79.679,64.991 78.411,66.777 L78.375,66.652 C78.223,66.179 77.92,65.232 77.768,64.759 C77.411,65.661 77.143,66.598 76.705,67.473 C76.42,66.598 75.857,64.866 75.572,64 C76.027,63.5 76.473,62.991 76.92,62.491 C78.938,63.232 80.875,62.018 82.759,61.447 C83.197,61 84.063,60.116 84.491,59.67 z" fill="#FBBD1B"/>
    <path d="M27.018,62.625 C28.045,63.259 29.08,63.875 30.125,64.491 C29.83,65.83 29.571,67.17 29.321,68.509 L29.098,69.795 C28.509,69.277 27.929,68.75 27.357,68.205 C27.063,67.848 26.473,67.134 26.179,66.777 C26.866,66.697 28.223,66.545 28.911,66.464 C30.696,64.893 26.911,64.964 25.973,64.402 C26.348,63.822 26.688,63.232 27.018,62.625 z" fill="#FBBD1B"/>
    <path d="M5.598,62.848 C5.795,63.455 6.188,64.67 6.393,65.286 C6,65.786 5.232,66.804 4.848,67.313 C5.607,67.777 6.357,68.241 7.098,68.714 L5.134,69.652 C4.25,69.384 3.375,69.125 2.491,68.875 C4.438,67.455 4.875,64.991 5.598,62.848 z" fill="#FBBD1B"/>
    <path d="M67.357,65.063 C67.848,64.83 68.822,64.375 69.304,64.143 C69.295,64.661 69.286,65.705 69.277,66.223 C68.795,65.938 67.839,65.357 67.357,65.063 z" fill="#FBBD1B"/>
    <path d="M17.491,67.268 C18.214,66.902 18.946,66.554 19.688,66.214 C19.563,66.589 19.321,67.348 19.205,67.723 C16.705,68.723 14.179,69.661 11.705,70.714 C9.839,71.277 7.955,71.768 6.116,72.402 C9.482,73.732 13.196,72.714 16.714,72.822 C18.5,72.848 20.277,72.875 22.054,72.759 C23.759,72.714 25.473,72.75 27.188,72.759 C27.179,72.295 27.179,71.348 27.17,70.875 C27.795,70.884 29.027,70.902 29.643,70.911 C30.143,73.572 30.973,76.188 32.563,78.42 C32.455,79.17 32.33,79.92 32.196,80.67 L31.429,79.786 C30.527,78.786 29.589,77.822 28.768,76.759 C28.571,76.143 28.179,74.893 27.982,74.277 C27.063,74.402 26.143,74.518 25.241,74.697 C23.232,75.045 21.241,75.5 19.223,75.83 C18.411,75.884 16.795,75.982 15.982,76.036 C12.036,75.295 8.196,74.009 4.188,73.661 C5.732,73.232 6.241,71.866 6.545,70.455 C8.42,70.313 10.223,69.768 11.991,69.152 L11.714,67.697 L11.946,66.938 C12.25,67.384 12.839,68.268 13.143,68.705 C13.625,68.527 14.589,68.161 15.071,67.973 C15.67,67.795 16.884,67.447 17.491,67.268 z" fill="#FBBD1B"/>
    <path d="M38.455,68.723 C38.589,68.679 38.839,68.589 38.973,68.545 L39.125,68.5 C39.125,69.17 39.125,70.518 39.134,71.188 C38.071,73.714 36.92,76.214 36.089,78.822 C35.723,78.884 34.973,79.009 34.598,79.072 C34.607,78.375 34.607,76.991 34.607,76.295 L34.616,75.92 L34.411,75.598 C33.777,74.545 33.063,73.518 32.036,72.804 C32.732,72.661 34.134,72.375 34.83,72.223 C34.473,71.964 33.759,71.447 33.402,71.188 C33.357,70.848 33.286,70.17 33.25,69.83 C33.473,69.822 33.92,69.813 34.143,69.804 C34.768,71.375 35.304,72.991 35.929,74.563 C36.786,72.625 37.571,70.652 38.455,68.723 z" fill="#FBBD1B"/>
    <path d="M71.634,72.223 C72.223,72.322 73.411,72.518 74,72.625 L74.134,73.152 C74.527,75.179 74.822,77.214 75.107,79.259 C75.179,80.438 75.17,81.616 75.098,82.804 C74.348,86.179 73.973,89.661 72.741,92.911 C72.491,92.929 71.991,92.973 71.741,92.991 C72.572,89.197 71.982,85.304 72,81.464 C71.964,78.375 71.973,75.286 71.634,72.223 z" fill="#FBBD1B"/>
    <path d="M37.875,78.625 C38.196,78.402 38.839,77.938 39.161,77.705 C39.17,78.08 39.196,78.813 39.205,79.179 C38.875,79.045 38.205,78.768 37.875,78.625 z" fill="#FBBD1B"/>
    <path d="M64.232,78.982 C64.304,79.063 64.438,79.205 64.509,79.286 L64.348,79.25 L64.232,78.982 z" fill="#FBBD1B"/>
    <path d="M38.973,80.464 C40.929,80.509 42.875,80.554 44.83,80.58 C44.438,81.822 44.036,83.063 43.67,84.313 C43.464,84.009 43.054,83.393 42.848,83.08 C43.018,82.563 43.348,81.527 43.509,81.009 C43.152,81.018 42.42,81.045 42.054,81.063 C41.545,81.161 40.545,81.375 40.036,81.482 C39.75,82.161 39.17,83.509 38.884,84.188 L38.5,83.839 C38.634,82.714 38.786,81.58 38.973,80.464 z" fill="#FBBD1B"/>
    <path d="M52.447,82.536 C53.75,83.384 55.089,84.179 56.42,84.973 C55.911,86.116 55.33,87.223 54.786,88.348 L54.402,87.625 C53.714,87.688 53.036,87.75 52.348,87.822 C52.33,87.607 52.286,87.17 52.259,86.947 C52.205,85.473 52.295,84 52.447,82.536 z" fill="#FBBD1B"/>
    <path d="M62.902,86.402 C63.313,86.322 64.152,86.179 64.563,86.098 L65.482,87.295 C65.572,87.545 65.75,88.054 65.839,88.313 C66.304,89.366 67.143,89.697 68.357,89.295 C69.098,90.563 69.848,91.83 70.67,93.054 C69.482,94.045 68.366,95.107 67.241,96.161 C63.83,94.643 60.482,92.92 57.607,90.509 C57.17,90.152 56.732,89.795 56.295,89.438 C57.17,88.964 57.991,88.411 58.75,87.768 C62.08,90.054 64.018,94.42 68.197,95.268 C67.697,94.107 67.179,92.955 66.554,91.857 L65.964,91.447 C65.964,89.152 64.563,87.598 62.491,86.839 L62.902,86.402 z" fill="#FBBD1B"/>
  </g>
  <g id="#0f0e0ddb">
    <path d="M33.161,9.482 C34.33,9.938 34.777,10.795 34.5,12.027 C33.357,11.625 32.911,10.777 33.161,9.482 z" fill="#0F0E0D" opacity="0.86"/>
    <path d="M174.545,23.018 C183.741,20.634 193.125,23.411 201.741,26.625 C201.75,32.339 201.777,38.054 201.732,43.768 C197.179,41.223 192.929,37.473 187.491,37.143 C182.161,36.455 176.688,38.741 173.331,42.893 C169.482,48.196 169.581,55.947 173.5,61.188 C176.268,64.482 180.465,66.598 184.813,66.509 C191.09,66.455 196.893,63.402 201.786,59.679 L201.786,76.25 C193.25,81.188 182.679,82.688 173.134,80.179 C166.634,78.589 161.063,74.045 157.741,68.295 C152.429,58.393 152.25,45.839 157.348,35.813 C160.768,29.214 167.375,24.67 174.545,23.018 M174.152,25.098 C166.813,26.679 160.598,32.188 157.768,39.08 C154.75,47.411 154.848,56.83 158.116,65.072 C161.429,72.447 168.572,78.25 176.723,79.098 C184.679,79.929 193.161,79.33 200.125,75.045 C200.206,71.072 200.206,67.089 200.134,63.116 C195.313,66.188 189.822,68.714 183.965,68.366 C175.715,68.268 168.688,60.759 168.598,52.616 C168.143,45.223 173.259,37.723 180.59,36.063 C187.322,34.08 194.402,36.455 199.893,40.446 C199.938,36.241 199.947,32.036 199.875,27.83 C191.723,24.884 182.723,22.625 174.152,25.098 z" fill="#0F0E0D" opacity="0.86"/>
    <path d="M39.259,23.446 L39.946,23.161 C44.839,22.777 49.777,22.866 54.679,23.089 C55.045,23.188 55.759,23.366 56.125,23.464 C56.661,24.304 57.17,25.161 57.688,26.009 L57.866,25.277 C58.455,25.071 59.643,24.67 60.232,24.473 C60.295,24.929 60.411,25.839 60.473,26.295 C60.027,26.438 59.152,26.732 58.714,26.875 C58.955,27.188 59.447,27.813 59.697,28.116 C59.893,28.357 60.304,28.839 60.5,29.08 C60.866,29.527 61.589,30.411 61.947,30.848 C62.688,31.777 63.491,32.661 64.464,33.348 C64.607,33.67 64.902,34.321 65.045,34.652 C65.438,35.955 66.33,37.268 67.795,37.429 C68.277,38.286 68.741,39.17 69.339,39.955 C70.063,40.759 70.947,41.321 72,41.634 C71.964,42.036 71.902,42.848 71.866,43.259 C72.473,42.491 73.063,41.723 73.616,40.92 C74.911,40.705 75.563,39.446 75.759,38.268 C76.089,38.054 76.741,37.616 77.072,37.393 C77.188,37.313 77.42,37.161 77.536,37.08 C78.634,35.777 79.643,34.393 80.518,32.929 C80.964,32.188 81.348,31.42 81.714,30.634 C83.455,31.589 84.018,28.929 84.75,27.884 C85.214,27.321 86.143,26.214 86.607,25.652 C83.822,24.768 80.893,24.473 77.991,24.759 L77.893,24.348 C80.884,24.393 83.866,24.616 86.786,25.232 C87.098,24.964 87.714,24.42 88.027,24.152 C88.822,23.259 89.884,22.813 91.089,22.938 C95.902,22.875 100.714,22.982 105.518,22.964 C105.527,42.17 105.545,61.366 105.509,80.563 C99.331,80.58 93.143,80.598 86.955,80.554 C86.938,77.804 86.911,75.054 86.938,72.313 C86.947,71.643 86.964,70.304 86.964,69.634 C86.955,69.08 86.938,67.973 86.938,67.42 C86.92,66.973 86.893,66.098 86.875,65.652 C86.884,63.822 86.911,61.982 86.947,60.152 L86.964,59.58 C87,57.161 87,54.75 87.036,52.339 C87.473,50.054 84.714,51.179 85.098,52.866 C83.732,52.732 83.232,54.241 82.866,55.259 C81.955,56.527 80.884,57.661 79.866,58.822 C79.518,59.25 78.83,60.107 78.491,60.536 C78.098,61.018 77.313,62 76.92,62.491 C76.473,62.991 76.027,63.5 75.572,64 C74.893,64.759 74.205,65.509 73.509,66.259 C73.152,66.482 72.438,66.929 72.089,67.152 L71.33,66.911 C71.018,66.804 70.393,66.58 70.08,66.473 L69.277,66.223 C69.286,65.705 69.295,64.661 69.304,64.143 C68.822,64.375 67.848,64.83 67.357,65.063 L66.902,65.08 C66.822,64.723 66.652,64.027 66.572,63.67 C66.795,63.438 67.259,62.973 67.482,62.741 C67.018,62.295 66.563,61.839 66.098,61.393 C63.393,57.5 60.313,53.884 57.25,50.268 C57.179,52.822 57.072,55.393 57.429,57.938 C57.491,58.482 57.625,59.572 57.697,60.125 C57.634,60.554 57.509,61.42 57.455,61.857 L57.268,62.902 C57.098,65.098 57.232,67.313 57.429,69.5 C57.491,70.286 57.545,71.063 57.598,71.839 C57.259,74.732 57.134,77.634 57.197,80.536 C56.509,80.536 55.143,80.527 54.455,80.527 C53.116,80.527 51.777,80.536 50.429,80.563 C49.991,80.572 49.107,80.58 48.67,80.589 C47.384,80.589 46.107,80.589 44.83,80.58 C42.875,80.554 40.929,80.509 38.973,80.464 L39.205,79.179 C39.196,78.813 39.17,78.08 39.161,77.705 C39.152,75.536 39.143,73.366 39.134,71.188 C39.125,70.518 39.125,69.17 39.125,68.5 L38.973,68.545 C39.241,64.205 39.116,59.857 39.116,55.518 C38.134,55.08 37.152,54.652 36.196,54.17 C36.018,53.714 35.652,52.786 35.464,52.33 L36.58,52.848 L36.705,53.152 L36.964,53.161 L37.089,52.857 C37.625,52.768 38.679,52.598 39.214,52.518 L39.17,51.893 C39.045,47.723 39.152,43.554 39.116,39.384 L39.116,39.125 C39.116,38.607 39.116,37.58 39.116,37.063 C39.116,36.839 39.116,36.384 39.107,36.152 C39.116,34.58 39.152,33.009 39.205,31.429 L39.223,31.125 C39.232,30.759 39.25,30.027 39.268,29.67 C39.286,28.938 39.33,27.473 39.348,26.741 C39.679,25.607 39.652,24.509 39.259,23.446 M40.795,24.839 C40.741,42.83 40.75,60.822 40.795,78.813 C45.634,78.848 50.464,78.884 55.304,78.786 C55.286,67.616 55.17,56.447 55.357,45.286 C61.232,51.652 66.384,58.679 71.902,65.357 C77.848,59.08 82.545,51.723 88.572,45.527 C88.697,56.598 88.652,67.67 88.589,78.741 C93.616,78.947 98.643,78.83 103.67,78.813 C103.679,60.83 103.688,42.839 103.67,24.857 C99.473,24.866 95.268,24.759 91.072,24.848 C89.518,24.643 88.768,26.205 87.875,27.143 C82.732,33.571 77.384,39.821 72.277,46.277 C66.295,39.161 60.714,31.696 54.491,24.795 C49.929,24.866 45.357,24.813 40.795,24.839 z" fill="#0F0E0D" opacity="0.86"/>
    <path d="M109.973,23.063 C116.179,22.821 122.402,22.991 128.616,22.964 C128.661,37.063 128.661,51.17 128.607,65.268 C137.134,65.429 145.661,65.152 154.179,65.42 C154.134,70.42 154.107,75.42 154.197,80.42 C139.473,80.75 124.732,80.545 110,80.518 C110,61.366 110.063,42.214 109.973,23.063 M111.884,24.973 C112.063,42.946 111.795,60.911 112.018,78.884 C125.491,78.786 138.964,78.866 152.438,78.839 C152.438,74.973 152.438,71.107 152.438,67.241 C143.956,67.268 135.473,67.223 126.991,67.268 C126.884,53.134 126.982,38.991 126.938,24.848 C121.92,24.884 116.893,24.696 111.884,24.973 z" fill="#0F0E0D" opacity="0.86"/>
    <path d="M14.348,31.304 C14.973,31.188 16.214,30.955 16.839,30.839 L17.571,31.241 C17.393,31.786 17.036,32.875 16.857,33.42 C15.929,32.83 15,32.205 14.348,31.304 z" fill="#0F0E0D" opacity="0.86"/>
    <path d="M23.482,32.518 C23.652,32.5 23.982,32.455 24.152,32.438 C23.982,32.455 23.652,32.5 23.482,32.518 z" fill="#0F0E0D" opacity="0.86"/>
    <path d="M15.071,67.973 C14.464,66.232 17.17,65.348 17.491,67.268 C16.884,67.447 15.67,67.795 15.071,67.973 z" fill="#0F0E0D" opacity="0.86"/>
    <path d="M42.054,81.063 C42.42,81.045 43.152,81.018 43.509,81.009 C43.348,81.527 43.018,82.563 42.848,83.08 C42.652,82.58 42.25,81.563 42.054,81.063 z" fill="#0F0E0D" opacity="0.86"/>
    <path d="M107.107,84.616 C108.947,84.938 108.125,86.982 108.366,88.214 C108.982,88.197 110.223,88.17 110.848,88.161 C112.339,91.08 111.598,94.455 111.67,97.598 C108.259,96.438 112.098,90.92 108.982,88.973 C108.214,91.616 108.598,94.375 108.286,97.072 L107.134,97.652 C106.956,93.313 106.991,88.964 107.107,84.616 z" fill="#0F0E0D" opacity="0.86"/>
    <path d="M136.152,88.072 C136.206,86.777 135.786,85.125 137.384,84.536 C137.679,88.902 137.598,93.295 137.429,97.661 C135.536,95.259 136.268,91.938 135.634,89.107 C132.813,89.741 134.581,93.509 134.116,95.554 C134.857,96.223 135.598,96.893 136.277,97.634 C134.188,97.973 133.063,97.286 132.902,95.572 C132.759,93.268 132.536,90.848 133.268,88.616 C134.214,88.357 135.179,88.179 136.152,88.072 z" fill="#0F0E0D" opacity="0.86"/>
    <path d="M155.563,85.17 C155.911,85.089 156.607,84.92 156.956,84.839 C156.973,85.92 157,87 157.018,88.08 C158.054,88.277 159.893,88.197 160.027,89.652 C160.152,92.223 160.75,95.045 159.813,97.5 C159.545,97.384 159,97.152 158.732,97.036 C158.59,94.545 158.741,92.045 158.723,89.554 L157.17,89.616 C157.09,92.152 157.054,94.688 157.036,97.223 C156.643,97.223 155.848,97.232 155.447,97.232 C155.518,93.214 155.286,89.188 155.563,85.17 z" fill="#0F0E0D" opacity="0.86"/>
    <path d="M161.911,85.063 C163.34,84.607 163.813,85.125 163.34,86.598 C161.902,87.036 161.429,86.527 161.911,85.063 z" fill="#0F0E0D" opacity="0.86"/>
    <path d="M88.464,85.464 C91.464,85.277 90.741,88.518 91.277,90.438 C93.098,89.67 92.652,87.322 93.205,85.768 C93.723,85.795 94.741,85.839 95.259,85.857 C95.143,89.554 95.411,93.25 95.161,96.938 C94.83,97.116 94.161,97.464 93.83,97.643 C93.652,94.884 93.464,92.116 92.92,89.402 C92.509,91.152 92.786,92.947 92.795,94.723 C89.875,95.482 90.741,90.973 89.661,89.277 C89.598,91.857 90.027,94.5 89.527,97.045 L88.473,97.705 C88.259,93.625 88.286,89.545 88.464,85.464 z" fill="#0F0E0D" opacity="0.86"/>
    <path d="M102.875,88.705 C103.259,87.723 103.652,86.75 104.036,85.768 C104.473,86.839 104.964,87.884 105.518,88.902 C105.268,89.205 104.786,89.822 104.545,90.125 C104.607,92.652 104.08,95.455 105.929,97.518 C105.331,97.473 104.152,97.393 103.554,97.357 C103.089,94.491 103.545,91.545 102.875,88.705 z" fill="#0F0E0D" opacity="0.86"/>
    <path d="M115.857,86.143 C116.179,85.929 116.822,85.509 117.143,85.295 C117.384,88.839 117.295,92.393 117.277,95.947 C117.875,95.982 119.072,96.063 119.661,96.098 L119.706,97.42 C118.375,97.339 117.054,97.25 115.732,97.161 C115.92,93.491 115.652,89.813 115.857,86.143 z" fill="#0F0E0D" opacity="0.86"/>
    <path d="M173.84,87.447 C173.973,86.08 175.456,85.08 176.777,85.473 C178.393,85.527 178.322,87.607 178.822,88.661 C177.491,88.384 176.67,87.304 175.732,86.438 C175.161,89.643 174.197,93.652 176.206,96.464 C176.84,95.438 177.697,94.67 178.768,94.17 C179.134,96.848 175.706,99.045 174.098,96.375 C173.304,93.491 173.545,90.393 173.84,87.447 z" fill="#0F0E0D" opacity="0.86"/>
    <path d="M33.741,90.188 C34.027,89.714 34.598,88.786 34.884,88.322 C34.598,88.786 34.027,89.714 33.741,90.188 z" fill="#0F0E0D" opacity="0.86"/>
    <path d="M96.991,89.911 C97.384,87.964 100.259,87.393 101.045,89.348 C101.625,91.804 101.295,94.375 101.464,96.884 C100.134,96.982 98.723,97.866 97.429,97.188 C96.447,95.58 97.009,93.679 97.25,91.955 C97.938,91.902 99.313,91.786 100,91.732 C99.938,91.152 99.813,89.982 99.75,89.402 C98.83,89.572 97.911,89.75 96.991,89.911 M98.268,92.67 C98.322,94.009 98.402,95.339 98.509,96.67 C100.438,96.08 100.518,92.777 98.268,92.67 z" fill="#0F0E0D" opacity="0.86"/>
    <path d="M126.616,89.893 C127.357,88.009 130.197,87.33 131.116,89.464 C131.42,92 131.232,94.563 131.25,97.116 C129.679,97.223 126.768,98.17 126.777,95.643 C125.982,93.223 127.634,91.723 129.831,91.259 C129.759,90.777 129.616,89.822 129.545,89.339 C128.563,89.536 127.589,89.714 126.616,89.893 M129.331,96.652 C129.732,95.304 129.777,93.893 129.384,92.536 C127.527,93.045 127.581,96.063 129.331,96.652 z" fill="#0F0E0D" opacity="0.86"/>
    <path d="M139.045,92.938 C139.081,91.161 138.777,88.563 141.089,88.134 C144.456,87.286 145.348,94.982 141.402,93.688 C141.804,92.768 142.214,91.857 142.634,90.947 C142.438,90.482 142.045,89.545 141.848,89.072 C141.411,89.589 140.973,90.107 140.545,90.634 C141.036,92.009 141.152,93.5 140.598,94.875 C140.75,95.268 141.063,96.054 141.214,96.447 C142.098,95.786 142.982,95.125 143.893,94.482 C143.768,95.982 143.045,98.116 141.089,97.554 C138.866,97.223 139.107,94.616 139.045,92.938 z" fill="#0F0E0D" opacity="0.86"/>
    <path d="M145.5,88.625 C146.688,88.589 147.866,88.545 149.054,88.509 C148.438,89.063 147.822,89.616 147.206,90.161 C147.054,92.411 147.125,94.679 146.938,96.929 C146.598,97.107 145.929,97.455 145.589,97.634 C145.464,94.634 145.491,91.625 145.5,88.625 z" fill="#0F0E0D" opacity="0.86"/>
    <path d="M149.545,89.857 C149.875,86.848 155.107,88.197 153.393,90.964 C153.009,90.545 152.25,89.705 151.866,89.286 C149.411,89.786 151.84,92.036 152.688,92.866 C154.17,93.866 154.554,96.697 152.634,97.366 C150.84,98.375 149.661,96.33 148.991,94.991 C149.357,94.911 150.081,94.759 150.447,94.688 C150.857,95.705 151.598,96.313 152.661,96.482 C153.206,93.554 148.697,92.83 149.545,89.857 z" fill="#0F0E0D" opacity="0.86"/>
    <path d="M162.081,88.848 C162.384,88.67 162.982,88.322 163.286,88.143 C163.429,91.304 163.429,94.473 163.241,97.634 C162.947,97.438 162.366,97.045 162.081,96.848 C161.893,94.188 161.902,91.509 162.081,88.848 z" fill="#0F0E0D" opacity="0.86"/>
    <path d="M165.197,88.813 C166.509,88.563 167.822,88.313 169.143,88.063 C170.045,91.268 171.545,97.348 166.804,97.813 C166.777,98.357 166.732,99.455 166.706,100 L165.232,100 C165.215,96.268 165.215,92.536 165.197,88.813 M167.125,89.098 C166.688,91.607 166.67,94.161 167.215,96.652 C168.215,95.947 168.768,94.947 168.581,93.697 C168.384,92.116 169.259,89.598 167.125,89.098 z" fill="#0F0E0D" opacity="0.86"/>
    <path d="M180.563,88.759 C181.84,87.366 184.277,88.375 184.411,90.188 C184.598,92.447 184.956,95.009 183.679,97.027 C182.331,98.259 180.045,97.33 179.902,95.536 C179.813,93.348 179.107,90.616 180.563,88.759 M181.473,89.134 C181.286,91.482 181.063,93.884 181.536,96.223 C181.84,96.205 182.447,96.17 182.75,96.161 C182.706,93.973 184.295,89.955 181.473,89.134 z" fill="#0F0E0D" opacity="0.86"/>
    <path d="M186.125,88.822 C187.304,88.616 188.482,88.42 189.67,88.241 C189.009,88.947 188.34,89.634 187.661,90.322 C187.536,92.777 187.545,95.223 187.42,97.679 C187.125,97.464 186.536,97.027 186.241,96.813 C186.054,94.152 186.241,91.482 186.125,88.822 z" fill="#0F0E0D" opacity="0.86"/>
    <path d="M190.304,88.813 C191.563,88.536 192.84,88.259 194.107,87.982 C195.286,91.098 196.652,97.268 191.973,97.813 C191.92,98.366 191.822,99.455 191.777,100 L190.348,100 C190.34,96.268 190.331,92.545 190.304,88.813 M192.134,89.009 C191.848,91.536 191.84,94.089 192.143,96.625 C192.438,96.455 193.036,96.125 193.331,95.955 C193.482,93.795 194.813,89.991 192.134,89.009 z" fill="#0F0E0D" opacity="0.86"/>
    <path d="M196.456,90.098 C196.304,86.857 202.42,88.027 200.59,90.938 C199.697,90.384 198.857,89.741 198,89.152 C196.911,92.125 201.536,92.75 201.009,95.598 C201.134,97.098 199.259,97.848 198.027,97.554 C196.402,97.313 196.643,95.545 196.277,94.384 C197.295,95.098 198.304,95.839 199.313,96.554 C200.331,93.67 195.75,93 196.456,90.098 z" fill="#0F0E0D" opacity="0.86"/>
    <path d="M33.455,93.616 C33.857,92.67 34.455,91.732 35.438,91.33 C35.304,92.705 35.25,94.098 35.134,95.482 C35.027,95.75 34.83,96.277 34.723,96.536 L34.473,96.268 C34.214,95.607 33.705,94.277 33.455,93.616 z" fill="#0F0E0D" opacity="0.86"/>
    <path d="M120.736,92.879 C120.772,91.102 120.468,88.504 122.781,88.075 C126.147,87.227 127.039,94.923 123.093,93.629 C123.495,92.709 123.906,91.798 124.325,90.888 C124.129,90.423 123.736,89.486 123.539,89.013 C123.102,89.53 122.664,90.048 122.236,90.575 C122.727,91.95 122.843,93.441 122.289,94.816 C122.441,95.209 122.754,95.995 122.906,96.388 C123.789,95.727 124.673,95.066 125.584,94.423 C125.459,95.923 124.736,98.057 122.781,97.495 C120.557,97.164 120.798,94.557 120.736,92.879 z" fill="#0F0E0D" opacity="0.86"/>
  </g>
  <defs/>
</svg>
