<svg xmlns="http://www.w3.org/2000/svg" xmlns:xlink="http://www.w3.org/1999/xlink" version="1.1" x="0px" y="0px" width="100px" height="100px" viewBox="0 0 100 100" enable-background="new 0 0 100 100" xml:space="preserve">
<g id="Captions" display="none">
</g>
<g id="Your_Icon">
	<path d="M69.301,91.925L55.394,81.152V67.864c1.381-1.238,2.253-3.03,2.253-5.03V30.301c0-3.736-3.027-6.764-6.763-6.764   c-3.736,0-6.766,3.028-6.766,6.764v7.496L27.754,52.759c-1.686,1.54-1.803,4.155-0.261,5.84c0.815,0.893,1.931,1.345,3.051,1.345   c0.996,0,1.996-0.357,2.788-1.083L44.118,49v13.834c0,0.308,0.028,0.608,0.067,0.905L32.649,73.977   c-0.626,0.557-1.07,1.289-1.271,2.103L26.839,94.5c-0.546,2.218,0.807,4.457,3.024,5.003c0.333,0.083,0.666,0.122,0.992,0.122   c1.856,0,3.547-1.262,4.01-3.146L39.1,79.308l7.273-6.456v10.513c0,1.395,0.646,2.711,1.749,3.565l15.654,12.125   c0.822,0.637,1.795,0.945,2.758,0.945c1.349,0,2.682-0.602,3.568-1.748C71.629,96.282,71.269,93.45,69.301,91.925z"/>
	<path d="M66.809,23.537c-3.736,0-6.766,3.028-6.766,6.764V47.57c0,3.735,3.029,6.764,6.766,6.764c3.735,0,6.763-3.028,6.763-6.764   V30.301C73.571,26.565,70.544,23.537,66.809,23.537z"/>
	<circle cx="48.656" cy="9.771" r="9.771"/>
</g>
</svg>