<svg xmlns="http://www.w3.org/2000/svg" xmlns:xlink="http://www.w3.org/1999/xlink" version="1.1" x="0px" y="0px" width="100px" height="100px" viewBox="0 0 100 100" enable-background="new 0 0 100 100" xml:space="preserve">
<g id="Captions" display="none">
</g>
<g id="Your_Icon">
	<path fill="#000000" d="M37.138,23.042V46.28l-7.165,3.435l-2.748-0.005h-3.794l1.9,6.433l-3.228,6.348l-0.341-10.52l1.384-2.396   h-4.586l1.384,2.396l-0.341,10.52l-3.228-6.348l1.9-6.433h-1.993l-4.72,0.008c-1.46-0.126-2.875,0.962-3.383,2.408L0,75.357h7.468   l4.095-11.631v11.631h20.265l-0.007-18.744c0.074-0.029,0.15-0.047,0.224-0.082l5.094-2.441v6.586H100V23.042H37.138z    M96.279,56.955H40.861v-4.648l17.368-8.323c1.637-0.786,2.324-2.75,1.539-4.386l-0.205-0.424   c-0.787-1.636-2.748-2.324-4.387-1.539l-14.315,6.861V26.763h55.418V56.955z"/>
	<path fill="#000000" d="M30.001,39.655c0-0.458-0.465-0.821-1.071-0.907c-0.799-3.272-3.752-5.714-7.288-5.714   c-3.428,0-6.32,2.322-7.202,5.472c-0.712,0.015-1.283,0.427-1.283,0.938v1.65c0,0.032,0.009,0.063,0.014,0.095   c-0.006,0.049-0.014,0.098-0.014,0.147c0,0.659,0.559,1.239,1.415,1.625c1.014,2.947,3.798,5.066,7.071,5.066   c3.229,0,5.971-2.038,7.033-4.896c0.806-0.386,1.326-0.949,1.326-1.584c0-0.05-0.008-0.099-0.014-0.147   c0.005-0.032,0.014-0.062,0.014-0.095V39.655z M20.232,41.259c0,1.29-1.468,2.336-3.279,2.336s-3.279-1.046-3.279-2.336   c0-0.063,0.019-0.122,0.026-0.183c-0.01-0.077-0.026-0.153-0.026-0.232c0-1.061,0.953-1.921,2.129-1.921h2.301   c1.176,0,2.128,0.86,2.128,1.921c0,0.08-0.016,0.155-0.026,0.232C20.214,41.137,20.232,41.196,20.232,41.259z M29.483,41.47   c0,1.29-1.469,2.336-3.279,2.336c-1.811,0-3.279-1.046-3.279-2.336c0-0.063,0.019-0.122,0.026-0.183   c-0.01-0.077-0.026-0.153-0.026-0.232c0-1.061,0.953-1.921,2.129-1.921h2.301c1.176,0,2.129,0.86,2.129,1.921   c0,0.08-0.016,0.155-0.026,0.232C29.464,41.348,29.483,41.407,29.483,41.47z"/>
</g>
</svg>