<svg xmlns="http://www.w3.org/2000/svg" xmlns:xlink="http://www.w3.org/1999/xlink" xml:space="preserve" width="100px" height="100px" version="1.0" style="shape-rendering:geometricPrecision; text-rendering:geometricPrecision; image-rendering:optimizeQuality; fill-rule:evenodd; clip-rule:evenodd" viewBox="0 0 100 100">
 <defs>
  <style type="text/css">
   
    .fil0 {fill:black;fill-rule:nonzero}
   
  </style>
 </defs>
 <g id="Layer_x0020_1">
  <metadata id="CorelCorpID_0Corel-Layer"/>
  <path class="fil0" d="M62 5c4,0 7,3 7,8 0,4 -3,7 -7,7 -4,0 -8,-3 -8,-7 0,-5 4,-8 8,-8zm-45 31l15 0 0 4 -15 0 0 -4zm-4 5l18 0 0 4 -18 0 0 -4zm1 5l19 0 0 4 -19 0 0 -4zm31 5l-32 0 0 40 5 0 0 -29 22 0 0 29 5 0 0 -40zm35 -3l7 12 0 1 0 1 -16 8 0 0 0 21c0,2 -2,4 -4,4 -2,0 -4,-2 -4,-4l0 -33 -3 0 0 33c0,2 -2,4 -4,4 -2,0 -4,-2 -4,-4l0 -24 0 -9 0 -25 -1 0 -11 7c-1,0 -2,-1 -3,-2l-9 -8c-1,-1 -1,-3 0,-5 1,-1 4,-1 5,0l7 7 9 -6c2,-2 4,-3 7,-3l12 0c0,0 2,0 3,0 5,0 8,3 8,8l0 16 1 1zm-9 4l2 -2 0 -17 -2 0 0 19zm0 2l0 14 14 -8 -6 -9 0 3c0,2 -1,4 -3,4 -2,0 -3,-2 -3,-4l0 -1 -2 1z"/>
 </g>
</svg>